{"glyphs":{"0":{"ha":833,"x_min":86,"x_max":747,"o":"m 417 -11 q 171 116 256 -11 q 86 489 86 243 q 170 863 86 736 q 417 990 254 990 q 663 864 579 990 q 747 490 747 738 q 663 117 747 244 q 417 -11 578 -11 m 417 47 q 619 156 553 47 q 685 490 685 264 q 619 826 685 718 q 417 933 554 933 q 215 825 281 933 q 149 490 149 717 q 215 156 149 265 q 417 47 281 47 z "},"1":{"ha":833,"x_min":200,"x_max":693,"o":"m 693 53 l 693 0 l 200 0 l 200 53 l 418 53 l 418 894 l 242 778 l 206 826 l 418 969 l 418 971 l 432 979 l 475 979 l 475 53 l 693 53 z "},"2":{"ha":833,"x_min":110,"x_max":739,"o":"m 739 53 l 739 0 l 132 0 l 132 44 l 485 442 q 599 601 564 532 q 633 740 633 669 q 579 884 633 833 q 426 935 525 935 q 278 905 349 935 q 139 813 208 875 l 110 861 q 253 955 168 919 q 424 990 339 990 q 621 924 549 990 q 693 742 693 857 q 653 576 693 657 q 524 394 614 494 l 214 53 l 739 53 z "},"3":{"ha":833,"x_min":94,"x_max":713,"o":"m 535 503 q 667 418 621 479 q 713 264 713 357 q 633 64 713 138 q 415 -10 553 -10 q 240 24 324 -10 q 94 119 156 57 l 124 168 q 263 76 192 106 q 417 46 335 46 q 591 101 529 46 q 653 260 653 157 q 588 417 653 364 q 396 471 522 471 l 299 471 l 299 525 l 375 525 q 564 584 496 525 q 632 749 632 643 q 578 886 632 838 q 426 935 524 935 q 280 905 350 935 q 139 813 210 875 l 110 861 q 252 956 169 922 q 425 990 335 990 q 621 925 549 990 q 693 747 693 860 q 651 596 693 661 q 535 503 608 531 z "},"4":{"ha":833,"x_min":83,"x_max":771,"o":"m 771 231 l 617 231 l 617 0 l 558 0 l 558 231 l 119 231 l 118 228 l 118 231 l 83 231 l 83 276 l 568 979 l 617 979 l 617 285 l 771 285 l 771 231 m 558 285 l 558 865 l 157 285 l 558 285 z "},"5":{"ha":833,"x_min":129,"x_max":751,"o":"m 449 604 q 670 519 589 604 q 751 296 751 435 q 714 138 751 207 q 607 29 676 68 q 444 -10 538 -10 q 274 24 358 -10 q 129 119 190 58 l 158 168 q 444 46 293 46 q 623 115 557 46 q 689 297 689 183 q 624 478 689 408 q 454 547 560 547 q 311 514 371 547 q 207 408 251 481 l 154 408 l 154 979 l 717 979 l 717 925 l 211 925 l 211 494 q 313 576 251 547 q 449 604 375 604 z "},"6":{"ha":832,"x_min":92,"x_max":751,"o":"m 442 603 q 603 565 533 603 q 713 457 674 526 q 751 296 751 388 q 713 138 751 208 q 604 28 674 68 q 447 -11 535 -11 q 184 111 276 -11 q 92 460 92 233 q 186 851 92 711 q 451 990 281 990 q 610 957 533 990 q 750 861 688 924 l 721 813 q 585 906 650 876 q 450 935 521 935 q 231 809 310 935 q 151 458 151 683 l 151 403 q 260 549 182 496 q 442 603 338 603 m 446 44 q 623 114 556 44 q 690 297 690 183 q 622 478 690 410 q 443 547 554 547 q 311 515 369 547 q 220 426 253 483 q 188 297 188 369 q 259 114 188 183 q 446 44 331 44 z "},"7":{"ha":833,"x_min":108,"x_max":724,"o":"m 724 979 l 724 936 l 253 0 l 190 0 l 657 926 l 108 926 l 108 979 l 724 979 z "},"8":{"ha":833,"x_min":79,"x_max":754,"o":"m 568 501 q 705 410 656 475 q 754 256 754 346 q 667 60 754 131 q 417 -10 581 -10 q 166 60 253 -10 q 79 256 79 131 q 128 411 79 346 q 264 501 178 476 q 145 590 189 529 q 101 732 101 651 q 183 921 101 851 q 417 990 265 990 q 650 921 568 990 q 732 732 732 851 q 688 590 732 651 q 568 501 643 529 m 164 732 q 228 580 164 635 q 417 525 293 525 q 605 580 540 525 q 669 732 669 635 q 605 881 669 828 q 417 935 540 935 q 228 881 293 935 q 164 732 164 828 m 417 46 q 692 257 692 46 q 417 468 692 468 q 142 257 142 468 q 417 46 142 46 z "},"9":{"ha":833,"x_min":83,"x_max":743,"o":"m 388 990 q 651 868 558 990 q 743 519 743 746 q 649 128 743 268 q 383 -11 554 -11 q 224 22 301 -11 q 85 118 147 56 l 114 167 q 249 74 185 103 q 385 44 314 44 q 604 170 525 44 q 683 521 683 296 l 683 574 q 574 429 653 482 q 393 376 496 376 q 231 415 301 376 q 122 522 161 453 q 83 683 83 592 q 122 841 83 771 q 231 951 161 911 q 388 990 300 990 m 392 432 q 524 464 465 432 q 615 553 582 496 q 647 682 647 610 q 576 865 647 796 q 390 935 506 935 q 213 865 279 935 q 146 682 146 796 q 213 501 146 569 q 392 432 281 432 z "},"\u0000":{"ha":0,"x_min":0,"x_max":0,"o":""},"\r":{"ha":342,"x_min":0,"x_max":0,"o":""}," ":{"ha":342,"x_min":0,"x_max":0,"o":""},"A":{"ha":992,"x_min":47,"x_max":944,"o":"m 767 271 l 224 271 l 107 0 l 47 0 l 468 979 l 524 979 l 944 0 l 883 0 l 767 271 m 743 326 l 496 904 l 247 326 l 743 326 z "},"Á":{"ha":992,"x_min":47,"x_max":944,"o":"m 767 271 l 224 271 l 107 0 l 47 0 l 468 979 l 524 979 l 944 0 l 883 0 l 767 271 m 743 326 l 496 904 l 247 326 l 743 326 m 471 1063 l 610 1269 l 693 1269 l 521 1063 l 471 1063 z "},"Ă":{"ha":992,"x_min":47,"x_max":944,"o":"m 767 271 l 224 271 l 107 0 l 47 0 l 468 979 l 524 979 l 944 0 l 883 0 l 767 271 m 743 326 l 496 904 l 247 326 l 743 326 m 496 1081 q 369 1115 425 1081 q 282 1226 313 1149 l 338 1251 q 410 1162 374 1186 q 496 1138 446 1138 q 582 1162 546 1138 q 654 1251 618 1186 l 710 1226 q 496 1081 650 1081 z "},"Ắ":{"ha":992,"x_min":47,"x_max":944,"o":"m 767 271 l 224 271 l 107 0 l 47 0 l 468 979 l 524 979 l 944 0 l 883 0 l 767 271 m 743 326 l 496 904 l 247 326 l 743 326 m 472 1201 l 610 1399 l 694 1399 l 519 1201 l 472 1201 m 496 1056 q 369 1090 425 1056 q 282 1201 313 1124 l 340 1226 q 411 1138 376 1161 q 496 1114 446 1114 q 581 1138 546 1114 q 651 1226 615 1161 l 710 1201 q 496 1056 650 1056 z "},"Ặ":{"ha":992,"x_min":47,"x_max":944,"o":"m 767 271 l 224 271 l 107 0 l 47 0 l 468 979 l 524 979 l 944 0 l 883 0 l 767 271 m 743 326 l 496 904 l 247 326 l 743 326 m 542 -151 l 542 -240 l 450 -240 l 450 -151 l 542 -151 m 496 1081 q 369 1115 425 1081 q 282 1226 313 1149 l 338 1251 q 410 1162 374 1186 q 496 1138 446 1138 q 582 1162 546 1138 q 654 1251 618 1186 l 710 1226 q 496 1081 650 1081 z "},"Ằ":{"ha":992,"x_min":47,"x_max":944,"o":"m 767 271 l 224 271 l 107 0 l 47 0 l 468 979 l 524 979 l 944 0 l 883 0 l 767 271 m 743 326 l 496 904 l 247 326 l 743 326 m 297 1399 l 382 1399 l 519 1201 l 472 1201 l 297 1399 m 496 1056 q 282 1201 342 1056 l 340 1226 q 411 1138 376 1161 q 496 1114 446 1114 q 581 1138 546 1114 q 651 1226 615 1161 l 710 1201 q 623 1090 679 1124 q 496 1056 567 1056 z "},"Ẳ":{"ha":992,"x_min":47,"x_max":944,"o":"m 767 271 l 224 271 l 107 0 l 47 0 l 468 979 l 524 979 l 944 0 l 883 0 l 767 271 m 743 326 l 496 904 l 247 326 l 743 326 m 525 1201 l 468 1201 l 468 1224 q 482 1259 468 1247 q 524 1285 496 1271 q 553 1300 543 1293 q 563 1318 563 1307 q 546 1340 563 1332 q 500 1347 529 1347 q 413 1331 457 1347 l 396 1382 q 499 1406 444 1406 q 594 1381 560 1406 q 629 1317 629 1357 q 615 1281 629 1293 q 569 1253 600 1268 q 536 1235 547 1243 q 525 1214 525 1226 l 525 1201 m 496 1056 q 282 1201 342 1056 l 340 1226 q 411 1138 376 1161 q 496 1114 446 1114 q 581 1138 546 1114 q 651 1226 615 1161 l 710 1201 q 623 1090 679 1124 q 496 1056 567 1056 z "},"Ẵ":{"ha":992,"x_min":47,"x_max":944,"o":"m 767 271 l 224 271 l 107 0 l 47 0 l 468 979 l 524 979 l 944 0 l 883 0 l 767 271 m 743 326 l 496 904 l 247 326 l 743 326 m 282 1271 q 311 1374 282 1336 q 392 1413 340 1413 q 449 1400 422 1413 q 514 1363 476 1388 q 594 1326 568 1326 q 645 1351 626 1326 q 663 1408 664 1376 l 710 1408 q 681 1305 710 1343 q 600 1267 651 1267 q 542 1279 569 1267 q 478 1317 515 1292 q 397 1353 424 1353 q 347 1328 365 1353 q 329 1271 328 1303 l 282 1271 m 496 1056 q 282 1201 342 1056 l 340 1226 q 411 1138 376 1161 q 496 1114 446 1114 q 581 1138 546 1114 q 651 1226 615 1161 l 710 1201 q 623 1090 679 1124 q 496 1056 567 1056 z "},"Â":{"ha":992,"x_min":47,"x_max":944,"o":"m 767 271 l 224 271 l 107 0 l 47 0 l 468 979 l 524 979 l 944 0 l 883 0 l 767 271 m 743 326 l 496 904 l 247 326 l 743 326 m 315 1063 l 471 1269 l 521 1269 l 676 1063 l 606 1063 l 496 1219 l 386 1063 l 315 1063 z "},"Ấ":{"ha":992,"x_min":47,"x_max":944,"o":"m 767 271 l 224 271 l 107 0 l 47 0 l 468 979 l 524 979 l 944 0 l 883 0 l 767 271 m 743 326 l 496 904 l 247 326 l 743 326 m 606 1201 l 749 1399 l 835 1399 l 656 1201 l 606 1201 m 315 1063 l 471 1272 l 521 1272 l 676 1063 l 606 1063 l 496 1222 l 386 1063 l 315 1063 z "},"Ậ":{"ha":992,"x_min":47,"x_max":944,"o":"m 767 271 l 224 271 l 107 0 l 47 0 l 468 979 l 524 979 l 944 0 l 883 0 l 767 271 m 743 326 l 496 904 l 247 326 l 743 326 m 542 -151 l 542 -240 l 450 -240 l 450 -151 l 542 -151 m 315 1063 l 471 1269 l 521 1269 l 676 1063 l 606 1063 l 496 1219 l 386 1063 l 315 1063 z "},"Ầ":{"ha":992,"x_min":47,"x_max":944,"o":"m 767 271 l 224 271 l 107 0 l 47 0 l 468 979 l 524 979 l 944 0 l 883 0 l 767 271 m 743 326 l 496 904 l 247 326 l 743 326 m 518 1399 l 604 1399 l 715 1201 l 665 1201 l 518 1399 m 315 1063 l 471 1272 l 521 1272 l 676 1063 l 606 1063 l 496 1222 l 386 1063 l 315 1063 z "},"Ẩ":{"ha":992,"x_min":47,"x_max":944,"o":"m 767 271 l 224 271 l 107 0 l 47 0 l 468 979 l 524 979 l 944 0 l 883 0 l 767 271 m 743 326 l 496 904 l 247 326 l 743 326 m 663 1201 l 604 1201 l 604 1224 q 618 1259 604 1247 q 661 1285 632 1271 q 690 1300 681 1293 q 700 1318 700 1307 q 683 1340 700 1332 q 636 1347 665 1347 q 550 1331 594 1347 l 533 1382 q 635 1406 582 1406 q 732 1381 697 1406 q 767 1317 767 1357 q 752 1281 767 1293 q 707 1253 738 1268 q 674 1235 685 1243 q 663 1214 663 1226 l 663 1201 m 315 1063 l 471 1272 l 521 1272 l 676 1063 l 606 1063 l 496 1222 l 386 1063 l 315 1063 z "},"Ẫ":{"ha":992,"x_min":47,"x_max":944,"o":"m 767 271 l 224 271 l 107 0 l 47 0 l 468 979 l 524 979 l 944 0 l 883 0 l 767 271 m 743 326 l 496 904 l 247 326 l 743 326 m 282 1292 q 311 1387 282 1350 q 392 1424 340 1424 q 449 1414 422 1424 q 514 1385 475 1404 q 560 1363 542 1371 q 594 1356 579 1356 q 645 1379 626 1356 q 663 1429 664 1403 l 710 1429 q 681 1333 710 1369 q 600 1297 651 1297 q 543 1307 569 1297 q 478 1336 517 1317 q 435 1356 457 1347 q 397 1364 413 1364 q 347 1341 365 1364 q 329 1292 328 1318 l 282 1292 m 315 1063 l 471 1272 l 521 1272 l 676 1063 l 606 1063 l 496 1222 l 386 1063 l 315 1063 z "},"Ȁ":{"ha":992,"x_min":47,"x_max":944,"o":"m 767 271 l 224 271 l 107 0 l 47 0 l 468 979 l 524 979 l 944 0 l 883 0 l 767 271 m 743 326 l 496 904 l 247 326 l 743 326 m 268 1269 l 342 1269 l 439 1063 l 401 1063 l 268 1269 m 418 1269 l 493 1269 l 590 1063 l 553 1063 l 418 1269 z "},"Ä":{"ha":992,"x_min":47,"x_max":944,"o":"m 767 271 l 224 271 l 107 0 l 47 0 l 468 979 l 524 979 l 944 0 l 883 0 l 767 271 m 743 326 l 496 904 l 247 326 l 743 326 m 426 1210 l 426 1126 l 342 1126 l 342 1210 l 426 1210 m 650 1210 l 650 1126 l 565 1126 l 565 1210 l 650 1210 z "},"Ạ":{"ha":992,"x_min":47,"x_max":944,"o":"m 767 271 l 224 271 l 107 0 l 47 0 l 468 979 l 524 979 l 944 0 l 883 0 l 767 271 m 743 326 l 496 904 l 247 326 l 743 326 m 542 -151 l 542 -240 l 450 -240 l 450 -151 l 542 -151 z "},"À":{"ha":992,"x_min":47,"x_max":944,"o":"m 767 271 l 224 271 l 107 0 l 47 0 l 468 979 l 524 979 l 944 0 l 883 0 l 767 271 m 743 326 l 496 904 l 247 326 l 743 326 m 299 1269 l 382 1269 l 521 1063 l 471 1063 l 299 1269 z "},"Ả":{"ha":992,"x_min":47,"x_max":944,"o":"m 767 271 l 224 271 l 107 0 l 47 0 l 468 979 l 524 979 l 944 0 l 883 0 l 767 271 m 743 326 l 496 904 l 247 326 l 743 326 m 525 1063 l 468 1063 l 468 1083 q 483 1122 468 1108 q 525 1153 497 1136 q 553 1172 544 1164 q 563 1190 563 1179 q 546 1211 563 1204 q 500 1218 529 1218 q 413 1201 457 1218 l 396 1254 q 499 1276 446 1276 q 595 1253 561 1276 q 629 1188 629 1229 q 613 1147 629 1161 q 567 1115 597 1132 q 535 1096 544 1104 q 525 1075 525 1088 l 525 1063 z "},"Ȃ":{"ha":992,"x_min":47,"x_max":944,"o":"m 767 271 l 224 271 l 107 0 l 47 0 l 468 979 l 524 979 l 944 0 l 883 0 l 767 271 m 743 326 l 496 904 l 247 326 l 743 326 m 496 1253 q 623 1219 567 1253 q 710 1107 679 1185 l 654 1083 q 582 1172 618 1149 q 496 1196 546 1196 q 410 1172 446 1196 q 338 1083 374 1149 l 282 1107 q 496 1253 342 1253 z "},"Ā":{"ha":992,"x_min":47,"x_max":944,"o":"m 767 271 l 224 271 l 107 0 l 47 0 l 468 979 l 524 979 l 944 0 l 883 0 l 767 271 m 743 326 l 496 904 l 247 326 l 743 326 m 293 1197 l 699 1197 l 699 1139 l 293 1139 l 293 1197 z "},"Ą":{"ha":992,"x_min":47,"x_max":1013,"o":"m 1013 -232 q 904 -264 968 -264 q 792 -224 835 -264 q 750 -122 750 -185 q 780 -26 750 -68 q 867 39 810 17 l 767 271 l 224 271 l 107 0 l 47 0 l 468 979 l 524 979 l 944 0 l 942 0 q 844 -33 876 0 q 811 -117 811 -67 q 838 -186 811 -161 q 907 -211 864 -211 q 990 -185 944 -211 l 1013 -232 m 743 326 l 496 904 l 247 326 l 743 326 z "},"Å":{"ha":992,"x_min":47,"x_max":944,"o":"m 767 271 l 224 271 l 107 0 l 47 0 l 454 946 q 387 992 413 958 q 361 1069 361 1026 q 401 1163 361 1125 q 496 1201 440 1201 q 590 1163 551 1201 q 629 1069 629 1125 q 603 992 629 1026 q 538 946 578 958 l 944 0 l 883 0 l 767 271 m 425 1069 q 445 1017 425 1039 q 496 996 465 996 q 547 1017 526 996 q 567 1069 567 1039 q 547 1122 567 1101 q 496 1143 526 1143 q 445 1122 465 1143 q 425 1069 425 1101 m 743 326 l 496 904 l 247 326 l 743 326 z "},"Ǻ":{"ha":992,"x_min":47,"x_max":944,"o":"m 767 271 l 224 271 l 107 0 l 47 0 l 454 946 q 387 992 413 958 q 361 1069 361 1026 q 401 1163 361 1125 q 496 1201 440 1201 q 572 1178 540 1201 l 696 1303 l 785 1303 l 604 1147 q 629 1069 629 1111 q 603 992 629 1026 q 538 946 578 958 l 944 0 l 883 0 l 767 271 m 425 1069 q 445 1017 425 1039 q 496 996 465 996 q 547 1017 526 996 q 567 1069 567 1039 q 547 1122 567 1101 q 496 1143 526 1143 q 445 1122 465 1143 q 425 1069 425 1101 m 743 326 l 496 904 l 247 326 l 743 326 z "},"Ã":{"ha":992,"x_min":47,"x_max":944,"o":"m 767 271 l 224 271 l 107 0 l 47 0 l 468 979 l 524 979 l 944 0 l 883 0 l 767 271 m 743 326 l 496 904 l 247 326 l 743 326 m 282 1103 q 311 1201 282 1164 q 392 1238 340 1238 q 450 1225 422 1238 q 514 1189 478 1213 q 560 1163 542 1172 q 594 1154 579 1154 q 645 1178 626 1154 q 663 1233 664 1201 l 710 1233 q 681 1135 710 1172 q 600 1099 651 1099 q 542 1111 569 1099 q 478 1147 514 1124 q 431 1173 450 1164 q 397 1182 413 1182 q 347 1158 365 1182 q 329 1103 328 1135 l 282 1103 z "},"Æ":{"ha":1369,"x_min":19,"x_max":1292,"o":"m 664 924 l 749 524 l 1264 524 l 1264 469 l 760 469 l 847 56 l 1292 56 l 1292 0 l 804 0 l 747 271 l 242 271 l 81 0 l 19 0 l 603 979 l 1292 979 l 1292 924 l 664 924 m 736 326 l 615 901 l 274 326 l 736 326 z "},"Ǽ":{"ha":1369,"x_min":19,"x_max":1292,"o":"m 664 924 l 749 524 l 1264 524 l 1264 469 l 760 469 l 847 56 l 1292 56 l 1292 0 l 804 0 l 747 271 l 242 271 l 81 0 l 19 0 l 603 979 l 1292 979 l 1292 924 l 664 924 m 736 326 l 615 901 l 274 326 l 736 326 m 663 1063 l 801 1269 l 885 1269 l 713 1063 l 663 1063 z "},"B":{"ha":924,"x_min":133,"x_max":826,"o":"m 649 501 q 780 419 733 481 q 826 265 826 357 q 744 67 826 135 q 510 0 663 0 l 133 0 l 133 979 l 494 979 q 724 913 643 979 q 804 722 804 847 q 763 585 804 642 q 649 501 722 529 m 192 525 l 488 525 q 678 578 613 525 q 743 731 743 631 q 488 925 743 925 l 192 925 l 192 525 m 508 54 q 702 104 639 54 q 765 258 765 154 q 701 416 765 363 q 508 469 636 469 l 192 469 l 192 54 l 508 54 z "},"C":{"ha":940,"x_min":93,"x_max":863,"o":"m 529 -11 q 297 49 394 -11 q 146 222 199 108 q 93 490 93 335 q 146 758 93 646 q 297 931 199 871 q 529 990 394 990 q 863 858 735 990 l 833 810 q 690 905 761 876 q 528 933 618 933 q 252 817 350 933 q 154 490 154 700 q 252 163 154 279 q 528 46 350 46 q 690 74 618 46 q 833 169 761 103 l 863 121 q 529 -11 735 -11 z "},"Ć":{"ha":940,"x_min":93,"x_max":863,"o":"m 529 -11 q 297 49 394 -11 q 146 222 199 108 q 93 490 93 335 q 146 758 93 646 q 297 931 199 871 q 529 990 394 990 q 863 858 735 990 l 833 810 q 690 905 761 876 q 528 933 618 933 q 252 817 350 933 q 154 490 154 700 q 252 163 154 279 q 528 46 350 46 q 690 74 618 46 q 833 169 761 103 l 863 121 q 529 -11 735 -11 m 506 1063 l 644 1269 l 728 1269 l 556 1063 l 506 1063 z "},"Č":{"ha":940,"x_min":93,"x_max":863,"o":"m 529 -11 q 297 49 394 -11 q 146 222 199 108 q 93 490 93 335 q 146 758 93 646 q 297 931 199 871 q 529 990 394 990 q 863 858 735 990 l 833 810 q 690 905 761 876 q 528 933 618 933 q 252 817 350 933 q 154 490 154 700 q 252 163 154 279 q 528 46 350 46 q 690 74 618 46 q 833 169 761 103 l 863 121 q 529 -11 735 -11 m 711 1269 l 556 1063 l 506 1063 l 350 1269 l 421 1269 l 531 1113 l 640 1269 l 711 1269 z "},"Ç":{"ha":940,"x_min":93,"x_max":863,"o":"m 528 46 q 690 74 618 46 q 833 169 761 103 l 863 121 q 544 -11 739 -7 l 540 -62 q 582 -57 557 -57 q 652 -81 622 -57 q 682 -153 682 -104 q 643 -233 682 -201 q 536 -264 604 -264 q 474 -258 507 -264 q 418 -237 442 -251 l 438 -190 q 539 -210 482 -210 q 602 -194 581 -210 q 624 -153 624 -179 q 610 -121 624 -132 q 572 -110 597 -110 q 503 -125 543 -110 l 476 -106 l 486 -10 q 197 137 301 6 q 93 490 93 268 q 146 758 93 646 q 297 931 199 871 q 529 990 394 990 q 863 858 735 990 l 833 810 q 690 905 761 876 q 528 933 618 933 q 252 817 350 933 q 154 490 154 700 q 252 163 154 279 q 528 46 350 46 z "},"Ḉ":{"ha":940,"x_min":93,"x_max":863,"o":"m 556 1063 l 506 1063 l 644 1269 l 728 1269 l 556 1063 m 528 46 q 690 74 618 46 q 833 169 761 103 l 863 121 q 544 -11 739 -7 l 540 -62 q 582 -57 557 -57 q 652 -81 622 -57 q 682 -153 682 -104 q 643 -233 682 -201 q 536 -264 604 -264 q 474 -258 507 -264 q 418 -237 442 -251 l 438 -190 q 539 -210 482 -210 q 602 -194 581 -210 q 624 -153 624 -179 q 610 -121 624 -132 q 572 -110 597 -110 q 503 -125 543 -110 l 476 -106 l 486 -10 q 197 137 301 6 q 93 490 93 268 q 146 758 93 646 q 297 931 199 871 q 529 990 394 990 q 863 858 735 990 l 833 810 q 690 905 761 876 q 528 933 618 933 q 252 817 350 933 q 154 490 154 700 q 252 163 154 279 q 528 46 350 46 z "},"Ĉ":{"ha":940,"x_min":93,"x_max":863,"o":"m 529 -11 q 297 49 394 -11 q 146 222 199 108 q 93 490 93 335 q 146 758 93 646 q 297 931 199 871 q 529 990 394 990 q 863 858 735 990 l 833 810 q 690 905 761 876 q 528 933 618 933 q 252 817 350 933 q 154 490 154 700 q 252 163 154 279 q 528 46 350 46 q 690 74 618 46 q 833 169 761 103 l 863 121 q 529 -11 735 -11 m 350 1063 l 506 1269 l 556 1269 l 711 1063 l 640 1063 l 531 1219 l 421 1063 l 350 1063 z "},"Ċ":{"ha":940,"x_min":93,"x_max":863,"o":"m 529 -11 q 297 49 394 -11 q 146 222 199 108 q 93 490 93 335 q 146 758 93 646 q 297 931 199 871 q 529 990 394 990 q 863 858 735 990 l 833 810 q 690 905 761 876 q 528 933 618 933 q 252 817 350 933 q 154 490 154 700 q 252 163 154 279 q 528 46 350 46 q 690 74 618 46 q 833 169 761 103 l 863 121 q 529 -11 735 -11 m 575 1211 l 575 1124 l 486 1124 l 486 1211 l 575 1211 z "},"D":{"ha":1007,"x_min":133,"x_max":914,"o":"m 133 979 l 435 979 q 790 853 665 979 q 914 490 914 726 q 789 128 914 256 q 435 0 664 0 l 133 0 l 133 979 m 433 53 q 746 163 640 53 q 851 490 851 274 q 747 817 851 707 q 433 926 642 926 l 190 926 l 190 53 l 433 53 z "},"Ǆ":{"ha":1790,"x_min":133,"x_max":1738,"o":"m 133 979 l 435 979 q 790 853 665 979 q 914 490 914 726 q 789 128 914 256 q 435 0 664 0 l 133 0 l 133 979 m 433 53 q 746 163 640 53 q 851 490 851 274 q 747 817 851 707 q 433 926 642 926 l 190 926 l 190 53 l 433 53 m 1738 0 l 1078 0 l 1076 -3 l 1076 0 l 1044 0 l 1044 43 l 1654 925 l 1044 925 l 1044 979 l 1692 979 l 1693 982 l 1693 979 l 1724 979 l 1724 936 l 1115 54 l 1738 54 l 1738 0 m 1567 1269 l 1411 1063 l 1361 1063 l 1206 1269 l 1276 1269 l 1386 1113 l 1496 1269 l 1567 1269 z "},"Ð":{"ha":1013,"x_min":6,"x_max":919,"o":"m 440 979 q 796 853 672 979 q 919 490 919 726 q 794 128 919 256 q 440 0 669 0 l 139 0 l 139 472 l 6 472 l 6 524 l 139 524 l 139 979 l 440 979 m 439 53 q 751 163 646 53 q 857 490 857 274 q 752 817 857 707 q 439 926 647 926 l 196 926 l 196 524 l 469 524 l 469 472 l 196 472 l 196 53 l 439 53 z "},"Ď":{"ha":1007,"x_min":133,"x_max":914,"o":"m 133 979 l 435 979 q 790 853 665 979 q 914 490 914 726 q 789 128 914 256 q 435 0 664 0 l 133 0 l 133 979 m 433 53 q 746 163 640 53 q 851 490 851 274 q 747 817 851 707 q 433 926 642 926 l 190 926 l 190 53 l 433 53 m 683 1269 l 528 1063 l 478 1063 l 322 1269 l 393 1269 l 503 1113 l 613 1269 l 683 1269 z "},"Đ":{"ha":1013,"x_min":6,"x_max":919,"o":"m 440 979 q 796 853 672 979 q 919 490 919 726 q 794 128 919 256 q 440 0 669 0 l 139 0 l 139 472 l 6 472 l 6 524 l 139 524 l 139 979 l 440 979 m 439 53 q 751 163 646 53 q 857 490 857 274 q 752 817 857 707 q 439 926 647 926 l 196 926 l 196 524 l 469 524 l 469 472 l 196 472 l 196 53 l 439 53 z "},"Ḍ":{"ha":1007,"x_min":133,"x_max":914,"o":"m 133 979 l 435 979 q 790 853 665 979 q 914 490 914 726 q 789 128 914 256 q 435 0 664 0 l 133 0 l 133 979 m 433 53 q 746 163 640 53 q 851 490 851 274 q 747 817 851 707 q 433 926 642 926 l 190 926 l 190 53 l 433 53 m 550 -151 l 550 -240 l 458 -240 l 458 -151 l 550 -151 z "},"Ḏ":{"ha":1007,"x_min":133,"x_max":914,"o":"m 133 979 l 435 979 q 790 853 665 979 q 914 490 914 726 q 789 128 914 256 q 435 0 664 0 l 133 0 l 133 979 m 433 53 q 746 163 640 53 q 851 490 851 274 q 747 817 851 707 q 433 926 642 926 l 190 926 l 190 53 l 433 53 m 301 -165 l 707 -165 l 707 -225 l 301 -225 l 301 -165 z "},"ǅ":{"ha":1696,"x_min":133,"x_max":1632,"o":"m 133 979 l 435 979 q 790 853 665 979 q 914 490 914 726 q 789 128 914 256 q 435 0 664 0 l 133 0 l 133 979 m 433 53 q 746 163 640 53 q 851 490 851 274 q 747 817 851 707 q 433 926 642 926 l 190 926 l 190 53 l 433 53 m 1632 51 l 1632 0 l 1075 0 l 1075 40 l 1542 622 l 1096 622 l 1096 672 l 1615 672 l 1615 625 l 1156 51 l 1632 51 m 1535 1040 l 1381 763 l 1328 763 l 1174 1040 l 1244 1040 l 1354 821 l 1464 1040 l 1535 1040 z "},"E":{"ha":800,"x_min":133,"x_max":722,"o":"m 133 979 l 722 979 l 722 925 l 192 925 l 192 524 l 694 524 l 694 469 l 192 469 l 192 54 l 722 54 l 722 0 l 133 0 l 133 979 z "},"É":{"ha":800,"x_min":133,"x_max":722,"o":"m 133 979 l 722 979 l 722 925 l 192 925 l 192 524 l 694 524 l 694 469 l 192 469 l 192 54 l 722 54 l 722 0 l 133 0 l 133 979 m 419 1063 l 558 1269 l 642 1269 l 469 1063 l 419 1063 z "},"Ĕ":{"ha":800,"x_min":133,"x_max":722,"o":"m 133 979 l 722 979 l 722 925 l 192 925 l 192 524 l 694 524 l 694 469 l 192 469 l 192 54 l 722 54 l 722 0 l 133 0 l 133 979 m 444 1081 q 317 1115 374 1081 q 231 1226 261 1149 l 286 1251 q 358 1162 322 1186 q 444 1138 394 1138 q 531 1162 494 1138 q 603 1251 567 1186 l 658 1226 q 444 1081 599 1081 z "},"Ě":{"ha":800,"x_min":133,"x_max":722,"o":"m 133 979 l 722 979 l 722 925 l 192 925 l 192 524 l 694 524 l 694 469 l 192 469 l 192 54 l 722 54 l 722 0 l 133 0 l 133 979 m 625 1269 l 469 1063 l 419 1063 l 264 1269 l 335 1269 l 444 1113 l 554 1269 l 625 1269 z "},"Ȩ":{"ha":800,"x_min":133,"x_max":722,"o":"m 192 925 l 192 524 l 694 524 l 694 469 l 192 469 l 192 54 l 722 54 l 722 0 l 463 0 l 457 -62 q 499 -57 474 -57 q 569 -81 539 -57 q 599 -153 599 -104 q 560 -233 599 -201 q 453 -264 521 -264 q 391 -258 424 -264 q 335 -237 358 -251 l 354 -190 q 456 -210 399 -210 q 519 -194 497 -210 q 540 -153 540 -179 q 527 -121 540 -132 q 489 -110 514 -110 q 419 -125 460 -110 l 393 -106 l 404 0 l 133 0 l 133 979 l 722 979 l 722 925 l 192 925 z "},"Ḝ":{"ha":800,"x_min":133,"x_max":722,"o":"m 444 1081 q 317 1115 374 1081 q 231 1226 261 1149 l 286 1251 q 358 1162 322 1186 q 444 1138 394 1138 q 531 1162 494 1138 q 603 1251 567 1186 l 658 1226 q 444 1081 599 1081 m 192 925 l 192 524 l 694 524 l 694 469 l 192 469 l 192 54 l 722 54 l 722 0 l 463 0 l 457 -62 q 499 -57 474 -57 q 569 -81 539 -57 q 599 -153 599 -104 q 560 -233 599 -201 q 453 -264 521 -264 q 391 -258 424 -264 q 335 -237 358 -251 l 354 -190 q 456 -210 399 -210 q 519 -194 497 -210 q 540 -153 540 -179 q 527 -121 540 -132 q 489 -110 514 -110 q 419 -125 460 -110 l 393 -106 l 404 0 l 133 0 l 133 979 l 722 979 l 722 925 l 192 925 z "},"Ê":{"ha":800,"x_min":133,"x_max":722,"o":"m 133 979 l 722 979 l 722 925 l 192 925 l 192 524 l 694 524 l 694 469 l 192 469 l 192 54 l 722 54 l 722 0 l 133 0 l 133 979 m 264 1063 l 419 1269 l 469 1269 l 625 1063 l 554 1063 l 444 1219 l 335 1063 l 264 1063 z "},"Ế":{"ha":800,"x_min":133,"x_max":783,"o":"m 133 979 l 722 979 l 722 925 l 192 925 l 192 524 l 694 524 l 694 469 l 192 469 l 192 54 l 722 54 l 722 0 l 133 0 l 133 979 m 554 1201 l 697 1399 l 783 1399 l 604 1201 l 554 1201 m 264 1063 l 419 1272 l 469 1272 l 625 1063 l 554 1063 l 444 1222 l 335 1063 l 264 1063 z "},"Ệ":{"ha":800,"x_min":133,"x_max":722,"o":"m 133 979 l 722 979 l 722 925 l 192 925 l 192 524 l 694 524 l 694 469 l 192 469 l 192 54 l 722 54 l 722 0 l 133 0 l 133 979 m 490 -151 l 490 -240 l 399 -240 l 399 -151 l 490 -151 m 264 1063 l 419 1269 l 469 1269 l 625 1063 l 554 1063 l 444 1219 l 335 1063 l 264 1063 z "},"Ề":{"ha":800,"x_min":133,"x_max":722,"o":"m 133 979 l 722 979 l 722 925 l 192 925 l 192 524 l 694 524 l 694 469 l 192 469 l 192 54 l 722 54 l 722 0 l 133 0 l 133 979 m 467 1399 l 553 1399 l 664 1201 l 614 1201 l 467 1399 m 264 1063 l 419 1272 l 469 1272 l 625 1063 l 554 1063 l 444 1222 l 335 1063 l 264 1063 z "},"Ể":{"ha":800,"x_min":133,"x_max":722,"o":"m 133 979 l 722 979 l 722 925 l 192 925 l 192 524 l 694 524 l 694 469 l 192 469 l 192 54 l 722 54 l 722 0 l 133 0 l 133 979 m 611 1201 l 553 1201 l 553 1224 q 567 1259 553 1247 q 610 1285 581 1271 q 639 1300 629 1293 q 649 1318 649 1307 q 631 1340 649 1332 q 585 1347 614 1347 q 499 1331 543 1347 l 482 1382 q 583 1406 531 1406 q 681 1381 646 1406 q 715 1317 715 1357 q 701 1281 715 1293 q 656 1253 686 1268 q 622 1235 633 1243 q 611 1214 611 1226 l 611 1201 m 264 1063 l 419 1272 l 469 1272 l 625 1063 l 554 1063 l 444 1222 l 335 1063 l 264 1063 z "},"Ễ":{"ha":800,"x_min":133,"x_max":722,"o":"m 133 979 l 722 979 l 722 925 l 192 925 l 192 524 l 694 524 l 694 469 l 192 469 l 192 54 l 722 54 l 722 0 l 133 0 l 133 979 m 231 1292 q 260 1387 231 1350 q 340 1424 289 1424 q 397 1414 371 1424 q 463 1385 424 1404 q 509 1363 490 1371 q 543 1356 528 1356 q 594 1379 575 1356 q 611 1429 613 1403 l 658 1429 q 629 1333 658 1369 q 549 1297 600 1297 q 492 1307 518 1297 q 426 1336 465 1317 q 383 1356 406 1347 q 346 1364 361 1364 q 295 1341 314 1364 q 278 1292 276 1318 l 231 1292 m 264 1063 l 419 1272 l 469 1272 l 625 1063 l 554 1063 l 444 1222 l 335 1063 l 264 1063 z "},"Ȅ":{"ha":800,"x_min":133,"x_max":722,"o":"m 133 979 l 722 979 l 722 925 l 192 925 l 192 524 l 694 524 l 694 469 l 192 469 l 192 54 l 722 54 l 722 0 l 133 0 l 133 979 m 217 1269 l 290 1269 l 388 1063 l 350 1063 l 217 1269 m 367 1269 l 442 1269 l 539 1063 l 501 1063 l 367 1269 z "},"Ë":{"ha":800,"x_min":133,"x_max":722,"o":"m 133 979 l 722 979 l 722 925 l 192 925 l 192 524 l 694 524 l 694 469 l 192 469 l 192 54 l 722 54 l 722 0 l 133 0 l 133 979 m 375 1210 l 375 1126 l 290 1126 l 290 1210 l 375 1210 m 599 1210 l 599 1126 l 514 1126 l 514 1210 l 599 1210 z "},"Ė":{"ha":800,"x_min":133,"x_max":722,"o":"m 133 979 l 722 979 l 722 925 l 192 925 l 192 524 l 694 524 l 694 469 l 192 469 l 192 54 l 722 54 l 722 0 l 133 0 l 133 979 m 489 1211 l 489 1124 l 400 1124 l 400 1211 l 489 1211 z "},"Ẹ":{"ha":800,"x_min":133,"x_max":722,"o":"m 133 979 l 722 979 l 722 925 l 192 925 l 192 524 l 694 524 l 694 469 l 192 469 l 192 54 l 722 54 l 722 0 l 133 0 l 133 979 m 490 -151 l 490 -240 l 399 -240 l 399 -151 l 490 -151 z "},"È":{"ha":800,"x_min":133,"x_max":722,"o":"m 133 979 l 722 979 l 722 925 l 192 925 l 192 524 l 694 524 l 694 469 l 192 469 l 192 54 l 722 54 l 722 0 l 133 0 l 133 979 m 247 1269 l 331 1269 l 469 1063 l 419 1063 l 247 1269 z "},"Ẻ":{"ha":800,"x_min":133,"x_max":722,"o":"m 133 979 l 722 979 l 722 925 l 192 925 l 192 524 l 694 524 l 694 469 l 192 469 l 192 54 l 722 54 l 722 0 l 133 0 l 133 979 m 474 1063 l 417 1063 l 417 1083 q 431 1122 417 1108 q 474 1153 446 1136 q 502 1172 493 1164 q 511 1190 511 1179 q 494 1211 511 1204 q 449 1218 478 1218 q 361 1201 406 1218 l 344 1254 q 447 1276 394 1276 q 544 1253 510 1276 q 578 1188 578 1229 q 562 1147 578 1161 q 515 1115 546 1132 q 483 1096 493 1104 q 474 1075 474 1088 l 474 1063 z "},"Ȇ":{"ha":800,"x_min":133,"x_max":722,"o":"m 133 979 l 722 979 l 722 925 l 192 925 l 192 524 l 694 524 l 694 469 l 192 469 l 192 54 l 722 54 l 722 0 l 133 0 l 133 979 m 444 1253 q 572 1219 515 1253 q 658 1107 628 1185 l 603 1083 q 531 1172 567 1149 q 444 1196 494 1196 q 358 1172 394 1196 q 286 1083 322 1149 l 231 1107 q 444 1253 290 1253 z "},"Ē":{"ha":800,"x_min":133,"x_max":722,"o":"m 133 979 l 722 979 l 722 925 l 192 925 l 192 524 l 694 524 l 694 469 l 192 469 l 192 54 l 722 54 l 722 0 l 133 0 l 133 979 m 242 1197 l 647 1197 l 647 1139 l 242 1139 l 242 1197 z "},"Ḗ":{"ha":800,"x_min":133,"x_max":722,"o":"m 133 979 l 722 979 l 722 925 l 192 925 l 192 524 l 694 524 l 694 469 l 192 469 l 192 54 l 722 54 l 722 0 l 133 0 l 133 979 m 242 1197 l 647 1197 l 647 1139 l 242 1139 l 242 1197 m 419 1285 l 558 1492 l 642 1492 l 469 1285 l 419 1285 z "},"Ḕ":{"ha":800,"x_min":133,"x_max":722,"o":"m 133 979 l 722 979 l 722 925 l 192 925 l 192 524 l 694 524 l 694 469 l 192 469 l 192 54 l 722 54 l 722 0 l 133 0 l 133 979 m 242 1197 l 647 1197 l 647 1139 l 242 1139 l 242 1197 m 247 1492 l 331 1492 l 469 1285 l 419 1285 l 247 1492 z "},"Ę":{"ha":800,"x_min":133,"x_max":765,"o":"m 765 -232 q 658 -264 721 -264 q 545 -224 588 -264 q 503 -122 503 -185 q 561 0 503 -50 l 133 0 l 133 979 l 722 979 l 722 925 l 192 925 l 192 524 l 694 524 l 694 469 l 192 469 l 192 54 l 722 54 l 722 0 l 706 0 q 601 -33 636 0 q 565 -117 565 -65 q 592 -186 565 -161 q 661 -211 618 -211 q 743 -185 697 -211 l 765 -232 z "},"Ẽ":{"ha":800,"x_min":133,"x_max":722,"o":"m 133 979 l 722 979 l 722 925 l 192 925 l 192 524 l 694 524 l 694 469 l 192 469 l 192 54 l 722 54 l 722 0 l 133 0 l 133 979 m 231 1103 q 260 1201 231 1164 q 340 1238 289 1238 q 399 1225 371 1238 q 463 1189 426 1213 q 509 1163 490 1172 q 543 1154 528 1154 q 594 1178 575 1154 q 611 1233 613 1201 l 658 1233 q 629 1135 658 1172 q 549 1099 600 1099 q 490 1111 518 1099 q 426 1147 463 1124 q 380 1173 399 1164 q 346 1182 361 1182 q 295 1158 314 1182 q 278 1103 276 1135 l 231 1103 z "},"F":{"ha":761,"x_min":133,"x_max":708,"o":"m 133 979 l 708 979 l 708 925 l 190 925 l 190 524 l 681 524 l 681 471 l 190 471 l 190 0 l 133 0 l 133 979 z "},"G":{"ha":994,"x_min":93,"x_max":872,"o":"m 872 493 l 872 56 q 728 8 821 26 q 542 -11 636 -11 q 301 49 401 -11 q 147 221 200 108 q 93 490 93 333 q 147 760 93 647 q 299 931 200 872 q 536 990 399 990 q 865 858 739 990 l 836 808 q 694 904 765 875 q 532 933 622 933 q 253 817 353 933 q 154 490 154 701 q 255 160 154 275 q 542 44 356 44 q 690 58 618 44 q 818 94 763 71 l 818 438 l 547 438 l 547 493 l 872 493 z "},"Ğ":{"ha":994,"x_min":93,"x_max":872,"o":"m 872 493 l 872 56 q 728 8 821 26 q 542 -11 636 -11 q 301 49 401 -11 q 147 221 200 108 q 93 490 93 333 q 147 760 93 647 q 299 931 200 872 q 536 990 399 990 q 865 858 739 990 l 836 808 q 694 904 765 875 q 532 933 622 933 q 253 817 353 933 q 154 490 154 701 q 255 160 154 275 q 542 44 356 44 q 690 58 618 44 q 818 94 763 71 l 818 438 l 547 438 l 547 493 l 872 493 m 532 1081 q 405 1115 461 1081 q 318 1226 349 1149 l 374 1251 q 446 1162 410 1186 q 532 1138 482 1138 q 618 1162 582 1138 q 690 1251 654 1186 l 746 1226 q 532 1081 686 1081 z "},"Ǧ":{"ha":994,"x_min":93,"x_max":872,"o":"m 872 493 l 872 56 q 728 8 821 26 q 542 -11 636 -11 q 301 49 401 -11 q 147 221 200 108 q 93 490 93 333 q 147 760 93 647 q 299 931 200 872 q 536 990 399 990 q 865 858 739 990 l 836 808 q 694 904 765 875 q 532 933 622 933 q 253 817 353 933 q 154 490 154 701 q 255 160 154 275 q 542 44 356 44 q 690 58 618 44 q 818 94 763 71 l 818 438 l 547 438 l 547 493 l 872 493 m 713 1269 l 557 1063 l 507 1063 l 351 1269 l 422 1269 l 532 1113 l 642 1269 l 713 1269 z "},"Ĝ":{"ha":994,"x_min":93,"x_max":872,"o":"m 872 493 l 872 56 q 728 8 821 26 q 542 -11 636 -11 q 301 49 401 -11 q 147 221 200 108 q 93 490 93 333 q 147 760 93 647 q 299 931 200 872 q 536 990 399 990 q 865 858 739 990 l 836 808 q 694 904 765 875 q 532 933 622 933 q 253 817 353 933 q 154 490 154 701 q 255 160 154 275 q 542 44 356 44 q 690 58 618 44 q 818 94 763 71 l 818 438 l 547 438 l 547 493 l 872 493 m 351 1063 l 507 1269 l 557 1269 l 713 1063 l 642 1063 l 532 1219 l 422 1063 l 351 1063 z "},"Ģ":{"ha":994,"x_min":93,"x_max":872,"o":"m 872 493 l 872 56 q 728 8 821 26 q 542 -11 636 -11 q 301 49 401 -11 q 147 221 200 108 q 93 490 93 333 q 147 760 93 647 q 299 931 200 872 q 536 990 399 990 q 865 858 739 990 l 836 808 q 694 904 765 875 q 532 933 622 933 q 253 817 353 933 q 154 490 154 701 q 255 160 154 275 q 542 44 356 44 q 690 58 618 44 q 818 94 763 71 l 818 438 l 547 438 l 547 493 l 872 493 m 590 -106 l 590 -181 q 576 -272 590 -231 q 526 -347 561 -312 l 489 -318 q 527 -259 517 -287 q 539 -196 538 -231 l 493 -196 l 493 -106 l 590 -106 z "},"Ġ":{"ha":994,"x_min":93,"x_max":872,"o":"m 872 493 l 872 56 q 728 8 821 26 q 542 -11 636 -11 q 301 49 401 -11 q 147 221 200 108 q 93 490 93 333 q 147 760 93 647 q 299 931 200 872 q 536 990 399 990 q 865 858 739 990 l 836 808 q 694 904 765 875 q 532 933 622 933 q 253 817 353 933 q 154 490 154 701 q 255 160 154 275 q 542 44 356 44 q 690 58 618 44 q 818 94 763 71 l 818 438 l 547 438 l 547 493 l 872 493 m 576 1211 l 576 1124 l 488 1124 l 488 1211 l 576 1211 z "},"Ḡ":{"ha":994,"x_min":93,"x_max":872,"o":"m 872 493 l 872 56 q 728 8 821 26 q 542 -11 636 -11 q 301 49 401 -11 q 147 221 200 108 q 93 490 93 333 q 147 760 93 647 q 299 931 200 872 q 536 990 399 990 q 865 858 739 990 l 836 808 q 694 904 765 875 q 532 933 622 933 q 253 817 353 933 q 154 490 154 701 q 255 160 154 275 q 542 44 356 44 q 690 58 618 44 q 818 94 763 71 l 818 438 l 547 438 l 547 493 l 872 493 m 329 1197 l 735 1197 l 735 1139 l 329 1139 l 329 1197 z "},"H":{"ha":1043,"x_min":133,"x_max":910,"o":"m 910 979 l 910 0 l 851 0 l 851 471 l 192 471 l 192 0 l 133 0 l 133 979 l 192 979 l 192 524 l 851 524 l 851 979 l 910 979 z "},"Ħ":{"ha":1054,"x_min":6,"x_max":1049,"o":"m 1049 732 l 915 732 l 915 0 l 857 0 l 857 471 l 197 471 l 197 0 l 139 0 l 139 732 l 6 732 l 6 785 l 139 785 l 139 979 l 197 979 l 197 785 l 857 785 l 857 979 l 915 979 l 915 785 l 1049 785 l 1049 732 m 857 732 l 197 732 l 197 524 l 857 524 l 857 732 z "},"Ḫ":{"ha":1043,"x_min":133,"x_max":910,"o":"m 910 979 l 910 0 l 851 0 l 851 471 l 192 471 l 192 0 l 133 0 l 133 979 l 192 979 l 192 524 l 851 524 l 851 979 l 910 979 m 522 -281 q 397 -242 453 -281 q 310 -119 342 -204 l 365 -96 q 434 -195 396 -165 q 522 -225 472 -225 q 610 -195 572 -225 q 679 -96 649 -165 l 735 -118 q 649 -242 706 -203 q 522 -281 593 -281 z "},"Ĥ":{"ha":1043,"x_min":133,"x_max":910,"o":"m 910 979 l 910 0 l 851 0 l 851 471 l 192 471 l 192 0 l 133 0 l 133 979 l 192 979 l 192 524 l 851 524 l 851 979 l 910 979 m 340 1063 l 496 1269 l 546 1269 l 701 1063 l 631 1063 l 521 1219 l 411 1063 l 340 1063 z "},"Ḥ":{"ha":1043,"x_min":133,"x_max":910,"o":"m 910 979 l 910 0 l 851 0 l 851 471 l 192 471 l 192 0 l 133 0 l 133 979 l 192 979 l 192 524 l 851 524 l 851 979 l 910 979 m 568 -151 l 568 -240 l 476 -240 l 476 -151 l 568 -151 z "},"I":{"ha":324,"x_min":133,"x_max":190,"o":"m 133 979 l 190 979 l 190 0 l 133 0 l 133 979 z "},"Í":{"ha":324,"x_min":133,"x_max":360,"o":"m 133 979 l 190 979 l 190 0 l 133 0 l 133 979 m 138 1063 l 276 1269 l 360 1269 l 188 1063 l 138 1063 z "},"Ĭ":{"ha":324,"x_min":-51,"x_max":376,"o":"m 133 979 l 190 979 l 190 0 l 133 0 l 133 979 m 163 1081 q 35 1115 92 1081 q -51 1226 -21 1149 l 4 1251 q 76 1162 40 1186 q 163 1138 113 1138 q 249 1162 213 1138 q 321 1251 285 1186 l 376 1226 q 163 1081 317 1081 z "},"Î":{"ha":324,"x_min":-18,"x_max":343,"o":"m 133 979 l 190 979 l 190 0 l 133 0 l 133 979 m -18 1063 l 138 1269 l 188 1269 l 343 1063 l 272 1063 l 163 1219 l 53 1063 l -18 1063 z "},"Ȉ":{"ha":324,"x_min":-65,"x_max":257,"o":"m 133 979 l 190 979 l 190 0 l 133 0 l 133 979 m -65 1269 l 8 1269 l 106 1063 l 68 1063 l -65 1269 m 85 1269 l 160 1269 l 257 1063 l 219 1063 l 85 1269 z "},"Ï":{"ha":324,"x_min":8,"x_max":317,"o":"m 133 979 l 190 979 l 190 0 l 133 0 l 133 979 m 93 1210 l 93 1126 l 8 1126 l 8 1210 l 93 1210 m 317 1210 l 317 1126 l 232 1126 l 232 1210 l 317 1210 z "},"Ḯ":{"ha":324,"x_min":8,"x_max":360,"o":"m 133 979 l 190 979 l 190 0 l 133 0 l 133 979 m 93 1210 l 93 1126 l 8 1126 l 8 1210 l 93 1210 m 317 1210 l 317 1126 l 232 1126 l 232 1210 l 317 1210 m 138 1285 l 276 1492 l 360 1492 l 188 1285 l 138 1285 z "},"İ":{"ha":324,"x_min":118,"x_max":207,"o":"m 133 979 l 190 979 l 190 0 l 133 0 l 133 979 m 207 1211 l 207 1124 l 118 1124 l 118 1211 l 207 1211 z "},"Ị":{"ha":324,"x_min":117,"x_max":208,"o":"m 133 979 l 190 979 l 190 0 l 133 0 l 133 979 m 208 -151 l 208 -240 l 117 -240 l 117 -151 l 208 -151 z "},"Ì":{"ha":324,"x_min":-35,"x_max":190,"o":"m 133 979 l 190 979 l 190 0 l 133 0 l 133 979 m -35 1269 l 49 1269 l 188 1063 l 138 1063 l -35 1269 z "},"Ỉ":{"ha":324,"x_min":63,"x_max":296,"o":"m 133 979 l 190 979 l 190 0 l 133 0 l 133 979 m 192 1063 l 135 1063 l 135 1083 q 149 1122 135 1108 q 192 1153 164 1136 q 220 1172 211 1164 q 229 1190 229 1179 q 213 1211 229 1204 q 167 1218 196 1218 q 79 1201 124 1218 l 63 1254 q 165 1276 113 1276 q 262 1253 228 1276 q 296 1188 296 1229 q 280 1147 296 1161 q 233 1115 264 1132 q 201 1096 211 1104 q 192 1075 192 1088 l 192 1063 z "},"Ȋ":{"ha":324,"x_min":-51,"x_max":376,"o":"m 133 979 l 190 979 l 190 0 l 133 0 l 133 979 m 163 1253 q 290 1219 233 1253 q 376 1107 346 1185 l 321 1083 q 249 1172 285 1149 q 163 1196 213 1196 q 76 1172 113 1196 q 4 1083 40 1149 l -51 1107 q 163 1253 8 1253 z "},"Ī":{"ha":324,"x_min":-40,"x_max":365,"o":"m 133 979 l 190 979 l 190 0 l 133 0 l 133 979 m -40 1197 l 365 1197 l 365 1139 l -40 1139 l -40 1197 z "},"Į":{"ha":324,"x_min":-4,"x_max":258,"o":"m 258 -232 q 150 -264 214 -264 q 38 -224 81 -264 q -4 -122 -4 -185 q 32 -22 -4 -67 q 133 43 68 22 l 133 979 l 190 979 l 190 0 l 188 0 q 92 -34 128 0 q 57 -117 57 -68 q 83 -186 57 -161 q 154 -211 110 -211 q 236 -185 190 -211 l 258 -232 z "},"Ĩ":{"ha":324,"x_min":-51,"x_max":376,"o":"m 133 979 l 190 979 l 190 0 l 133 0 l 133 979 m -51 1103 q -22 1201 -51 1164 q 58 1238 7 1238 q 117 1225 89 1238 q 181 1189 144 1213 q 227 1163 208 1172 q 261 1154 246 1154 q 312 1178 293 1154 q 329 1233 331 1201 l 376 1233 q 347 1135 376 1172 q 267 1099 318 1099 q 208 1111 236 1099 q 144 1147 181 1124 q 98 1173 117 1164 q 64 1182 79 1182 q 13 1158 32 1182 q -4 1103 -6 1135 l -51 1103 z "},"J":{"ha":413,"x_min":-14,"x_max":279,"o":"m -14 44 l 57 50 q 178 109 135 56 q 222 249 222 163 l 222 979 l 279 979 l 279 246 q 223 69 279 135 q 61 -3 167 4 l -8 -8 l -14 44 z "},"Ĵ":{"ha":413,"x_min":-14,"x_max":432,"o":"m -14 44 l 57 50 q 178 109 135 56 q 222 249 222 163 l 222 979 l 279 979 l 279 246 q 223 69 279 135 q 61 -3 167 4 l -8 -8 l -14 44 m 71 1063 l 226 1269 l 276 1269 l 432 1063 l 361 1063 l 251 1219 l 142 1063 l 71 1063 z "},"K":{"ha":832,"x_min":133,"x_max":824,"o":"m 739 0 l 190 472 l 190 0 l 133 0 l 133 979 l 190 979 l 190 521 l 710 979 l 792 979 l 247 499 l 824 0 l 739 0 z "},"Ķ":{"ha":832,"x_min":133,"x_max":824,"o":"m 739 0 l 190 472 l 190 0 l 133 0 l 133 979 l 190 979 l 190 521 l 710 979 l 792 979 l 247 499 l 824 0 l 739 0 m 468 -106 l 468 -181 q 453 -272 468 -231 q 404 -347 439 -312 l 367 -318 q 405 -259 394 -287 q 417 -196 415 -231 l 371 -196 l 371 -106 l 468 -106 z "},"L":{"ha":732,"x_min":133,"x_max":711,"o":"m 133 979 l 190 979 l 190 53 l 711 53 l 711 0 l 133 0 l 133 979 z "},"Ǉ":{"ha":1142,"x_min":133,"x_max":1008,"o":"m 133 979 l 190 979 l 190 53 l 669 53 l 669 0 l 133 0 l 133 979 m 715 44 l 785 50 q 950 226 950 63 l 950 979 l 1008 979 l 1008 232 q 953 64 1008 124 q 790 -3 899 4 l 719 -8 l 715 44 z "},"Ĺ":{"ha":732,"x_min":133,"x_max":711,"o":"m 133 979 l 190 979 l 190 53 l 711 53 l 711 0 l 133 0 l 133 979 m 138 1063 l 276 1269 l 360 1269 l 188 1063 l 138 1063 z "},"Ľ":{"ha":732,"x_min":133,"x_max":711,"o":"m 133 979 l 190 979 l 190 53 l 711 53 l 711 0 l 133 0 l 133 979 m 306 718 l 306 979 l 381 979 l 344 718 l 306 718 z "},"Ļ":{"ha":732,"x_min":133,"x_max":711,"o":"m 133 979 l 190 979 l 190 53 l 711 53 l 711 0 l 133 0 l 133 979 m 474 -106 l 474 -181 q 459 -272 474 -231 q 410 -347 444 -312 l 372 -318 q 410 -259 400 -287 q 422 -196 421 -231 l 376 -196 l 376 -106 l 474 -106 z "},"Ŀ":{"ha":732,"x_min":133,"x_max":711,"o":"m 133 979 l 190 979 l 190 53 l 711 53 l 711 0 l 133 0 l 133 979 m 503 538 l 503 443 l 407 443 l 407 538 l 503 538 z "},"Ḷ":{"ha":732,"x_min":133,"x_max":711,"o":"m 133 979 l 190 979 l 190 53 l 711 53 l 711 0 l 133 0 l 133 979 m 471 -151 l 471 -240 l 379 -240 l 379 -151 l 471 -151 z "},"ǈ":{"ha":1026,"x_min":133,"x_max":924,"o":"m 133 979 l 190 979 l 190 53 l 711 53 l 711 0 l 133 0 l 133 979 m 908 -15 q 852 -183 908 -122 q 692 -250 796 -243 l 632 -254 l 626 -201 l 685 -199 q 808 -146 767 -192 q 850 -17 850 -100 l 850 672 l 908 672 l 908 -15 m 924 947 l 924 860 l 835 860 l 835 947 l 924 947 z "},"Ḻ":{"ha":732,"x_min":133,"x_max":711,"o":"m 133 979 l 190 979 l 190 53 l 711 53 l 711 0 l 133 0 l 133 979 m 222 -165 l 628 -165 l 628 -225 l 222 -225 l 222 -165 z "},"Ł":{"ha":738,"x_min":-4,"x_max":717,"o":"m 717 53 l 717 0 l 139 0 l 139 449 l 24 382 l -4 429 l 139 511 l 139 979 l 196 979 l 196 544 l 446 688 l 474 642 l 196 482 l 196 53 l 717 53 z "},"M":{"ha":1167,"x_min":133,"x_max":1033,"o":"m 1033 979 l 1033 0 l 976 0 l 978 857 l 608 153 l 561 153 l 189 851 l 190 0 l 133 0 l 133 979 l 183 979 l 585 208 l 982 979 l 1033 979 z "},"Ṃ":{"ha":1167,"x_min":133,"x_max":1033,"o":"m 1033 979 l 1033 0 l 976 0 l 978 857 l 608 153 l 561 153 l 189 851 l 190 0 l 133 0 l 133 979 l 183 979 l 585 208 l 982 979 l 1033 979 m 629 -151 l 629 -240 l 538 -240 l 538 -151 l 629 -151 z "},"N":{"ha":1017,"x_min":133,"x_max":883,"o":"m 883 979 l 883 0 l 836 0 l 188 881 l 188 0 l 133 0 l 133 979 l 182 979 l 829 100 l 829 979 l 883 979 z "},"Ǌ":{"ha":1429,"x_min":133,"x_max":1296,"o":"m 883 979 l 883 0 l 836 0 l 188 881 l 188 0 l 133 0 l 133 979 l 182 979 l 829 100 l 829 979 l 883 979 m 1003 44 l 1074 50 q 1195 109 1151 56 q 1239 249 1239 163 l 1239 979 l 1296 979 l 1296 246 q 1240 69 1296 135 q 1078 -3 1183 4 l 1008 -8 l 1003 44 z "},"Ń":{"ha":1017,"x_min":133,"x_max":883,"o":"m 883 979 l 883 0 l 836 0 l 188 881 l 188 0 l 133 0 l 133 979 l 182 979 l 829 100 l 829 979 l 883 979 m 483 1063 l 622 1269 l 706 1269 l 533 1063 l 483 1063 z "},"Ň":{"ha":1017,"x_min":133,"x_max":883,"o":"m 883 979 l 883 0 l 836 0 l 188 881 l 188 0 l 133 0 l 133 979 l 182 979 l 829 100 l 829 979 l 883 979 m 689 1269 l 533 1063 l 483 1063 l 328 1269 l 399 1269 l 508 1113 l 618 1269 l 689 1269 z "},"Ņ":{"ha":1017,"x_min":133,"x_max":883,"o":"m 883 979 l 883 0 l 836 0 l 188 881 l 188 0 l 133 0 l 133 979 l 182 979 l 829 100 l 829 979 l 883 979 m 557 -106 l 557 -181 q 542 -272 557 -231 q 493 -347 528 -312 l 456 -318 q 494 -259 483 -287 q 506 -196 504 -231 l 460 -196 l 460 -106 l 557 -106 z "},"Ṅ":{"ha":1017,"x_min":133,"x_max":883,"o":"m 883 979 l 883 0 l 836 0 l 188 881 l 188 0 l 133 0 l 133 979 l 182 979 l 829 100 l 829 979 l 883 979 m 553 1211 l 553 1124 l 464 1124 l 464 1211 l 553 1211 z "},"Ṇ":{"ha":1017,"x_min":133,"x_max":883,"o":"m 883 979 l 883 0 l 836 0 l 188 881 l 188 0 l 133 0 l 133 979 l 182 979 l 829 100 l 829 979 l 883 979 m 554 -151 l 554 -240 l 463 -240 l 463 -151 l 554 -151 z "},"Ŋ":{"ha":1017,"x_min":133,"x_max":883,"o":"m 883 979 l 883 -19 q 831 -183 883 -122 q 665 -253 778 -244 l 594 -258 l 590 -204 l 660 -200 q 829 -24 829 -185 l 829 10 l 188 881 l 188 0 l 133 0 l 133 979 l 182 979 l 829 100 l 829 979 l 883 979 z "},"ǋ":{"ha":1311,"x_min":133,"x_max":1208,"o":"m 883 979 l 883 0 l 836 0 l 188 881 l 188 0 l 133 0 l 133 979 l 182 979 l 829 100 l 829 979 l 883 979 m 1193 -15 q 1137 -183 1193 -122 q 976 -250 1081 -243 l 917 -254 l 911 -201 l 969 -199 q 1093 -146 1051 -192 q 1135 -17 1135 -100 l 1135 672 l 1193 672 l 1193 -15 m 1208 947 l 1208 860 l 1119 860 l 1119 947 l 1208 947 z "},"Ṉ":{"ha":1017,"x_min":133,"x_max":883,"o":"m 883 979 l 883 0 l 836 0 l 188 881 l 188 0 l 133 0 l 133 979 l 182 979 l 829 100 l 829 979 l 883 979 m 306 -165 l 711 -165 l 711 -225 l 306 -225 l 306 -165 z "},"Ñ":{"ha":1017,"x_min":133,"x_max":883,"o":"m 883 979 l 883 0 l 836 0 l 188 881 l 188 0 l 133 0 l 133 979 l 182 979 l 829 100 l 829 979 l 883 979 m 294 1103 q 324 1201 294 1164 q 404 1238 353 1238 q 463 1225 435 1238 q 526 1189 490 1213 q 573 1163 554 1172 q 607 1154 592 1154 q 658 1178 639 1154 q 675 1233 676 1201 l 722 1233 q 693 1135 722 1172 q 613 1099 664 1099 q 554 1111 582 1099 q 490 1147 526 1124 q 444 1173 463 1164 q 410 1182 425 1182 q 359 1158 378 1182 q 342 1103 340 1135 l 294 1103 z "},"O":{"ha":1043,"x_min":93,"x_max":950,"o":"m 521 -11 q 294 49 390 -11 q 145 223 197 110 q 93 489 93 336 q 144 756 93 643 q 292 930 196 869 q 521 990 389 990 q 750 930 653 990 q 899 757 847 869 q 950 490 950 644 q 898 223 950 336 q 749 49 846 110 q 521 -11 653 -11 m 521 46 q 792 163 696 46 q 888 490 888 279 q 792 817 888 701 q 521 933 697 933 q 251 817 347 933 q 156 490 156 701 q 251 163 156 279 q 521 46 347 46 z "},"Ó":{"ha":1043,"x_min":93,"x_max":950,"o":"m 521 -11 q 294 49 390 -11 q 145 223 197 110 q 93 489 93 336 q 144 756 93 643 q 292 930 196 869 q 521 990 389 990 q 750 930 653 990 q 899 757 847 869 q 950 490 950 644 q 898 223 950 336 q 749 49 846 110 q 521 -11 653 -11 m 521 46 q 792 163 696 46 q 888 490 888 279 q 792 817 888 701 q 521 933 697 933 q 251 817 347 933 q 156 490 156 701 q 251 163 156 279 q 521 46 347 46 m 496 1063 l 635 1269 l 718 1269 l 546 1063 l 496 1063 z "},"Ŏ":{"ha":1043,"x_min":93,"x_max":950,"o":"m 521 -11 q 294 49 390 -11 q 145 223 197 110 q 93 489 93 336 q 144 756 93 643 q 292 930 196 869 q 521 990 389 990 q 750 930 653 990 q 899 757 847 869 q 950 490 950 644 q 898 223 950 336 q 749 49 846 110 q 521 -11 653 -11 m 521 46 q 792 163 696 46 q 888 490 888 279 q 792 817 888 701 q 521 933 697 933 q 251 817 347 933 q 156 490 156 701 q 251 163 156 279 q 521 46 347 46 m 521 1081 q 394 1115 450 1081 q 307 1226 338 1149 l 363 1251 q 435 1162 399 1186 q 521 1138 471 1138 q 607 1162 571 1138 q 679 1251 643 1186 l 735 1226 q 521 1081 675 1081 z "},"Ô":{"ha":1043,"x_min":93,"x_max":950,"o":"m 521 -11 q 294 49 390 -11 q 145 223 197 110 q 93 489 93 336 q 144 756 93 643 q 292 930 196 869 q 521 990 389 990 q 750 930 653 990 q 899 757 847 869 q 950 490 950 644 q 898 223 950 336 q 749 49 846 110 q 521 -11 653 -11 m 521 46 q 792 163 696 46 q 888 490 888 279 q 792 817 888 701 q 521 933 697 933 q 251 817 347 933 q 156 490 156 701 q 251 163 156 279 q 521 46 347 46 m 340 1063 l 496 1269 l 546 1269 l 701 1063 l 631 1063 l 521 1219 l 411 1063 l 340 1063 z "},"Ố":{"ha":1043,"x_min":93,"x_max":950,"o":"m 521 -11 q 294 49 390 -11 q 145 223 197 110 q 93 489 93 336 q 144 756 93 643 q 292 930 196 869 q 521 990 389 990 q 750 930 653 990 q 899 757 847 869 q 950 490 950 644 q 898 223 950 336 q 749 49 846 110 q 521 -11 653 -11 m 521 46 q 792 163 696 46 q 888 490 888 279 q 792 817 888 701 q 521 933 697 933 q 251 817 347 933 q 156 490 156 701 q 251 163 156 279 q 521 46 347 46 m 631 1201 l 774 1399 l 860 1399 l 681 1201 l 631 1201 m 340 1063 l 496 1272 l 546 1272 l 701 1063 l 631 1063 l 521 1222 l 411 1063 l 340 1063 z "},"Ộ":{"ha":1043,"x_min":93,"x_max":950,"o":"m 521 -11 q 294 49 390 -11 q 145 223 197 110 q 93 489 93 336 q 144 756 93 643 q 292 930 196 869 q 521 990 389 990 q 750 930 653 990 q 899 757 847 869 q 950 490 950 644 q 898 223 950 336 q 749 49 846 110 q 521 -11 653 -11 m 521 46 q 792 163 696 46 q 888 490 888 279 q 792 817 888 701 q 521 933 697 933 q 251 817 347 933 q 156 490 156 701 q 251 163 156 279 q 521 46 347 46 m 567 -151 l 567 -240 l 475 -240 l 475 -151 l 567 -151 m 340 1063 l 496 1269 l 546 1269 l 701 1063 l 631 1063 l 521 1219 l 411 1063 l 340 1063 z "},"Ồ":{"ha":1043,"x_min":93,"x_max":950,"o":"m 521 -11 q 294 49 390 -11 q 145 223 197 110 q 93 489 93 336 q 144 756 93 643 q 292 930 196 869 q 521 990 389 990 q 750 930 653 990 q 899 757 847 869 q 950 490 950 644 q 898 223 950 336 q 749 49 846 110 q 521 -11 653 -11 m 521 46 q 792 163 696 46 q 888 490 888 279 q 792 817 888 701 q 521 933 697 933 q 251 817 347 933 q 156 490 156 701 q 251 163 156 279 q 521 46 347 46 m 543 1399 l 629 1399 l 740 1201 l 690 1201 l 543 1399 m 340 1063 l 496 1272 l 546 1272 l 701 1063 l 631 1063 l 521 1222 l 411 1063 l 340 1063 z "},"Ổ":{"ha":1043,"x_min":93,"x_max":950,"o":"m 521 -11 q 294 49 390 -11 q 145 223 197 110 q 93 489 93 336 q 144 756 93 643 q 292 930 196 869 q 521 990 389 990 q 750 930 653 990 q 899 757 847 869 q 950 490 950 644 q 898 223 950 336 q 749 49 846 110 q 521 -11 653 -11 m 521 46 q 792 163 696 46 q 888 490 888 279 q 792 817 888 701 q 521 933 697 933 q 251 817 347 933 q 156 490 156 701 q 251 163 156 279 q 521 46 347 46 m 688 1201 l 629 1201 l 629 1224 q 643 1259 629 1247 q 686 1285 657 1271 q 715 1300 706 1293 q 725 1318 725 1307 q 708 1340 725 1332 q 661 1347 690 1347 q 575 1331 619 1347 l 558 1382 q 660 1406 607 1406 q 757 1381 722 1406 q 792 1317 792 1357 q 777 1281 792 1293 q 732 1253 763 1268 q 699 1235 710 1243 q 688 1214 688 1226 l 688 1201 m 340 1063 l 496 1272 l 546 1272 l 701 1063 l 631 1063 l 521 1222 l 411 1063 l 340 1063 z "},"Ỗ":{"ha":1043,"x_min":93,"x_max":950,"o":"m 521 -11 q 294 49 390 -11 q 145 223 197 110 q 93 489 93 336 q 144 756 93 643 q 292 930 196 869 q 521 990 389 990 q 750 930 653 990 q 899 757 847 869 q 950 490 950 644 q 898 223 950 336 q 749 49 846 110 q 521 -11 653 -11 m 521 46 q 792 163 696 46 q 888 490 888 279 q 792 817 888 701 q 521 933 697 933 q 251 817 347 933 q 156 490 156 701 q 251 163 156 279 q 521 46 347 46 m 307 1292 q 336 1387 307 1350 q 417 1424 365 1424 q 474 1414 447 1424 q 539 1385 500 1404 q 585 1363 567 1371 q 619 1356 604 1356 q 670 1379 651 1356 q 688 1429 689 1403 l 735 1429 q 706 1333 735 1369 q 625 1297 676 1297 q 568 1307 594 1297 q 503 1336 542 1317 q 460 1356 482 1347 q 422 1364 438 1364 q 372 1341 390 1364 q 354 1292 353 1318 l 307 1292 m 340 1063 l 496 1272 l 546 1272 l 701 1063 l 631 1063 l 521 1222 l 411 1063 l 340 1063 z "},"Ȍ":{"ha":1043,"x_min":93,"x_max":950,"o":"m 521 -11 q 294 49 390 -11 q 145 223 197 110 q 93 489 93 336 q 144 756 93 643 q 292 930 196 869 q 521 990 389 990 q 750 930 653 990 q 899 757 847 869 q 950 490 950 644 q 898 223 950 336 q 749 49 846 110 q 521 -11 653 -11 m 521 46 q 792 163 696 46 q 888 490 888 279 q 792 817 888 701 q 521 933 697 933 q 251 817 347 933 q 156 490 156 701 q 251 163 156 279 q 521 46 347 46 m 293 1269 l 367 1269 l 464 1063 l 426 1063 l 293 1269 m 443 1269 l 518 1269 l 615 1063 l 578 1063 l 443 1269 z "},"Ö":{"ha":1043,"x_min":93,"x_max":950,"o":"m 521 -11 q 294 49 390 -11 q 145 223 197 110 q 93 489 93 336 q 144 756 93 643 q 292 930 196 869 q 521 990 389 990 q 750 930 653 990 q 899 757 847 869 q 950 490 950 644 q 898 223 950 336 q 749 49 846 110 q 521 -11 653 -11 m 521 46 q 792 163 696 46 q 888 490 888 279 q 792 817 888 701 q 521 933 697 933 q 251 817 347 933 q 156 490 156 701 q 251 163 156 279 q 521 46 347 46 m 451 1210 l 451 1126 l 367 1126 l 367 1210 l 451 1210 m 675 1210 l 675 1126 l 590 1126 l 590 1210 l 675 1210 z "},"Ȫ":{"ha":1043,"x_min":93,"x_max":950,"o":"m 521 -11 q 294 49 390 -11 q 145 223 197 110 q 93 489 93 336 q 144 756 93 643 q 292 930 196 869 q 521 990 389 990 q 750 930 653 990 q 899 757 847 869 q 950 490 950 644 q 898 223 950 336 q 749 49 846 110 q 521 -11 653 -11 m 521 46 q 792 163 696 46 q 888 490 888 279 q 792 817 888 701 q 521 933 697 933 q 251 817 347 933 q 156 490 156 701 q 251 163 156 279 q 521 46 347 46 m 451 1210 l 451 1126 l 367 1126 l 367 1210 l 451 1210 m 675 1210 l 675 1126 l 590 1126 l 590 1210 l 675 1210 m 318 1419 l 724 1419 l 724 1361 l 318 1361 l 318 1419 z "},"Ȱ":{"ha":1043,"x_min":93,"x_max":950,"o":"m 521 -11 q 294 49 390 -11 q 145 223 197 110 q 93 489 93 336 q 144 756 93 643 q 292 930 196 869 q 521 990 389 990 q 750 930 653 990 q 899 757 847 869 q 950 490 950 644 q 898 223 950 336 q 749 49 846 110 q 521 -11 653 -11 m 521 46 q 792 163 696 46 q 888 490 888 279 q 792 817 888 701 q 521 933 697 933 q 251 817 347 933 q 156 490 156 701 q 251 163 156 279 q 521 46 347 46 m 565 1211 l 565 1124 l 476 1124 l 476 1211 l 565 1211 m 318 1419 l 724 1419 l 724 1361 l 318 1361 l 318 1419 z "},"Ọ":{"ha":1043,"x_min":93,"x_max":950,"o":"m 521 -11 q 294 49 390 -11 q 145 223 197 110 q 93 489 93 336 q 144 756 93 643 q 292 930 196 869 q 521 990 389 990 q 750 930 653 990 q 899 757 847 869 q 950 490 950 644 q 898 223 950 336 q 749 49 846 110 q 521 -11 653 -11 m 521 46 q 792 163 696 46 q 888 490 888 279 q 792 817 888 701 q 521 933 697 933 q 251 817 347 933 q 156 490 156 701 q 251 163 156 279 q 521 46 347 46 m 567 -151 l 567 -240 l 475 -240 l 475 -151 l 567 -151 z "},"Ò":{"ha":1043,"x_min":93,"x_max":950,"o":"m 521 -11 q 294 49 390 -11 q 145 223 197 110 q 93 489 93 336 q 144 756 93 643 q 292 930 196 869 q 521 990 389 990 q 750 930 653 990 q 899 757 847 869 q 950 490 950 644 q 898 223 950 336 q 749 49 846 110 q 521 -11 653 -11 m 521 46 q 792 163 696 46 q 888 490 888 279 q 792 817 888 701 q 521 933 697 933 q 251 817 347 933 q 156 490 156 701 q 251 163 156 279 q 521 46 347 46 m 324 1269 l 407 1269 l 546 1063 l 496 1063 l 324 1269 z "},"Ỏ":{"ha":1043,"x_min":93,"x_max":950,"o":"m 521 -11 q 294 49 390 -11 q 145 223 197 110 q 93 489 93 336 q 144 756 93 643 q 292 930 196 869 q 521 990 389 990 q 750 930 653 990 q 899 757 847 869 q 950 490 950 644 q 898 223 950 336 q 749 49 846 110 q 521 -11 653 -11 m 521 46 q 792 163 696 46 q 888 490 888 279 q 792 817 888 701 q 521 933 697 933 q 251 817 347 933 q 156 490 156 701 q 251 163 156 279 q 521 46 347 46 m 550 1063 l 493 1063 l 493 1083 q 508 1122 493 1108 q 550 1153 522 1136 q 578 1172 569 1164 q 588 1190 588 1179 q 571 1211 588 1204 q 525 1218 554 1218 q 438 1201 482 1218 l 421 1254 q 524 1276 471 1276 q 620 1253 586 1276 q 654 1188 654 1229 q 638 1147 654 1161 q 592 1115 622 1132 q 560 1096 569 1104 q 550 1075 550 1088 l 550 1063 z "},"Ơ":{"ha":1043,"x_min":93,"x_max":950,"o":"m 950 1128 q 898 983 950 1036 q 751 926 846 931 q 899 755 849 867 q 950 490 950 643 q 897 224 950 338 q 748 50 844 111 q 521 -11 651 -11 q 294 49 390 -11 q 145 223 197 110 q 93 489 93 336 q 144 756 93 643 q 294 930 196 869 q 526 990 392 990 q 636 985 564 990 q 725 979 700 979 q 856 1017 818 981 q 894 1138 894 1053 l 894 1156 l 950 1156 l 950 1128 m 888 490 q 792 817 888 701 q 521 933 697 933 q 251 817 347 933 q 156 490 156 701 q 251 163 156 279 q 521 46 347 46 q 792 163 696 46 q 888 490 888 279 z "},"Ớ":{"ha":1043,"x_min":93,"x_max":950,"o":"m 950 1128 q 898 983 950 1036 q 751 926 846 931 q 899 755 849 867 q 950 490 950 643 q 897 224 950 338 q 748 50 844 111 q 521 -11 651 -11 q 294 49 390 -11 q 145 223 197 110 q 93 489 93 336 q 144 756 93 643 q 294 930 196 869 q 526 990 392 990 q 636 985 564 990 q 725 979 700 979 q 856 1017 818 981 q 894 1138 894 1053 l 894 1156 l 950 1156 l 950 1128 m 888 490 q 792 817 888 701 q 521 933 697 933 q 251 817 347 933 q 156 490 156 701 q 251 163 156 279 q 521 46 347 46 q 792 163 696 46 q 888 490 888 279 m 496 1063 l 635 1269 l 718 1269 l 546 1063 l 496 1063 z "},"Ợ":{"ha":1043,"x_min":93,"x_max":950,"o":"m 950 1128 q 898 983 950 1036 q 751 926 846 931 q 899 755 849 867 q 950 490 950 643 q 897 224 950 338 q 748 50 844 111 q 521 -11 651 -11 q 294 49 390 -11 q 145 223 197 110 q 93 489 93 336 q 144 756 93 643 q 294 930 196 869 q 526 990 392 990 q 636 985 564 990 q 725 979 700 979 q 856 1017 818 981 q 894 1138 894 1053 l 894 1156 l 950 1156 l 950 1128 m 888 490 q 792 817 888 701 q 521 933 697 933 q 251 817 347 933 q 156 490 156 701 q 251 163 156 279 q 521 46 347 46 q 792 163 696 46 q 888 490 888 279 m 568 -151 l 568 -240 l 476 -240 l 476 -151 l 568 -151 z "},"Ờ":{"ha":1043,"x_min":93,"x_max":950,"o":"m 950 1128 q 898 983 950 1036 q 751 926 846 931 q 899 755 849 867 q 950 490 950 643 q 897 224 950 338 q 748 50 844 111 q 521 -11 651 -11 q 294 49 390 -11 q 145 223 197 110 q 93 489 93 336 q 144 756 93 643 q 294 930 196 869 q 526 990 392 990 q 636 985 564 990 q 725 979 700 979 q 856 1017 818 981 q 894 1138 894 1053 l 894 1156 l 950 1156 l 950 1128 m 888 490 q 792 817 888 701 q 521 933 697 933 q 251 817 347 933 q 156 490 156 701 q 251 163 156 279 q 521 46 347 46 q 792 163 696 46 q 888 490 888 279 m 324 1269 l 407 1269 l 546 1063 l 496 1063 l 324 1269 z "},"Ở":{"ha":1043,"x_min":93,"x_max":950,"o":"m 950 1128 q 898 983 950 1036 q 751 926 846 931 q 899 755 849 867 q 950 490 950 643 q 897 224 950 338 q 748 50 844 111 q 521 -11 651 -11 q 294 49 390 -11 q 145 223 197 110 q 93 489 93 336 q 144 756 93 643 q 294 930 196 869 q 526 990 392 990 q 636 985 564 990 q 725 979 700 979 q 856 1017 818 981 q 894 1138 894 1053 l 894 1156 l 950 1156 l 950 1128 m 888 490 q 792 817 888 701 q 521 933 697 933 q 251 817 347 933 q 156 490 156 701 q 251 163 156 279 q 521 46 347 46 q 792 163 696 46 q 888 490 888 279 m 550 1063 l 493 1063 l 493 1083 q 508 1122 493 1108 q 550 1153 522 1136 q 578 1172 569 1164 q 588 1190 588 1179 q 571 1211 588 1204 q 525 1218 554 1218 q 438 1201 482 1218 l 421 1254 q 524 1276 471 1276 q 620 1253 586 1276 q 654 1188 654 1229 q 638 1147 654 1161 q 592 1115 622 1132 q 560 1096 569 1104 q 550 1075 550 1088 l 550 1063 z "},"Ỡ":{"ha":1043,"x_min":93,"x_max":950,"o":"m 950 1128 q 898 983 950 1036 q 751 926 846 931 q 899 755 849 867 q 950 490 950 643 q 897 224 950 338 q 748 50 844 111 q 521 -11 651 -11 q 294 49 390 -11 q 145 223 197 110 q 93 489 93 336 q 144 756 93 643 q 294 930 196 869 q 526 990 392 990 q 636 985 564 990 q 725 979 700 979 q 856 1017 818 981 q 894 1138 894 1053 l 894 1156 l 950 1156 l 950 1128 m 888 490 q 792 817 888 701 q 521 933 697 933 q 251 817 347 933 q 156 490 156 701 q 251 163 156 279 q 521 46 347 46 q 792 163 696 46 q 888 490 888 279 m 307 1103 q 336 1201 307 1164 q 417 1238 365 1238 q 475 1225 447 1238 q 539 1189 503 1213 q 585 1163 567 1172 q 619 1154 604 1154 q 670 1178 651 1154 q 688 1233 689 1201 l 735 1233 q 706 1135 735 1172 q 625 1099 676 1099 q 567 1111 594 1099 q 503 1147 539 1124 q 456 1173 475 1164 q 422 1182 438 1182 q 372 1158 390 1182 q 354 1103 353 1135 l 307 1103 z "},"Ő":{"ha":1043,"x_min":93,"x_max":950,"o":"m 521 -11 q 294 49 390 -11 q 145 223 197 110 q 93 489 93 336 q 144 756 93 643 q 292 930 196 869 q 521 990 389 990 q 750 930 653 990 q 899 757 847 869 q 950 490 950 644 q 898 223 950 336 q 749 49 846 110 q 521 -11 653 -11 m 521 46 q 792 163 696 46 q 888 490 888 279 q 792 817 888 701 q 521 933 697 933 q 251 817 347 933 q 156 490 156 701 q 251 163 156 279 q 521 46 347 46 m 426 1063 l 524 1269 l 599 1269 l 464 1063 l 426 1063 m 578 1063 l 675 1269 l 749 1269 l 615 1063 l 578 1063 z "},"Ȏ":{"ha":1043,"x_min":93,"x_max":950,"o":"m 521 -11 q 294 49 390 -11 q 145 223 197 110 q 93 489 93 336 q 144 756 93 643 q 292 930 196 869 q 521 990 389 990 q 750 930 653 990 q 899 757 847 869 q 950 490 950 644 q 898 223 950 336 q 749 49 846 110 q 521 -11 653 -11 m 521 46 q 792 163 696 46 q 888 490 888 279 q 792 817 888 701 q 521 933 697 933 q 251 817 347 933 q 156 490 156 701 q 251 163 156 279 q 521 46 347 46 m 521 1253 q 648 1219 592 1253 q 735 1107 704 1185 l 679 1083 q 607 1172 643 1149 q 521 1196 571 1196 q 435 1172 471 1196 q 363 1083 399 1149 l 307 1107 q 521 1253 367 1253 z "},"Ō":{"ha":1043,"x_min":93,"x_max":950,"o":"m 521 -11 q 294 49 390 -11 q 145 223 197 110 q 93 489 93 336 q 144 756 93 643 q 292 930 196 869 q 521 990 389 990 q 750 930 653 990 q 899 757 847 869 q 950 490 950 644 q 898 223 950 336 q 749 49 846 110 q 521 -11 653 -11 m 521 46 q 792 163 696 46 q 888 490 888 279 q 792 817 888 701 q 521 933 697 933 q 251 817 347 933 q 156 490 156 701 q 251 163 156 279 q 521 46 347 46 m 318 1197 l 724 1197 l 724 1139 l 318 1139 l 318 1197 z "},"Ṓ":{"ha":1043,"x_min":93,"x_max":950,"o":"m 521 -11 q 294 49 390 -11 q 145 223 197 110 q 93 489 93 336 q 144 756 93 643 q 292 930 196 869 q 521 990 389 990 q 750 930 653 990 q 899 757 847 869 q 950 490 950 644 q 898 223 950 336 q 749 49 846 110 q 521 -11 653 -11 m 521 46 q 792 163 696 46 q 888 490 888 279 q 792 817 888 701 q 521 933 697 933 q 251 817 347 933 q 156 490 156 701 q 251 163 156 279 q 521 46 347 46 m 318 1197 l 724 1197 l 724 1139 l 318 1139 l 318 1197 m 496 1285 l 635 1492 l 718 1492 l 546 1285 l 496 1285 z "},"Ṑ":{"ha":1043,"x_min":93,"x_max":950,"o":"m 521 -11 q 294 49 390 -11 q 145 223 197 110 q 93 489 93 336 q 144 756 93 643 q 292 930 196 869 q 521 990 389 990 q 750 930 653 990 q 899 757 847 869 q 950 490 950 644 q 898 223 950 336 q 749 49 846 110 q 521 -11 653 -11 m 521 46 q 792 163 696 46 q 888 490 888 279 q 792 817 888 701 q 521 933 697 933 q 251 817 347 933 q 156 490 156 701 q 251 163 156 279 q 521 46 347 46 m 318 1197 l 724 1197 l 724 1139 l 318 1139 l 318 1197 m 324 1492 l 407 1492 l 546 1285 l 496 1285 l 324 1492 z "},"Ǫ":{"ha":1043,"x_min":93,"x_max":950,"o":"m 640 4 q 533 -117 533 -25 q 559 -186 533 -161 q 629 -211 585 -211 q 711 -185 661 -211 l 733 -232 q 626 -264 690 -264 q 514 -225 557 -264 q 471 -122 471 -186 q 517 -11 471 -60 q 293 50 389 -11 q 145 224 197 111 q 93 489 93 336 q 144 756 93 643 q 292 930 196 869 q 521 990 389 990 q 749 930 653 990 q 898 757 846 869 q 950 490 950 644 q 869 171 950 297 q 640 4 789 44 m 156 490 q 251 163 156 279 q 521 46 347 46 q 792 163 696 46 q 888 490 888 279 q 792 817 888 701 q 521 933 697 933 q 251 817 347 933 q 156 490 156 701 z "},"Ø":{"ha":1043,"x_min":93,"x_max":950,"o":"m 792 900 q 909 731 868 836 q 950 490 950 626 q 898 223 950 336 q 749 49 846 110 q 521 -11 653 -11 q 294 49 390 -11 l 238 -49 l 192 -24 l 251 79 q 134 249 175 144 q 93 489 93 354 q 144 756 93 643 q 292 930 196 869 q 521 990 389 990 q 749 931 653 990 l 806 1028 l 851 1003 l 792 900 m 156 490 q 188 278 156 369 q 282 131 221 188 l 719 882 q 521 933 636 933 q 251 817 347 933 q 156 490 156 701 m 521 46 q 792 163 696 46 q 888 490 888 279 q 763 850 888 736 l 324 99 q 521 46 406 46 z "},"Ǿ":{"ha":1043,"x_min":93,"x_max":950,"o":"m 792 900 q 909 731 868 836 q 950 490 950 626 q 898 223 950 336 q 749 49 846 110 q 521 -11 653 -11 q 294 49 390 -11 l 238 -49 l 192 -24 l 251 79 q 134 249 175 144 q 93 489 93 354 q 144 756 93 643 q 292 930 196 869 q 521 990 389 990 q 749 931 653 990 l 806 1028 l 851 1003 l 792 900 m 156 490 q 188 278 156 369 q 282 131 221 188 l 719 882 q 521 933 636 933 q 251 817 347 933 q 156 490 156 701 m 521 46 q 792 163 696 46 q 888 490 888 279 q 763 850 888 736 l 324 99 q 521 46 406 46 m 496 1063 l 635 1269 l 718 1269 l 546 1063 l 496 1063 z "},"Õ":{"ha":1043,"x_min":93,"x_max":950,"o":"m 521 -11 q 294 49 390 -11 q 145 223 197 110 q 93 489 93 336 q 144 756 93 643 q 292 930 196 869 q 521 990 389 990 q 750 930 653 990 q 899 757 847 869 q 950 490 950 644 q 898 223 950 336 q 749 49 846 110 q 521 -11 653 -11 m 521 46 q 792 163 696 46 q 888 490 888 279 q 792 817 888 701 q 521 933 697 933 q 251 817 347 933 q 156 490 156 701 q 251 163 156 279 q 521 46 347 46 m 307 1103 q 336 1201 307 1164 q 417 1238 365 1238 q 475 1225 447 1238 q 539 1189 503 1213 q 585 1163 567 1172 q 619 1154 604 1154 q 670 1178 651 1154 q 688 1233 689 1201 l 735 1233 q 706 1135 735 1172 q 625 1099 676 1099 q 567 1111 594 1099 q 503 1147 539 1124 q 456 1173 475 1164 q 422 1182 438 1182 q 372 1158 390 1182 q 354 1103 353 1135 l 307 1103 z "},"Ṍ":{"ha":1043,"x_min":93,"x_max":950,"o":"m 521 -11 q 294 49 390 -11 q 145 223 197 110 q 93 489 93 336 q 144 756 93 643 q 292 930 196 869 q 521 990 389 990 q 750 930 653 990 q 899 757 847 869 q 950 490 950 644 q 898 223 950 336 q 749 49 846 110 q 521 -11 653 -11 m 521 46 q 792 163 696 46 q 888 490 888 279 q 792 817 888 701 q 521 933 697 933 q 251 817 347 933 q 156 490 156 701 q 251 163 156 279 q 521 46 347 46 m 307 1103 q 336 1201 307 1164 q 417 1238 365 1238 q 475 1225 447 1238 q 539 1189 503 1213 q 585 1163 567 1172 q 619 1154 604 1154 q 670 1178 651 1154 q 688 1233 689 1201 l 735 1233 q 706 1135 735 1172 q 625 1099 676 1099 q 567 1111 594 1099 q 503 1147 539 1124 q 456 1173 475 1164 q 422 1182 438 1182 q 372 1158 390 1182 q 354 1103 353 1135 l 307 1103 m 496 1285 l 635 1492 l 718 1492 l 546 1285 l 496 1285 z "},"Ṏ":{"ha":1043,"x_min":93,"x_max":950,"o":"m 521 -11 q 294 49 390 -11 q 145 223 197 110 q 93 489 93 336 q 144 756 93 643 q 292 930 196 869 q 521 990 389 990 q 750 930 653 990 q 899 757 847 869 q 950 490 950 644 q 898 223 950 336 q 749 49 846 110 q 521 -11 653 -11 m 521 46 q 792 163 696 46 q 888 490 888 279 q 792 817 888 701 q 521 933 697 933 q 251 817 347 933 q 156 490 156 701 q 251 163 156 279 q 521 46 347 46 m 307 1103 q 336 1201 307 1164 q 417 1238 365 1238 q 475 1225 447 1238 q 539 1189 503 1213 q 585 1163 567 1172 q 619 1154 604 1154 q 670 1178 651 1154 q 688 1233 689 1201 l 735 1233 q 706 1135 735 1172 q 625 1099 676 1099 q 567 1111 594 1099 q 503 1147 539 1124 q 456 1173 475 1164 q 422 1182 438 1182 q 372 1158 390 1182 q 354 1103 353 1135 l 307 1103 m 451 1432 l 451 1349 l 367 1349 l 367 1432 l 451 1432 m 675 1432 l 675 1349 l 590 1349 l 590 1432 l 675 1432 z "},"Ȭ":{"ha":1043,"x_min":93,"x_max":950,"o":"m 521 -11 q 294 49 390 -11 q 145 223 197 110 q 93 489 93 336 q 144 756 93 643 q 292 930 196 869 q 521 990 389 990 q 750 930 653 990 q 899 757 847 869 q 950 490 950 644 q 898 223 950 336 q 749 49 846 110 q 521 -11 653 -11 m 521 46 q 792 163 696 46 q 888 490 888 279 q 792 817 888 701 q 521 933 697 933 q 251 817 347 933 q 156 490 156 701 q 251 163 156 279 q 521 46 347 46 m 307 1103 q 336 1201 307 1164 q 417 1238 365 1238 q 475 1225 447 1238 q 539 1189 503 1213 q 585 1163 567 1172 q 619 1154 604 1154 q 670 1178 651 1154 q 688 1233 689 1201 l 735 1233 q 706 1135 735 1172 q 625 1099 676 1099 q 567 1111 594 1099 q 503 1147 539 1124 q 456 1173 475 1164 q 422 1182 438 1182 q 372 1158 390 1182 q 354 1103 353 1135 l 307 1103 m 318 1419 l 724 1419 l 724 1361 l 318 1361 l 318 1419 z "},"Œ":{"ha":1453,"x_min":93,"x_max":1375,"o":"m 571 0 q 217 127 340 0 q 93 490 93 254 q 217 853 93 726 q 571 979 340 979 l 1375 979 l 1375 925 l 843 925 l 843 524 l 1347 524 l 1347 469 l 843 469 l 843 54 l 1375 54 l 1375 0 l 571 0 m 786 54 l 786 925 l 574 925 q 156 490 156 925 q 260 164 156 274 q 574 54 365 54 l 786 54 z "},"P":{"ha":878,"x_min":133,"x_max":804,"o":"m 133 979 l 486 979 q 721 907 638 979 q 804 701 804 835 q 720 494 804 568 q 486 421 636 421 l 190 421 l 190 0 l 133 0 l 133 979 m 485 476 q 678 533 614 476 q 743 701 743 590 q 678 869 743 813 q 485 925 614 925 l 190 925 l 190 476 l 485 476 z "},"Þ":{"ha":878,"x_min":133,"x_max":804,"o":"m 501 754 q 726 688 647 754 q 804 500 804 622 q 725 310 804 378 q 501 242 646 242 l 192 242 l 192 0 l 133 0 l 133 979 l 192 979 l 192 754 l 501 754 m 501 297 q 683 347 624 297 q 743 500 743 397 q 683 651 743 601 q 501 700 624 700 l 192 700 l 192 297 l 501 297 z "},"Q":{"ha":1043,"x_min":93,"x_max":950,"o":"m 654 6 q 707 -28 683 -4 q 756 -94 731 -51 l 842 -233 l 796 -264 l 696 -103 q 521 -11 640 -11 q 294 49 390 -11 q 145 223 197 110 q 93 489 93 336 q 144 756 93 643 q 292 930 196 869 q 521 990 389 990 q 749 930 653 990 q 898 757 846 869 q 950 490 950 644 q 872 174 950 301 q 654 6 794 47 m 156 490 q 251 163 156 279 q 521 46 347 46 q 792 163 696 46 q 888 490 888 279 q 792 817 888 701 q 521 933 697 933 q 251 817 347 933 q 156 490 156 701 z "},"R":{"ha":940,"x_min":133,"x_max":861,"o":"m 861 0 l 797 0 l 632 314 q 549 408 596 383 q 417 433 501 433 l 190 433 l 190 0 l 133 0 l 133 979 l 511 979 q 745 910 663 979 q 828 708 828 842 q 760 526 828 594 q 569 444 693 458 q 631 407 604 433 q 683 336 658 381 l 861 0 m 513 489 q 767 710 767 489 q 704 872 767 818 q 513 925 642 925 l 192 925 l 192 489 l 513 489 z "},"Ŕ":{"ha":940,"x_min":133,"x_max":861,"o":"m 861 0 l 797 0 l 632 314 q 549 408 596 383 q 417 433 501 433 l 190 433 l 190 0 l 133 0 l 133 979 l 511 979 q 745 910 663 979 q 828 708 828 842 q 760 526 828 594 q 569 444 693 458 q 631 407 604 433 q 683 336 658 381 l 861 0 m 513 489 q 767 710 767 489 q 704 872 767 818 q 513 925 642 925 l 192 925 l 192 489 l 513 489 m 439 1063 l 578 1269 l 661 1269 l 489 1063 l 439 1063 z "},"Ř":{"ha":940,"x_min":133,"x_max":861,"o":"m 861 0 l 797 0 l 632 314 q 549 408 596 383 q 417 433 501 433 l 190 433 l 190 0 l 133 0 l 133 979 l 511 979 q 745 910 663 979 q 828 708 828 842 q 760 526 828 594 q 569 444 693 458 q 631 407 604 433 q 683 336 658 381 l 861 0 m 513 489 q 767 710 767 489 q 704 872 767 818 q 513 925 642 925 l 192 925 l 192 489 l 513 489 m 644 1269 l 489 1063 l 439 1063 l 283 1269 l 354 1269 l 464 1113 l 574 1269 l 644 1269 z "},"Ŗ":{"ha":940,"x_min":133,"x_max":861,"o":"m 861 0 l 797 0 l 632 314 q 549 408 596 383 q 417 433 501 433 l 190 433 l 190 0 l 133 0 l 133 979 l 511 979 q 745 910 663 979 q 828 708 828 842 q 760 526 828 594 q 569 444 693 458 q 631 407 604 433 q 683 336 658 381 l 861 0 m 513 489 q 767 710 767 489 q 704 872 767 818 q 513 925 642 925 l 192 925 l 192 489 l 513 489 m 513 -106 l 513 -181 q 498 -272 513 -231 q 449 -347 483 -312 l 411 -318 q 449 -259 439 -287 q 461 -196 460 -231 l 415 -196 l 415 -106 l 513 -106 z "},"Ȑ":{"ha":940,"x_min":133,"x_max":861,"o":"m 861 0 l 797 0 l 632 314 q 549 408 596 383 q 417 433 501 433 l 190 433 l 190 0 l 133 0 l 133 979 l 511 979 q 745 910 663 979 q 828 708 828 842 q 760 526 828 594 q 569 444 693 458 q 631 407 604 433 q 683 336 658 381 l 861 0 m 513 489 q 767 710 767 489 q 704 872 767 818 q 513 925 642 925 l 192 925 l 192 489 l 513 489 m 236 1269 l 310 1269 l 407 1063 l 369 1063 l 236 1269 m 386 1269 l 461 1269 l 558 1063 l 521 1063 l 386 1269 z "},"Ṛ":{"ha":940,"x_min":133,"x_max":861,"o":"m 861 0 l 797 0 l 632 314 q 549 408 596 383 q 417 433 501 433 l 190 433 l 190 0 l 133 0 l 133 979 l 511 979 q 745 910 663 979 q 828 708 828 842 q 760 526 828 594 q 569 444 693 458 q 631 407 604 433 q 683 336 658 381 l 861 0 m 513 489 q 767 710 767 489 q 704 872 767 818 q 513 925 642 925 l 192 925 l 192 489 l 513 489 m 510 -151 l 510 -240 l 418 -240 l 418 -151 l 510 -151 z "},"Ȓ":{"ha":940,"x_min":133,"x_max":861,"o":"m 861 0 l 797 0 l 632 314 q 549 408 596 383 q 417 433 501 433 l 190 433 l 190 0 l 133 0 l 133 979 l 511 979 q 745 910 663 979 q 828 708 828 842 q 760 526 828 594 q 569 444 693 458 q 631 407 604 433 q 683 336 658 381 l 861 0 m 513 489 q 767 710 767 489 q 704 872 767 818 q 513 925 642 925 l 192 925 l 192 489 l 513 489 m 464 1253 q 591 1219 535 1253 q 678 1107 647 1185 l 622 1083 q 550 1172 586 1149 q 464 1196 514 1196 q 378 1172 414 1196 q 306 1083 342 1149 l 250 1107 q 464 1253 310 1253 z "},"Ṟ":{"ha":940,"x_min":133,"x_max":861,"o":"m 861 0 l 797 0 l 632 314 q 549 408 596 383 q 417 433 501 433 l 190 433 l 190 0 l 133 0 l 133 979 l 511 979 q 745 910 663 979 q 828 708 828 842 q 760 526 828 594 q 569 444 693 458 q 631 407 604 433 q 683 336 658 381 l 861 0 m 513 489 q 767 710 767 489 q 704 872 767 818 q 513 925 642 925 l 192 925 l 192 489 l 513 489 m 261 -165 l 667 -165 l 667 -225 l 261 -225 l 261 -165 z "},"S":{"ha":831,"x_min":71,"x_max":763,"o":"m 428 -11 q 226 21 313 -11 q 71 121 140 53 l 100 169 q 247 74 174 101 q 428 46 321 46 q 632 101 560 46 q 704 257 704 156 q 668 351 704 315 q 579 406 632 388 q 438 446 526 425 q 253 498 318 475 q 138 574 189 521 q 88 719 88 628 q 128 863 88 801 q 247 957 169 924 q 426 990 324 990 q 756 858 628 990 l 726 810 q 585 904 657 875 q 426 933 514 933 q 221 876 294 933 q 147 717 147 819 q 211 585 147 628 q 390 514 275 543 l 450 500 q 613 455 550 478 q 719 383 675 432 q 763 253 763 335 q 721 115 763 175 q 603 22 679 56 q 428 -11 528 -11 z "},"Ś":{"ha":831,"x_min":71,"x_max":763,"o":"m 428 -11 q 226 21 313 -11 q 71 121 140 53 l 100 169 q 247 74 174 101 q 428 46 321 46 q 632 101 560 46 q 704 257 704 156 q 668 351 704 315 q 579 406 632 388 q 438 446 526 425 q 253 498 318 475 q 138 574 189 521 q 88 719 88 628 q 128 863 88 801 q 247 957 169 924 q 426 990 324 990 q 756 858 628 990 l 726 810 q 585 904 657 875 q 426 933 514 933 q 221 876 294 933 q 147 717 147 819 q 211 585 147 628 q 390 514 275 543 l 450 500 q 613 455 550 478 q 719 383 675 432 q 763 253 763 335 q 721 115 763 175 q 603 22 679 56 q 428 -11 528 -11 m 390 1063 l 529 1269 l 613 1269 l 440 1063 l 390 1063 z "},"Ṥ":{"ha":831,"x_min":71,"x_max":763,"o":"m 428 -11 q 226 21 313 -11 q 71 121 140 53 l 100 169 q 247 74 174 101 q 428 46 321 46 q 632 101 560 46 q 704 257 704 156 q 668 351 704 315 q 579 406 632 388 q 438 446 526 425 q 253 498 318 475 q 138 574 189 521 q 88 719 88 628 q 128 863 88 801 q 247 957 169 924 q 426 990 324 990 q 756 858 628 990 l 726 810 q 585 904 657 875 q 426 933 514 933 q 221 876 294 933 q 147 717 147 819 q 211 585 147 628 q 390 514 275 543 l 450 500 q 613 455 550 478 q 719 383 675 432 q 763 253 763 335 q 721 115 763 175 q 603 22 679 56 q 428 -11 528 -11 m 386 1063 l 525 1269 l 608 1269 l 436 1063 l 386 1063 m 310 1269 l 310 1182 l 221 1182 l 221 1269 l 310 1269 z "},"Š":{"ha":831,"x_min":71,"x_max":763,"o":"m 428 -11 q 226 21 313 -11 q 71 121 140 53 l 100 169 q 247 74 174 101 q 428 46 321 46 q 632 101 560 46 q 704 257 704 156 q 668 351 704 315 q 579 406 632 388 q 438 446 526 425 q 253 498 318 475 q 138 574 189 521 q 88 719 88 628 q 128 863 88 801 q 247 957 169 924 q 426 990 324 990 q 756 858 628 990 l 726 810 q 585 904 657 875 q 426 933 514 933 q 221 876 294 933 q 147 717 147 819 q 211 585 147 628 q 390 514 275 543 l 450 500 q 613 455 550 478 q 719 383 675 432 q 763 253 763 335 q 721 115 763 175 q 603 22 679 56 q 428 -11 528 -11 m 596 1269 l 440 1063 l 390 1063 l 235 1269 l 306 1269 l 415 1113 l 525 1269 l 596 1269 z "},"Ṧ":{"ha":831,"x_min":71,"x_max":763,"o":"m 428 -11 q 226 21 313 -11 q 71 121 140 53 l 100 169 q 247 74 174 101 q 428 46 321 46 q 632 101 560 46 q 704 257 704 156 q 668 351 704 315 q 579 406 632 388 q 438 446 526 425 q 253 498 318 475 q 138 574 189 521 q 88 719 88 628 q 128 863 88 801 q 247 957 169 924 q 426 990 324 990 q 756 858 628 990 l 726 810 q 585 904 657 875 q 426 933 514 933 q 221 876 294 933 q 147 717 147 819 q 211 585 147 628 q 390 514 275 543 l 450 500 q 613 455 550 478 q 719 383 675 432 q 763 253 763 335 q 721 115 763 175 q 603 22 679 56 q 428 -11 528 -11 m 596 1269 l 440 1063 l 390 1063 l 235 1269 l 306 1269 l 415 1113 l 525 1269 l 596 1269 m 460 1433 l 460 1346 l 371 1346 l 371 1433 l 460 1433 z "},"Ş":{"ha":831,"x_min":71,"x_max":763,"o":"m 763 253 q 723 117 763 176 q 610 24 683 58 q 440 -11 538 -10 l 436 -62 q 478 -57 453 -57 q 548 -81 518 -57 q 578 -153 578 -104 q 539 -233 578 -201 q 432 -264 500 -264 q 370 -258 403 -264 q 314 -237 338 -251 l 333 -190 q 435 -210 378 -210 q 498 -194 476 -210 q 519 -153 519 -179 q 506 -121 519 -132 q 468 -110 493 -110 q 399 -125 439 -110 l 372 -106 l 382 -10 q 209 28 285 -4 q 71 121 133 60 l 100 169 q 247 74 174 101 q 428 46 321 46 q 632 101 560 46 q 704 257 704 156 q 668 351 704 315 q 579 406 632 388 q 438 446 526 425 q 253 498 318 475 q 138 574 189 521 q 88 719 88 628 q 128 863 88 801 q 247 957 169 924 q 426 990 324 990 q 756 858 628 990 l 726 810 q 585 904 657 875 q 426 933 514 933 q 221 876 294 933 q 147 717 147 819 q 211 585 147 628 q 390 514 275 543 l 450 500 q 613 455 550 478 q 719 383 675 432 q 763 253 763 335 z "},"Ŝ":{"ha":831,"x_min":71,"x_max":763,"o":"m 428 -11 q 226 21 313 -11 q 71 121 140 53 l 100 169 q 247 74 174 101 q 428 46 321 46 q 632 101 560 46 q 704 257 704 156 q 668 351 704 315 q 579 406 632 388 q 438 446 526 425 q 253 498 318 475 q 138 574 189 521 q 88 719 88 628 q 128 863 88 801 q 247 957 169 924 q 426 990 324 990 q 756 858 628 990 l 726 810 q 585 904 657 875 q 426 933 514 933 q 221 876 294 933 q 147 717 147 819 q 211 585 147 628 q 390 514 275 543 l 450 500 q 613 455 550 478 q 719 383 675 432 q 763 253 763 335 q 721 115 763 175 q 603 22 679 56 q 428 -11 528 -11 m 235 1063 l 390 1269 l 440 1269 l 596 1063 l 525 1063 l 415 1219 l 306 1063 l 235 1063 z "},"Ș":{"ha":831,"x_min":71,"x_max":763,"o":"m 428 -11 q 226 21 313 -11 q 71 121 140 53 l 100 169 q 247 74 174 101 q 428 46 321 46 q 632 101 560 46 q 704 257 704 156 q 668 351 704 315 q 579 406 632 388 q 438 446 526 425 q 253 498 318 475 q 138 574 189 521 q 88 719 88 628 q 128 863 88 801 q 247 957 169 924 q 426 990 324 990 q 756 858 628 990 l 726 810 q 585 904 657 875 q 426 933 514 933 q 221 876 294 933 q 147 717 147 819 q 211 585 147 628 q 390 514 275 543 l 450 500 q 613 455 550 478 q 719 383 675 432 q 763 253 763 335 q 721 115 763 175 q 603 22 679 56 q 428 -11 528 -11 m 472 -106 l 472 -181 q 458 -272 472 -231 q 408 -347 443 -312 l 371 -318 q 409 -259 399 -287 q 421 -196 419 -231 l 375 -196 l 375 -106 l 472 -106 z "},"Ṡ":{"ha":831,"x_min":71,"x_max":763,"o":"m 428 -11 q 226 21 313 -11 q 71 121 140 53 l 100 169 q 247 74 174 101 q 428 46 321 46 q 632 101 560 46 q 704 257 704 156 q 668 351 704 315 q 579 406 632 388 q 438 446 526 425 q 253 498 318 475 q 138 574 189 521 q 88 719 88 628 q 128 863 88 801 q 247 957 169 924 q 426 990 324 990 q 756 858 628 990 l 726 810 q 585 904 657 875 q 426 933 514 933 q 221 876 294 933 q 147 717 147 819 q 211 585 147 628 q 390 514 275 543 l 450 500 q 613 455 550 478 q 719 383 675 432 q 763 253 763 335 q 721 115 763 175 q 603 22 679 56 q 428 -11 528 -11 m 460 1211 l 460 1124 l 371 1124 l 371 1211 l 460 1211 z "},"Ṣ":{"ha":831,"x_min":71,"x_max":763,"o":"m 428 -11 q 226 21 313 -11 q 71 121 140 53 l 100 169 q 247 74 174 101 q 428 46 321 46 q 632 101 560 46 q 704 257 704 156 q 668 351 704 315 q 579 406 632 388 q 438 446 526 425 q 253 498 318 475 q 138 574 189 521 q 88 719 88 628 q 128 863 88 801 q 247 957 169 924 q 426 990 324 990 q 756 858 628 990 l 726 810 q 585 904 657 875 q 426 933 514 933 q 221 876 294 933 q 147 717 147 819 q 211 585 147 628 q 390 514 275 543 l 450 500 q 613 455 550 478 q 719 383 675 432 q 763 253 763 335 q 721 115 763 175 q 603 22 679 56 q 428 -11 528 -11 m 469 -151 l 469 -240 l 378 -240 l 378 -151 l 469 -151 z "},"Ṩ":{"ha":831,"x_min":71,"x_max":763,"o":"m 428 -11 q 226 21 313 -11 q 71 121 140 53 l 100 169 q 247 74 174 101 q 428 46 321 46 q 632 101 560 46 q 704 257 704 156 q 668 351 704 315 q 579 406 632 388 q 438 446 526 425 q 253 498 318 475 q 138 574 189 521 q 88 719 88 628 q 128 863 88 801 q 247 957 169 924 q 426 990 324 990 q 756 858 628 990 l 726 810 q 585 904 657 875 q 426 933 514 933 q 221 876 294 933 q 147 717 147 819 q 211 585 147 628 q 390 514 275 543 l 450 500 q 613 455 550 478 q 719 383 675 432 q 763 253 763 335 q 721 115 763 175 q 603 22 679 56 q 428 -11 528 -11 m 469 -151 l 469 -240 l 378 -240 l 378 -151 l 469 -151 m 460 1211 l 460 1124 l 371 1124 l 371 1211 l 460 1211 z "},"ẞ":{"ha":939,"x_min":133,"x_max":842,"o":"m 633 510 q 788 425 735 488 q 842 265 842 363 q 805 121 842 183 q 701 24 768 58 q 544 -10 633 -10 q 409 15 475 -10 q 293 83 343 39 l 322 136 q 428 69 378 90 q 535 49 479 49 q 715 107 649 49 q 781 267 781 165 q 714 419 781 367 q 522 471 647 471 l 326 471 l 326 525 l 471 525 q 653 580 588 525 q 718 735 718 635 q 654 880 718 828 q 478 932 590 932 q 261 860 331 932 q 192 633 192 788 l 192 0 l 133 0 l 133 644 q 218 903 133 818 q 476 989 303 989 q 697 921 615 989 q 778 735 778 853 q 740 594 778 653 q 633 510 703 536 z "},"Ə":{"ha":1011,"x_min":93,"x_max":918,"o":"m 475 990 q 711 930 611 990 q 865 757 811 869 q 918 490 918 644 q 868 223 918 336 q 724 49 818 110 q 504 -11 631 -11 q 286 49 379 -11 q 143 222 193 110 q 93 483 93 333 l 93 526 l 856 526 q 749 828 847 721 q 478 935 650 935 q 306 904 385 935 q 158 810 228 874 l 129 858 q 281 956 190 921 q 475 990 372 990 m 504 46 q 759 157 667 46 q 857 468 851 268 l 154 468 q 252 158 160 269 q 504 46 344 46 z "},"T":{"ha":811,"x_min":17,"x_max":794,"o":"m 376 926 l 17 926 l 17 979 l 794 979 l 794 926 l 435 926 l 435 0 l 376 0 l 376 926 z "},"Ŧ":{"ha":811,"x_min":17,"x_max":794,"o":"m 435 926 l 435 524 l 638 524 l 638 472 l 435 472 l 435 0 l 376 0 l 376 472 l 174 472 l 174 524 l 376 524 l 376 926 l 17 926 l 17 979 l 794 979 l 794 926 l 435 926 z "},"Ť":{"ha":811,"x_min":17,"x_max":794,"o":"m 376 926 l 17 926 l 17 979 l 794 979 l 794 926 l 435 926 l 435 0 l 376 0 l 376 926 m 586 1269 l 431 1063 l 381 1063 l 225 1269 l 296 1269 l 406 1113 l 515 1269 l 586 1269 z "},"Ţ":{"ha":811,"x_min":17,"x_max":794,"o":"m 424 0 l 418 -62 q 460 -57 435 -57 q 530 -81 500 -57 q 560 -153 560 -104 q 521 -233 560 -201 q 414 -264 482 -264 q 352 -258 385 -264 q 296 -237 319 -251 l 315 -190 q 417 -210 360 -210 q 480 -194 458 -210 q 501 -153 501 -179 q 488 -121 501 -132 q 450 -110 475 -110 q 381 -125 421 -110 l 354 -106 l 368 28 l 376 28 l 376 926 l 17 926 l 17 979 l 794 979 l 794 926 l 435 926 l 435 0 l 424 0 z "},"Ț":{"ha":811,"x_min":17,"x_max":794,"o":"m 376 926 l 17 926 l 17 979 l 794 979 l 794 926 l 435 926 l 435 0 l 376 0 l 376 926 m 454 -106 l 454 -181 q 440 -272 454 -231 q 390 -347 425 -312 l 353 -318 q 391 -259 381 -287 q 403 -196 401 -231 l 357 -196 l 357 -106 l 454 -106 z "},"Ṭ":{"ha":811,"x_min":17,"x_max":794,"o":"m 376 926 l 17 926 l 17 979 l 794 979 l 794 926 l 435 926 l 435 0 l 376 0 l 376 926 m 451 -151 l 451 -240 l 360 -240 l 360 -151 l 451 -151 z "},"Ṯ":{"ha":811,"x_min":17,"x_max":794,"o":"m 376 926 l 17 926 l 17 979 l 794 979 l 794 926 l 435 926 l 435 0 l 376 0 l 376 926 m 203 -165 l 608 -165 l 608 -225 l 203 -225 l 203 -165 z "},"U":{"ha":993,"x_min":126,"x_max":868,"o":"m 497 -11 q 220 85 314 -11 q 126 371 126 182 l 126 979 l 183 979 l 183 361 q 497 46 183 46 q 731 125 651 46 q 810 361 810 204 l 810 979 l 868 979 l 868 371 q 774 85 868 182 q 497 -11 679 -11 z "},"Ú":{"ha":993,"x_min":126,"x_max":868,"o":"m 497 -11 q 220 85 314 -11 q 126 371 126 182 l 126 979 l 183 979 l 183 361 q 497 46 183 46 q 731 125 651 46 q 810 361 810 204 l 810 979 l 868 979 l 868 371 q 774 85 868 182 q 497 -11 679 -11 m 472 1063 l 611 1269 l 694 1269 l 522 1063 l 472 1063 z "},"Ŭ":{"ha":993,"x_min":126,"x_max":868,"o":"m 497 -11 q 220 85 314 -11 q 126 371 126 182 l 126 979 l 183 979 l 183 361 q 497 46 183 46 q 731 125 651 46 q 810 361 810 204 l 810 979 l 868 979 l 868 371 q 774 85 868 182 q 497 -11 679 -11 m 497 1081 q 370 1115 426 1081 q 283 1226 314 1149 l 339 1251 q 411 1162 375 1186 q 497 1138 447 1138 q 583 1162 547 1138 q 656 1251 619 1186 l 711 1226 q 497 1081 651 1081 z "},"Û":{"ha":993,"x_min":126,"x_max":868,"o":"m 497 -11 q 220 85 314 -11 q 126 371 126 182 l 126 979 l 183 979 l 183 361 q 497 46 183 46 q 731 125 651 46 q 810 361 810 204 l 810 979 l 868 979 l 868 371 q 774 85 868 182 q 497 -11 679 -11 m 317 1063 l 472 1269 l 522 1269 l 678 1063 l 607 1063 l 497 1219 l 388 1063 l 317 1063 z "},"Ȕ":{"ha":993,"x_min":126,"x_max":868,"o":"m 497 -11 q 220 85 314 -11 q 126 371 126 182 l 126 979 l 183 979 l 183 361 q 497 46 183 46 q 731 125 651 46 q 810 361 810 204 l 810 979 l 868 979 l 868 371 q 774 85 868 182 q 497 -11 679 -11 m 269 1269 l 343 1269 l 440 1063 l 403 1063 l 269 1269 m 419 1269 l 494 1269 l 592 1063 l 554 1063 l 419 1269 z "},"Ü":{"ha":993,"x_min":126,"x_max":868,"o":"m 497 -11 q 220 85 314 -11 q 126 371 126 182 l 126 979 l 183 979 l 183 361 q 497 46 183 46 q 731 125 651 46 q 810 361 810 204 l 810 979 l 868 979 l 868 371 q 774 85 868 182 q 497 -11 679 -11 m 428 1210 l 428 1126 l 343 1126 l 343 1210 l 428 1210 m 651 1210 l 651 1126 l 567 1126 l 567 1210 l 651 1210 z "},"Ụ":{"ha":993,"x_min":126,"x_max":868,"o":"m 497 -11 q 220 85 314 -11 q 126 371 126 182 l 126 979 l 183 979 l 183 361 q 497 46 183 46 q 731 125 651 46 q 810 361 810 204 l 810 979 l 868 979 l 868 371 q 774 85 868 182 q 497 -11 679 -11 m 543 -151 l 543 -240 l 451 -240 l 451 -151 l 543 -151 z "},"Ù":{"ha":993,"x_min":126,"x_max":868,"o":"m 497 -11 q 220 85 314 -11 q 126 371 126 182 l 126 979 l 183 979 l 183 361 q 497 46 183 46 q 731 125 651 46 q 810 361 810 204 l 810 979 l 868 979 l 868 371 q 774 85 868 182 q 497 -11 679 -11 m 300 1269 l 383 1269 l 522 1063 l 472 1063 l 300 1269 z "},"Ủ":{"ha":993,"x_min":126,"x_max":868,"o":"m 497 -11 q 220 85 314 -11 q 126 371 126 182 l 126 979 l 183 979 l 183 361 q 497 46 183 46 q 731 125 651 46 q 810 361 810 204 l 810 979 l 868 979 l 868 371 q 774 85 868 182 q 497 -11 679 -11 m 526 1063 l 469 1063 l 469 1083 q 484 1122 469 1108 q 526 1153 499 1136 q 555 1172 546 1164 q 564 1190 564 1179 q 547 1211 564 1204 q 501 1218 531 1218 q 414 1201 458 1218 l 397 1254 q 500 1276 447 1276 q 597 1253 563 1276 q 631 1188 631 1229 q 615 1147 631 1161 q 568 1115 599 1132 q 536 1096 546 1104 q 526 1075 526 1088 l 526 1063 z "},"Ư":{"ha":993,"x_min":126,"x_max":1035,"o":"m 1035 1156 l 1035 1128 q 992 992 1035 1043 q 868 931 950 942 l 868 371 q 774 85 868 182 q 497 -11 679 -11 q 220 85 314 -11 q 126 371 126 182 l 126 979 l 183 979 l 183 361 q 497 46 183 46 q 731 125 651 46 q 810 361 810 204 l 810 979 l 826 979 q 942 1017 907 981 q 978 1138 978 1054 l 978 1156 l 1035 1156 z "},"Ứ":{"ha":993,"x_min":126,"x_max":1035,"o":"m 1035 1156 l 1035 1128 q 992 992 1035 1043 q 868 931 950 942 l 868 371 q 774 85 868 182 q 497 -11 679 -11 q 220 85 314 -11 q 126 371 126 182 l 126 979 l 183 979 l 183 361 q 497 46 183 46 q 731 125 651 46 q 810 361 810 204 l 810 979 l 826 979 q 942 1017 907 981 q 978 1138 978 1054 l 978 1156 l 1035 1156 m 472 1063 l 611 1269 l 694 1269 l 522 1063 l 472 1063 z "},"Ự":{"ha":993,"x_min":126,"x_max":1035,"o":"m 1035 1156 l 1035 1128 q 992 992 1035 1043 q 868 931 950 942 l 868 371 q 774 85 868 182 q 497 -11 679 -11 q 220 85 314 -11 q 126 371 126 182 l 126 979 l 183 979 l 183 361 q 497 46 183 46 q 731 125 651 46 q 810 361 810 204 l 810 979 l 826 979 q 942 1017 907 981 q 978 1138 978 1054 l 978 1156 l 1035 1156 m 543 -151 l 543 -240 l 451 -240 l 451 -151 l 543 -151 z "},"Ừ":{"ha":993,"x_min":126,"x_max":1035,"o":"m 1035 1156 l 1035 1128 q 992 992 1035 1043 q 868 931 950 942 l 868 371 q 774 85 868 182 q 497 -11 679 -11 q 220 85 314 -11 q 126 371 126 182 l 126 979 l 183 979 l 183 361 q 497 46 183 46 q 731 125 651 46 q 810 361 810 204 l 810 979 l 826 979 q 942 1017 907 981 q 978 1138 978 1054 l 978 1156 l 1035 1156 m 300 1269 l 383 1269 l 522 1063 l 472 1063 l 300 1269 z "},"Ử":{"ha":993,"x_min":126,"x_max":1035,"o":"m 1035 1156 l 1035 1128 q 992 992 1035 1043 q 868 931 950 942 l 868 371 q 774 85 868 182 q 497 -11 679 -11 q 220 85 314 -11 q 126 371 126 182 l 126 979 l 183 979 l 183 361 q 497 46 183 46 q 731 125 651 46 q 810 361 810 204 l 810 979 l 826 979 q 942 1017 907 981 q 978 1138 978 1054 l 978 1156 l 1035 1156 m 526 1063 l 469 1063 l 469 1083 q 484 1122 469 1108 q 526 1153 499 1136 q 555 1172 546 1164 q 564 1190 564 1179 q 547 1211 564 1204 q 501 1218 531 1218 q 414 1201 458 1218 l 397 1254 q 500 1276 447 1276 q 597 1253 563 1276 q 631 1188 631 1229 q 615 1147 631 1161 q 568 1115 599 1132 q 536 1096 546 1104 q 526 1075 526 1088 l 526 1063 z "},"Ữ":{"ha":993,"x_min":126,"x_max":1035,"o":"m 1035 1156 l 1035 1128 q 992 992 1035 1043 q 868 931 950 942 l 868 371 q 774 85 868 182 q 497 -11 679 -11 q 220 85 314 -11 q 126 371 126 182 l 126 979 l 183 979 l 183 361 q 497 46 183 46 q 731 125 651 46 q 810 361 810 204 l 810 979 l 826 979 q 942 1017 907 981 q 978 1138 978 1054 l 978 1156 l 1035 1156 m 283 1103 q 313 1201 283 1164 q 393 1238 342 1238 q 451 1225 424 1238 q 515 1189 479 1213 q 562 1163 543 1172 q 596 1154 581 1154 q 647 1178 628 1154 q 664 1233 665 1201 l 711 1233 q 682 1135 711 1172 q 601 1099 653 1099 q 543 1111 571 1099 q 479 1147 515 1124 q 433 1173 451 1164 q 399 1182 414 1182 q 348 1158 367 1182 q 331 1103 329 1135 l 283 1103 z "},"Ű":{"ha":993,"x_min":126,"x_max":868,"o":"m 497 -11 q 220 85 314 -11 q 126 371 126 182 l 126 979 l 183 979 l 183 361 q 497 46 183 46 q 731 125 651 46 q 810 361 810 204 l 810 979 l 868 979 l 868 371 q 774 85 868 182 q 497 -11 679 -11 m 403 1063 l 500 1269 l 575 1269 l 440 1063 l 403 1063 m 554 1063 l 651 1269 l 725 1269 l 592 1063 l 554 1063 z "},"Ȗ":{"ha":993,"x_min":126,"x_max":868,"o":"m 497 -11 q 220 85 314 -11 q 126 371 126 182 l 126 979 l 183 979 l 183 361 q 497 46 183 46 q 731 125 651 46 q 810 361 810 204 l 810 979 l 868 979 l 868 371 q 774 85 868 182 q 497 -11 679 -11 m 497 1253 q 624 1219 568 1253 q 711 1107 681 1185 l 656 1083 q 583 1172 619 1149 q 497 1196 547 1196 q 411 1172 447 1196 q 339 1083 375 1149 l 283 1107 q 497 1253 343 1253 z "},"Ū":{"ha":993,"x_min":126,"x_max":868,"o":"m 497 -11 q 220 85 314 -11 q 126 371 126 182 l 126 979 l 183 979 l 183 361 q 497 46 183 46 q 731 125 651 46 q 810 361 810 204 l 810 979 l 868 979 l 868 371 q 774 85 868 182 q 497 -11 679 -11 m 294 1197 l 700 1197 l 700 1139 l 294 1139 l 294 1197 z "},"Ṻ":{"ha":993,"x_min":126,"x_max":868,"o":"m 497 -11 q 220 85 314 -11 q 126 371 126 182 l 126 979 l 183 979 l 183 361 q 497 46 183 46 q 731 125 651 46 q 810 361 810 204 l 810 979 l 868 979 l 868 371 q 774 85 868 182 q 497 -11 679 -11 m 294 1197 l 700 1197 l 700 1139 l 294 1139 l 294 1197 m 428 1432 l 428 1349 l 343 1349 l 343 1432 l 428 1432 m 651 1432 l 651 1349 l 567 1349 l 567 1432 l 651 1432 z "},"Ų":{"ha":993,"x_min":126,"x_max":868,"o":"m 868 979 l 868 371 q 644 8 868 81 q 549 -42 578 -12 q 519 -117 519 -72 q 545 -186 519 -161 q 615 -211 571 -211 q 697 -185 647 -211 l 719 -232 q 613 -264 676 -264 q 501 -225 543 -264 q 458 -122 458 -186 q 511 -11 458 -51 l 497 -11 q 220 85 314 -11 q 126 371 126 182 l 126 979 l 183 979 l 183 361 q 497 46 183 46 q 731 125 651 46 q 810 361 810 204 l 810 979 l 868 979 z "},"Ů":{"ha":993,"x_min":126,"x_max":868,"o":"m 497 -11 q 220 85 314 -11 q 126 371 126 182 l 126 979 l 183 979 l 183 361 q 497 46 183 46 q 731 125 651 46 q 810 361 810 204 l 810 979 l 868 979 l 868 371 q 774 85 868 182 q 497 -11 679 -11 m 497 1056 q 402 1094 442 1056 q 363 1188 363 1132 q 402 1280 363 1242 q 497 1318 442 1318 q 592 1280 553 1318 q 632 1188 632 1242 q 592 1094 632 1132 q 497 1056 553 1056 m 497 1114 q 548 1135 528 1114 q 568 1188 568 1156 q 548 1239 568 1218 q 497 1260 528 1260 q 447 1239 467 1260 q 426 1188 426 1218 q 447 1135 426 1156 q 497 1114 467 1114 z "},"Ũ":{"ha":993,"x_min":126,"x_max":868,"o":"m 497 -11 q 220 85 314 -11 q 126 371 126 182 l 126 979 l 183 979 l 183 361 q 497 46 183 46 q 731 125 651 46 q 810 361 810 204 l 810 979 l 868 979 l 868 371 q 774 85 868 182 q 497 -11 679 -11 m 283 1103 q 313 1201 283 1164 q 393 1238 342 1238 q 451 1225 424 1238 q 515 1189 479 1213 q 562 1163 543 1172 q 596 1154 581 1154 q 647 1178 628 1154 q 664 1233 665 1201 l 711 1233 q 682 1135 711 1172 q 601 1099 653 1099 q 543 1111 571 1099 q 479 1147 515 1124 q 433 1173 451 1164 q 399 1182 414 1182 q 348 1158 367 1182 q 331 1103 329 1135 l 283 1103 z "},"Ṹ":{"ha":993,"x_min":126,"x_max":868,"o":"m 497 -11 q 220 85 314 -11 q 126 371 126 182 l 126 979 l 183 979 l 183 361 q 497 46 183 46 q 731 125 651 46 q 810 361 810 204 l 810 979 l 868 979 l 868 371 q 774 85 868 182 q 497 -11 679 -11 m 283 1103 q 313 1201 283 1164 q 393 1238 342 1238 q 451 1225 424 1238 q 515 1189 479 1213 q 562 1163 543 1172 q 596 1154 581 1154 q 647 1178 628 1154 q 664 1233 665 1201 l 711 1233 q 682 1135 711 1172 q 601 1099 653 1099 q 543 1111 571 1099 q 479 1147 515 1124 q 433 1173 451 1164 q 399 1182 414 1182 q 348 1158 367 1182 q 331 1103 329 1135 l 283 1103 m 472 1285 l 611 1492 l 694 1492 l 522 1285 l 472 1285 z "},"V":{"ha":931,"x_min":17,"x_max":915,"o":"m 915 979 l 493 0 l 436 0 l 17 979 l 76 979 l 465 74 l 854 979 l 915 979 z "},"W":{"ha":1518,"x_min":58,"x_max":1460,"o":"m 1460 979 l 1121 0 l 1067 0 l 758 886 l 450 0 l 397 0 l 58 979 l 115 979 l 424 83 l 733 979 l 783 978 l 1092 85 l 1401 979 l 1460 979 z "},"Ẃ":{"ha":1518,"x_min":58,"x_max":1460,"o":"m 1460 979 l 1121 0 l 1067 0 l 758 886 l 450 0 l 397 0 l 58 979 l 115 979 l 424 83 l 733 979 l 783 978 l 1092 85 l 1401 979 l 1460 979 m 733 1063 l 872 1269 l 956 1269 l 783 1063 l 733 1063 z "},"Ŵ":{"ha":1518,"x_min":58,"x_max":1460,"o":"m 1460 979 l 1121 0 l 1067 0 l 758 886 l 450 0 l 397 0 l 58 979 l 115 979 l 424 83 l 733 979 l 783 978 l 1092 85 l 1401 979 l 1460 979 m 578 1063 l 733 1269 l 783 1269 l 939 1063 l 868 1063 l 758 1219 l 649 1063 l 578 1063 z "},"Ẅ":{"ha":1518,"x_min":58,"x_max":1460,"o":"m 1460 979 l 1121 0 l 1067 0 l 758 886 l 450 0 l 397 0 l 58 979 l 115 979 l 424 83 l 733 979 l 783 978 l 1092 85 l 1401 979 l 1460 979 m 689 1210 l 689 1126 l 604 1126 l 604 1210 l 689 1210 m 913 1210 l 913 1126 l 828 1126 l 828 1210 l 913 1210 z "},"Ẁ":{"ha":1518,"x_min":58,"x_max":1460,"o":"m 1460 979 l 1121 0 l 1067 0 l 758 886 l 450 0 l 397 0 l 58 979 l 115 979 l 424 83 l 733 979 l 783 978 l 1092 85 l 1401 979 l 1460 979 m 561 1269 l 644 1269 l 783 1063 l 733 1063 l 561 1269 z "},"X":{"ha":875,"x_min":33,"x_max":842,"o":"m 842 0 l 774 0 l 439 458 l 103 0 l 33 0 l 406 504 l 56 979 l 124 979 l 440 549 l 754 979 l 821 979 l 472 501 l 842 0 z "},"Y":{"ha":807,"x_min":1,"x_max":804,"o":"m 432 475 l 432 0 l 374 0 l 374 476 l 1 979 l 69 979 l 404 525 l 739 979 l 804 979 l 432 475 z "},"Ý":{"ha":807,"x_min":1,"x_max":804,"o":"m 432 475 l 432 0 l 374 0 l 374 476 l 1 979 l 69 979 l 404 525 l 739 979 l 804 979 l 432 475 m 378 1063 l 517 1269 l 600 1269 l 428 1063 l 378 1063 z "},"Ŷ":{"ha":807,"x_min":1,"x_max":804,"o":"m 432 475 l 432 0 l 374 0 l 374 476 l 1 979 l 69 979 l 404 525 l 739 979 l 804 979 l 432 475 m 222 1063 l 378 1269 l 428 1269 l 583 1063 l 513 1063 l 403 1219 l 293 1063 l 222 1063 z "},"Ÿ":{"ha":807,"x_min":1,"x_max":804,"o":"m 432 475 l 432 0 l 374 0 l 374 476 l 1 979 l 69 979 l 404 525 l 739 979 l 804 979 l 432 475 m 333 1210 l 333 1126 l 249 1126 l 249 1210 l 333 1210 m 557 1210 l 557 1126 l 472 1126 l 472 1210 l 557 1210 z "},"Ẏ":{"ha":807,"x_min":1,"x_max":804,"o":"m 432 475 l 432 0 l 374 0 l 374 476 l 1 979 l 69 979 l 404 525 l 739 979 l 804 979 l 432 475 m 447 1211 l 447 1124 l 358 1124 l 358 1211 l 447 1211 z "},"Ỵ":{"ha":807,"x_min":1,"x_max":804,"o":"m 432 475 l 432 0 l 374 0 l 374 476 l 1 979 l 69 979 l 404 525 l 739 979 l 804 979 l 432 475 m 449 -151 l 449 -240 l 357 -240 l 357 -151 l 449 -151 z "},"Ỳ":{"ha":807,"x_min":1,"x_max":804,"o":"m 432 475 l 432 0 l 374 0 l 374 476 l 1 979 l 69 979 l 404 525 l 739 979 l 804 979 l 432 475 m 206 1269 l 289 1269 l 428 1063 l 378 1063 l 206 1269 z "},"Ỷ":{"ha":807,"x_min":1,"x_max":804,"o":"m 432 475 l 432 0 l 374 0 l 374 476 l 1 979 l 69 979 l 404 525 l 739 979 l 804 979 l 432 475 m 432 1063 l 375 1063 l 375 1083 q 390 1122 375 1108 q 432 1153 404 1136 q 460 1172 451 1164 q 469 1190 469 1179 q 453 1211 469 1204 q 407 1218 436 1218 q 319 1201 364 1218 l 303 1254 q 406 1276 353 1276 q 502 1253 468 1276 q 536 1188 536 1229 q 520 1147 536 1161 q 474 1115 504 1132 q 442 1096 451 1104 q 432 1075 432 1088 l 432 1063 z "},"Ȳ":{"ha":807,"x_min":1,"x_max":804,"o":"m 432 475 l 432 0 l 374 0 l 374 476 l 1 979 l 69 979 l 404 525 l 739 979 l 804 979 l 432 475 m 200 1197 l 606 1197 l 606 1139 l 200 1139 l 200 1197 z "},"Ỹ":{"ha":807,"x_min":1,"x_max":804,"o":"m 432 475 l 432 0 l 374 0 l 374 476 l 1 979 l 69 979 l 404 525 l 739 979 l 804 979 l 432 475 m 189 1103 q 218 1201 189 1164 q 299 1238 247 1238 q 357 1225 329 1238 q 421 1189 385 1213 q 467 1163 449 1172 q 501 1154 486 1154 q 552 1178 533 1154 q 569 1233 571 1201 l 617 1233 q 588 1135 617 1172 q 507 1099 558 1099 q 449 1111 476 1099 q 385 1147 421 1124 q 338 1173 357 1164 q 304 1182 319 1182 q 253 1158 272 1182 q 236 1103 235 1135 l 189 1103 z "},"Z":{"ha":804,"x_min":58,"x_max":751,"o":"m 751 0 l 92 0 l 90 -3 l 90 0 l 58 0 l 58 43 l 668 925 l 58 925 l 58 979 l 706 979 l 707 982 l 707 979 l 738 979 l 738 936 l 129 54 l 751 54 l 751 0 z "},"Ź":{"ha":804,"x_min":58,"x_max":751,"o":"m 751 0 l 92 0 l 90 -3 l 90 0 l 58 0 l 58 43 l 668 925 l 58 925 l 58 979 l 706 979 l 707 982 l 707 979 l 738 979 l 738 936 l 129 54 l 751 54 l 751 0 m 375 1063 l 514 1269 l 597 1269 l 425 1063 l 375 1063 z "},"Ž":{"ha":804,"x_min":58,"x_max":751,"o":"m 751 0 l 92 0 l 90 -3 l 90 0 l 58 0 l 58 43 l 668 925 l 58 925 l 58 979 l 706 979 l 707 982 l 707 979 l 738 979 l 738 936 l 129 54 l 751 54 l 751 0 m 581 1269 l 425 1063 l 375 1063 l 219 1269 l 290 1269 l 400 1113 l 510 1269 l 581 1269 z "},"Ż":{"ha":804,"x_min":58,"x_max":751,"o":"m 751 0 l 92 0 l 90 -3 l 90 0 l 58 0 l 58 43 l 668 925 l 58 925 l 58 979 l 706 979 l 707 982 l 707 979 l 738 979 l 738 936 l 129 54 l 751 54 l 751 0 m 444 1211 l 444 1124 l 356 1124 l 356 1211 l 444 1211 z "},"Ẓ":{"ha":804,"x_min":58,"x_max":751,"o":"m 751 0 l 92 0 l 90 -3 l 90 0 l 58 0 l 58 43 l 668 925 l 58 925 l 58 979 l 706 979 l 707 982 l 707 979 l 738 979 l 738 936 l 129 54 l 751 54 l 751 0 m 458 -151 l 458 -240 l 367 -240 l 367 -151 l 458 -151 z "},"a":{"ha":724,"x_min":96,"x_max":608,"o":"m 378 689 q 608 440 608 689 l 608 0 l 549 0 l 549 124 q 460 25 518 60 q 329 -10 403 -10 q 212 17 265 -10 q 127 90 158 43 q 96 192 96 136 q 135 308 96 267 q 266 367 175 349 q 521 385 357 385 l 549 385 l 549 443 q 510 587 549 542 q 386 632 471 632 q 266 615 321 632 q 151 558 211 597 l 124 608 q 242 667 175 646 q 378 689 310 689 m 329 49 q 442 78 392 49 q 520 161 492 108 q 549 281 549 214 l 549 331 l 522 331 q 300 319 376 331 q 193 278 224 307 q 163 194 163 250 q 210 90 163 131 q 329 49 257 49 z "},"á":{"ha":724,"x_min":96,"x_max":608,"o":"m 378 689 q 608 440 608 689 l 608 0 l 549 0 l 549 124 q 460 25 518 60 q 329 -10 403 -10 q 212 17 265 -10 q 127 90 158 43 q 96 192 96 136 q 135 308 96 267 q 266 367 175 349 q 521 385 357 385 l 549 385 l 549 443 q 510 587 549 542 q 386 632 471 632 q 266 615 321 632 q 151 558 211 597 l 124 608 q 242 667 175 646 q 378 689 310 689 m 329 49 q 442 78 392 49 q 520 161 492 108 q 549 281 549 214 l 549 331 l 522 331 q 300 319 376 331 q 193 278 224 307 q 163 194 163 250 q 210 90 163 131 q 329 49 257 49 m 351 763 l 490 1040 l 576 1040 l 401 763 l 351 763 z "},"ă":{"ha":724,"x_min":96,"x_max":608,"o":"m 378 689 q 608 440 608 689 l 608 0 l 549 0 l 549 124 q 460 25 518 60 q 329 -10 403 -10 q 212 17 265 -10 q 127 90 158 43 q 96 192 96 136 q 135 308 96 267 q 266 367 175 349 q 521 385 357 385 l 549 385 l 549 443 q 510 587 549 542 q 386 632 471 632 q 266 615 321 632 q 151 558 211 597 l 124 608 q 242 667 175 646 q 378 689 310 689 m 329 49 q 442 78 392 49 q 520 161 492 108 q 549 281 549 214 l 549 331 l 522 331 q 300 319 376 331 q 193 278 224 307 q 163 194 163 250 q 210 90 163 131 q 329 49 257 49 m 376 811 q 251 849 307 811 q 164 972 196 888 l 219 996 q 288 897 250 926 q 376 867 326 867 q 465 897 426 867 q 533 996 503 926 l 589 974 q 503 850 560 889 q 376 811 447 811 z "},"ắ":{"ha":724,"x_min":96,"x_max":608,"o":"m 378 689 q 608 440 608 689 l 608 0 l 549 0 l 549 124 q 460 25 518 60 q 329 -10 403 -10 q 212 17 265 -10 q 127 90 158 43 q 96 192 96 136 q 135 308 96 267 q 266 367 175 349 q 521 385 357 385 l 549 385 l 549 443 q 510 587 549 542 q 386 632 471 632 q 266 615 321 632 q 151 558 211 597 l 124 608 q 242 667 175 646 q 378 689 310 689 m 329 49 q 442 78 392 49 q 520 161 492 108 q 549 281 549 214 l 549 331 l 522 331 q 300 319 376 331 q 193 278 224 307 q 163 194 163 250 q 210 90 163 131 q 329 49 257 49 m 353 903 l 490 1100 l 575 1100 l 400 903 l 353 903 m 376 756 q 249 790 306 756 q 163 901 193 824 l 221 926 q 292 838 257 861 q 376 815 326 815 q 461 838 426 815 q 532 926 496 861 l 590 901 q 376 756 531 756 z "},"ặ":{"ha":724,"x_min":96,"x_max":608,"o":"m 378 689 q 608 440 608 689 l 608 0 l 549 0 l 549 124 q 460 25 518 60 q 329 -10 403 -10 q 212 17 265 -10 q 127 90 158 43 q 96 192 96 136 q 135 308 96 267 q 266 367 175 349 q 521 385 357 385 l 549 385 l 549 443 q 510 587 549 542 q 386 632 471 632 q 266 615 321 632 q 151 558 211 597 l 124 608 q 242 667 175 646 q 378 689 310 689 m 329 49 q 442 78 392 49 q 520 161 492 108 q 549 281 549 214 l 549 331 l 522 331 q 300 319 376 331 q 193 278 224 307 q 163 194 163 250 q 210 90 163 131 q 329 49 257 49 m 418 -151 l 418 -240 l 326 -240 l 326 -151 l 418 -151 m 376 811 q 251 849 307 811 q 164 972 196 888 l 219 996 q 288 897 250 926 q 376 867 326 867 q 465 897 426 867 q 533 996 503 926 l 589 974 q 503 850 560 889 q 376 811 447 811 z "},"ằ":{"ha":724,"x_min":96,"x_max":608,"o":"m 378 689 q 608 440 608 689 l 608 0 l 549 0 l 549 124 q 460 25 518 60 q 329 -10 403 -10 q 212 17 265 -10 q 127 90 158 43 q 96 192 96 136 q 135 308 96 267 q 266 367 175 349 q 521 385 357 385 l 549 385 l 549 443 q 510 587 549 542 q 386 632 471 632 q 266 615 321 632 q 151 558 211 597 l 124 608 q 242 667 175 646 q 378 689 310 689 m 329 49 q 442 78 392 49 q 520 161 492 108 q 549 281 549 214 l 549 331 l 522 331 q 300 319 376 331 q 193 278 224 307 q 163 194 163 250 q 210 90 163 131 q 329 49 257 49 m 178 1100 l 263 1100 l 400 903 l 353 903 l 178 1100 m 376 756 q 163 901 222 756 l 221 926 q 292 838 257 861 q 376 815 326 815 q 461 838 426 815 q 532 926 496 861 l 590 901 q 503 790 560 824 q 376 756 447 756 z "},"ẳ":{"ha":724,"x_min":96,"x_max":608,"o":"m 378 689 q 608 440 608 689 l 608 0 l 549 0 l 549 124 q 460 25 518 60 q 329 -10 403 -10 q 212 17 265 -10 q 127 90 158 43 q 96 192 96 136 q 135 308 96 267 q 266 367 175 349 q 521 385 357 385 l 549 385 l 549 443 q 510 587 549 542 q 386 632 471 632 q 266 615 321 632 q 151 558 211 597 l 124 608 q 242 667 175 646 q 378 689 310 689 m 329 49 q 442 78 392 49 q 520 161 492 108 q 549 281 549 214 l 549 331 l 522 331 q 300 319 376 331 q 193 278 224 307 q 163 194 163 250 q 210 90 163 131 q 329 49 257 49 m 406 903 l 349 903 l 349 924 q 363 960 349 947 q 404 985 378 974 q 434 1001 425 994 q 443 1019 443 1008 q 426 1040 443 1033 q 381 1047 410 1047 q 293 1031 338 1047 l 276 1083 q 379 1107 331 1107 q 475 1083 440 1107 q 510 1017 510 1058 q 494 980 510 993 q 450 954 479 967 q 417 936 428 944 q 406 915 406 928 l 406 903 m 376 756 q 163 901 222 756 l 221 926 q 292 838 257 861 q 376 815 326 815 q 461 838 426 815 q 532 926 496 861 l 590 901 q 503 790 560 824 q 376 756 447 756 z "},"ẵ":{"ha":724,"x_min":96,"x_max":608,"o":"m 378 689 q 608 440 608 689 l 608 0 l 549 0 l 549 124 q 460 25 518 60 q 329 -10 403 -10 q 212 17 265 -10 q 127 90 158 43 q 96 192 96 136 q 135 308 96 267 q 266 367 175 349 q 521 385 357 385 l 549 385 l 549 443 q 510 587 549 542 q 386 632 471 632 q 266 615 321 632 q 151 558 211 597 l 124 608 q 242 667 175 646 q 378 689 310 689 m 329 49 q 442 78 392 49 q 520 161 492 108 q 549 281 549 214 l 549 331 l 522 331 q 300 319 376 331 q 193 278 224 307 q 163 194 163 250 q 210 90 163 131 q 329 49 257 49 m 163 972 q 192 1075 163 1038 q 272 1113 221 1113 q 330 1100 303 1113 q 394 1063 357 1088 q 475 1026 449 1026 q 526 1051 507 1026 q 543 1108 544 1076 l 590 1108 q 561 1006 590 1043 q 481 968 532 968 q 423 981 450 968 q 358 1018 396 993 q 278 1054 304 1054 q 227 1029 246 1054 q 210 972 208 1004 l 163 972 m 376 756 q 163 901 222 756 l 221 926 q 292 838 257 861 q 376 815 326 815 q 461 838 426 815 q 532 926 496 861 l 590 901 q 503 790 560 824 q 376 756 447 756 z "},"ǎ":{"ha":724,"x_min":96,"x_max":608,"o":"m 378 689 q 608 440 608 689 l 608 0 l 549 0 l 549 124 q 460 25 518 60 q 329 -10 403 -10 q 212 17 265 -10 q 127 90 158 43 q 96 192 96 136 q 135 308 96 267 q 266 367 175 349 q 521 385 357 385 l 549 385 l 549 443 q 510 587 549 542 q 386 632 471 632 q 266 615 321 632 q 151 558 211 597 l 124 608 q 242 667 175 646 q 378 689 310 689 m 329 49 q 442 78 392 49 q 520 161 492 108 q 549 281 549 214 l 549 331 l 522 331 q 300 319 376 331 q 193 278 224 307 q 163 194 163 250 q 210 90 163 131 q 329 49 257 49 m 557 1040 l 403 763 l 350 763 l 196 1040 l 267 1040 l 376 821 l 486 1040 l 557 1040 z "},"â":{"ha":724,"x_min":96,"x_max":608,"o":"m 378 689 q 608 440 608 689 l 608 0 l 549 0 l 549 124 q 460 25 518 60 q 329 -10 403 -10 q 212 17 265 -10 q 127 90 158 43 q 96 192 96 136 q 135 308 96 267 q 266 367 175 349 q 521 385 357 385 l 549 385 l 549 443 q 510 587 549 542 q 386 632 471 632 q 266 615 321 632 q 151 558 211 597 l 124 608 q 242 667 175 646 q 378 689 310 689 m 329 49 q 442 78 392 49 q 520 161 492 108 q 549 281 549 214 l 549 331 l 522 331 q 300 319 376 331 q 193 278 224 307 q 163 194 163 250 q 210 90 163 131 q 329 49 257 49 m 196 763 l 350 1040 l 403 1040 l 557 763 l 486 763 l 376 982 l 267 763 l 196 763 z "},"ấ":{"ha":724,"x_min":96,"x_max":715,"o":"m 378 689 q 608 440 608 689 l 608 0 l 549 0 l 549 124 q 460 25 518 60 q 329 -10 403 -10 q 212 17 265 -10 q 127 90 158 43 q 96 192 96 136 q 135 308 96 267 q 266 367 175 349 q 521 385 357 385 l 549 385 l 549 443 q 510 587 549 542 q 386 632 471 632 q 266 615 321 632 q 151 558 211 597 l 124 608 q 242 667 175 646 q 378 689 310 689 m 329 49 q 442 78 392 49 q 520 161 492 108 q 549 281 549 214 l 549 331 l 522 331 q 300 319 376 331 q 193 278 224 307 q 163 194 163 250 q 210 90 163 131 q 329 49 257 49 m 486 903 l 629 1100 l 715 1100 l 536 903 l 486 903 m 196 763 l 351 974 l 401 974 l 557 763 l 486 763 l 376 922 l 267 763 l 196 763 z "},"ậ":{"ha":724,"x_min":96,"x_max":608,"o":"m 378 689 q 608 440 608 689 l 608 0 l 549 0 l 549 124 q 460 25 518 60 q 329 -10 403 -10 q 212 17 265 -10 q 127 90 158 43 q 96 192 96 136 q 135 308 96 267 q 266 367 175 349 q 521 385 357 385 l 549 385 l 549 443 q 510 587 549 542 q 386 632 471 632 q 266 615 321 632 q 151 558 211 597 l 124 608 q 242 667 175 646 q 378 689 310 689 m 329 49 q 442 78 392 49 q 520 161 492 108 q 549 281 549 214 l 549 331 l 522 331 q 300 319 376 331 q 193 278 224 307 q 163 194 163 250 q 210 90 163 131 q 329 49 257 49 m 418 -151 l 418 -240 l 326 -240 l 326 -151 l 418 -151 m 196 763 l 350 1040 l 403 1040 l 557 763 l 486 763 l 376 982 l 267 763 l 196 763 z "},"ầ":{"ha":724,"x_min":96,"x_max":608,"o":"m 378 689 q 608 440 608 689 l 608 0 l 549 0 l 549 124 q 460 25 518 60 q 329 -10 403 -10 q 212 17 265 -10 q 127 90 158 43 q 96 192 96 136 q 135 308 96 267 q 266 367 175 349 q 521 385 357 385 l 549 385 l 549 443 q 510 587 549 542 q 386 632 471 632 q 266 615 321 632 q 151 558 211 597 l 124 608 q 242 667 175 646 q 378 689 310 689 m 329 49 q 442 78 392 49 q 520 161 492 108 q 549 281 549 214 l 549 331 l 522 331 q 300 319 376 331 q 193 278 224 307 q 163 194 163 250 q 210 90 163 131 q 329 49 257 49 m 399 1100 l 485 1100 l 596 903 l 546 903 l 399 1100 m 196 763 l 351 974 l 401 974 l 557 763 l 486 763 l 376 922 l 267 763 l 196 763 z "},"ẩ":{"ha":724,"x_min":96,"x_max":647,"o":"m 378 689 q 608 440 608 689 l 608 0 l 549 0 l 549 124 q 460 25 518 60 q 329 -10 403 -10 q 212 17 265 -10 q 127 90 158 43 q 96 192 96 136 q 135 308 96 267 q 266 367 175 349 q 521 385 357 385 l 549 385 l 549 443 q 510 587 549 542 q 386 632 471 632 q 266 615 321 632 q 151 558 211 597 l 124 608 q 242 667 175 646 q 378 689 310 689 m 329 49 q 442 78 392 49 q 520 161 492 108 q 549 281 549 214 l 549 331 l 522 331 q 300 319 376 331 q 193 278 224 307 q 163 194 163 250 q 210 90 163 131 q 329 49 257 49 m 543 903 l 485 903 l 485 924 q 500 960 485 947 q 542 985 515 974 q 572 1001 563 994 q 581 1019 581 1008 q 563 1040 581 1033 q 517 1047 546 1047 q 431 1031 475 1047 l 414 1083 q 515 1107 468 1107 q 613 1083 578 1107 q 647 1017 647 1058 q 632 980 647 993 q 588 954 617 967 q 554 936 565 944 q 543 915 543 928 l 543 903 m 196 763 l 351 974 l 401 974 l 557 763 l 486 763 l 376 922 l 267 763 l 196 763 z "},"ẫ":{"ha":724,"x_min":96,"x_max":608,"o":"m 378 689 q 608 440 608 689 l 608 0 l 549 0 l 549 124 q 460 25 518 60 q 329 -10 403 -10 q 212 17 265 -10 q 127 90 158 43 q 96 192 96 136 q 135 308 96 267 q 266 367 175 349 q 521 385 357 385 l 549 385 l 549 443 q 510 587 549 542 q 386 632 471 632 q 266 615 321 632 q 151 558 211 597 l 124 608 q 242 667 175 646 q 378 689 310 689 m 329 49 q 442 78 392 49 q 520 161 492 108 q 549 281 549 214 l 549 331 l 522 331 q 300 319 376 331 q 193 278 224 307 q 163 194 163 250 q 210 90 163 131 q 329 49 257 49 m 163 992 q 192 1088 163 1051 q 272 1124 221 1124 q 329 1114 303 1124 q 394 1085 356 1104 q 438 1065 415 1074 q 475 1057 460 1057 q 526 1080 507 1057 q 543 1129 544 1103 l 590 1129 q 561 1033 590 1069 q 481 997 532 997 q 424 1007 450 997 q 358 1036 397 1017 q 312 1058 331 1050 q 278 1065 293 1065 q 227 1042 246 1065 q 210 992 208 1018 l 163 992 m 196 763 l 351 974 l 401 974 l 557 763 l 486 763 l 376 922 l 267 763 l 196 763 z "},"ȁ":{"ha":724,"x_min":96,"x_max":608,"o":"m 378 689 q 608 440 608 689 l 608 0 l 549 0 l 549 124 q 460 25 518 60 q 329 -10 403 -10 q 212 17 265 -10 q 127 90 158 43 q 96 192 96 136 q 135 308 96 267 q 266 367 175 349 q 521 385 357 385 l 549 385 l 549 443 q 510 587 549 542 q 386 632 471 632 q 266 615 321 632 q 151 558 211 597 l 124 608 q 242 667 175 646 q 378 689 310 689 m 329 49 q 442 78 392 49 q 520 161 492 108 q 549 281 549 214 l 549 331 l 522 331 q 300 319 376 331 q 193 278 224 307 q 163 194 163 250 q 210 90 163 131 q 329 49 257 49 m 169 1040 l 247 1040 l 319 763 l 281 763 l 169 1040 m 324 1040 l 400 1040 l 472 763 l 433 763 l 324 1040 z "},"ä":{"ha":724,"x_min":96,"x_max":608,"o":"m 378 689 q 608 440 608 689 l 608 0 l 549 0 l 549 124 q 460 25 518 60 q 329 -10 403 -10 q 212 17 265 -10 q 127 90 158 43 q 96 192 96 136 q 135 308 96 267 q 266 367 175 349 q 521 385 357 385 l 549 385 l 549 443 q 510 587 549 542 q 386 632 471 632 q 266 615 321 632 q 151 558 211 597 l 124 608 q 242 667 175 646 q 378 689 310 689 m 329 49 q 442 78 392 49 q 520 161 492 108 q 549 281 549 214 l 549 331 l 522 331 q 300 319 376 331 q 193 278 224 307 q 163 194 163 250 q 210 90 163 131 q 329 49 257 49 m 307 944 l 307 861 l 222 861 l 222 944 l 307 944 m 531 944 l 531 861 l 446 861 l 446 944 l 531 944 z "},"ȧ":{"ha":724,"x_min":96,"x_max":608,"o":"m 378 689 q 608 440 608 689 l 608 0 l 549 0 l 549 124 q 460 25 518 60 q 329 -10 403 -10 q 212 17 265 -10 q 127 90 158 43 q 96 192 96 136 q 135 308 96 267 q 266 367 175 349 q 521 385 357 385 l 549 385 l 549 443 q 510 587 549 542 q 386 632 471 632 q 266 615 321 632 q 151 558 211 597 l 124 608 q 242 667 175 646 q 378 689 310 689 m 329 49 q 442 78 392 49 q 520 161 492 108 q 549 281 549 214 l 549 331 l 522 331 q 300 319 376 331 q 193 278 224 307 q 163 194 163 250 q 210 90 163 131 q 329 49 257 49 m 421 947 l 421 860 l 332 860 l 332 947 l 421 947 z "},"ạ":{"ha":724,"x_min":96,"x_max":608,"o":"m 378 689 q 608 440 608 689 l 608 0 l 549 0 l 549 124 q 460 25 518 60 q 329 -10 403 -10 q 212 17 265 -10 q 127 90 158 43 q 96 192 96 136 q 135 308 96 267 q 266 367 175 349 q 521 385 357 385 l 549 385 l 549 443 q 510 587 549 542 q 386 632 471 632 q 266 615 321 632 q 151 558 211 597 l 124 608 q 242 667 175 646 q 378 689 310 689 m 329 49 q 442 78 392 49 q 520 161 492 108 q 549 281 549 214 l 549 331 l 522 331 q 300 319 376 331 q 193 278 224 307 q 163 194 163 250 q 210 90 163 131 q 329 49 257 49 m 418 -151 l 418 -240 l 326 -240 l 326 -151 l 418 -151 z "},"à":{"ha":724,"x_min":96,"x_max":608,"o":"m 378 689 q 608 440 608 689 l 608 0 l 549 0 l 549 124 q 460 25 518 60 q 329 -10 403 -10 q 212 17 265 -10 q 127 90 158 43 q 96 192 96 136 q 135 308 96 267 q 266 367 175 349 q 521 385 357 385 l 549 385 l 549 443 q 510 587 549 542 q 386 632 471 632 q 266 615 321 632 q 151 558 211 597 l 124 608 q 242 667 175 646 q 378 689 310 689 m 329 49 q 442 78 392 49 q 520 161 492 108 q 549 281 549 214 l 549 331 l 522 331 q 300 319 376 331 q 193 278 224 307 q 163 194 163 250 q 210 90 163 131 q 329 49 257 49 m 176 1040 l 263 1040 l 401 763 l 351 763 l 176 1040 z "},"ả":{"ha":724,"x_min":96,"x_max":608,"o":"m 378 689 q 608 440 608 689 l 608 0 l 549 0 l 549 124 q 460 25 518 60 q 329 -10 403 -10 q 212 17 265 -10 q 127 90 158 43 q 96 192 96 136 q 135 308 96 267 q 266 367 175 349 q 521 385 357 385 l 549 385 l 549 443 q 510 587 549 542 q 386 632 471 632 q 266 615 321 632 q 151 558 211 597 l 124 608 q 242 667 175 646 q 378 689 310 689 m 329 49 q 442 78 392 49 q 520 161 492 108 q 549 281 549 214 l 549 331 l 522 331 q 300 319 376 331 q 193 278 224 307 q 163 194 163 250 q 210 90 163 131 q 329 49 257 49 m 407 763 l 351 763 l 351 804 q 365 851 351 831 q 406 897 379 871 q 435 928 425 915 q 444 956 444 942 q 428 981 444 972 q 382 990 411 990 q 293 974 339 990 l 276 1024 q 383 1047 328 1047 q 476 1022 442 1047 q 510 957 510 997 q 497 907 510 925 q 456 865 483 889 q 419 826 431 843 q 407 783 407 810 l 407 763 z "},"ȃ":{"ha":724,"x_min":96,"x_max":608,"o":"m 378 689 q 608 440 608 689 l 608 0 l 549 0 l 549 124 q 460 25 518 60 q 329 -10 403 -10 q 212 17 265 -10 q 127 90 158 43 q 96 192 96 136 q 135 308 96 267 q 266 367 175 349 q 521 385 357 385 l 549 385 l 549 443 q 510 587 549 542 q 386 632 471 632 q 266 615 321 632 q 151 558 211 597 l 124 608 q 242 667 175 646 q 378 689 310 689 m 329 49 q 442 78 392 49 q 520 161 492 108 q 549 281 549 214 l 549 331 l 522 331 q 300 319 376 331 q 193 278 224 307 q 163 194 163 250 q 210 90 163 131 q 329 49 257 49 m 376 996 q 501 957 446 996 q 589 835 557 918 l 533 810 q 465 910 503 879 q 376 940 426 940 q 288 910 326 940 q 219 810 250 879 l 164 833 q 249 957 193 918 q 376 996 306 996 z "},"ā":{"ha":724,"x_min":96,"x_max":608,"o":"m 378 689 q 608 440 608 689 l 608 0 l 549 0 l 549 124 q 460 25 518 60 q 329 -10 403 -10 q 212 17 265 -10 q 127 90 158 43 q 96 192 96 136 q 135 308 96 267 q 266 367 175 349 q 521 385 357 385 l 549 385 l 549 443 q 510 587 549 542 q 386 632 471 632 q 266 615 321 632 q 151 558 211 597 l 124 608 q 242 667 175 646 q 378 689 310 689 m 329 49 q 442 78 392 49 q 520 161 492 108 q 549 281 549 214 l 549 331 l 522 331 q 300 319 376 331 q 193 278 224 307 q 163 194 163 250 q 210 90 163 131 q 329 49 257 49 m 174 933 l 579 933 l 579 874 l 174 874 l 174 933 z "},"ą":{"ha":724,"x_min":96,"x_max":675,"o":"m 675 -232 q 568 -264 632 -264 q 456 -225 499 -264 q 414 -122 414 -186 q 449 -21 414 -64 q 549 42 485 22 l 549 124 q 460 25 518 60 q 329 -10 403 -10 q 212 17 265 -10 q 127 90 158 43 q 96 192 96 136 q 135 308 96 267 q 266 367 175 349 q 521 385 357 385 l 549 385 l 549 443 q 510 587 549 542 q 386 632 471 632 q 266 615 321 632 q 151 558 211 597 l 124 608 q 242 667 175 646 q 378 689 310 689 q 608 440 608 689 l 608 0 l 604 0 q 511 -33 547 0 q 475 -117 475 -65 q 501 -186 475 -161 q 571 -211 526 -211 q 654 -185 601 -211 l 675 -232 m 329 49 q 442 78 392 49 q 520 161 492 108 q 549 281 549 214 l 549 331 l 522 331 q 300 319 376 331 q 193 278 224 307 q 163 194 163 250 q 210 90 163 131 q 329 49 257 49 z "},"å":{"ha":724,"x_min":96,"x_max":608,"o":"m 378 689 q 608 440 608 689 l 608 0 l 549 0 l 549 124 q 460 25 518 60 q 329 -10 403 -10 q 212 17 265 -10 q 127 90 158 43 q 96 192 96 136 q 135 308 96 267 q 266 367 175 349 q 521 385 357 385 l 549 385 l 549 443 q 510 587 549 542 q 386 632 471 632 q 266 615 321 632 q 151 558 211 597 l 124 608 q 242 667 175 646 q 378 689 310 689 m 329 49 q 442 78 392 49 q 520 161 492 108 q 549 281 549 214 l 549 331 l 522 331 q 300 319 376 331 q 193 278 224 307 q 163 194 163 250 q 210 90 163 131 q 329 49 257 49 m 376 769 q 281 808 321 769 q 242 901 242 846 q 281 995 242 957 q 376 1033 321 1033 q 472 995 432 1033 q 511 901 511 957 q 472 808 511 846 q 376 769 432 769 m 376 828 q 427 849 407 828 q 447 901 447 871 q 427 954 447 933 q 376 975 407 975 q 326 954 346 975 q 306 901 306 933 q 326 849 306 871 q 376 828 346 828 z "},"ǻ":{"ha":724,"x_min":96,"x_max":650,"o":"m 376 772 q 282 810 321 772 q 243 903 243 847 q 282 997 243 958 q 376 1035 321 1035 q 456 1010 419 1035 l 567 1176 l 650 1176 l 486 979 q 511 903 511 943 q 472 810 511 849 q 376 772 432 772 m 376 976 q 326 956 346 976 q 306 903 306 935 q 326 851 306 872 q 376 829 346 829 q 427 851 407 829 q 447 903 447 872 q 427 956 447 935 q 376 976 407 976 m 378 689 q 608 440 608 689 l 608 0 l 549 0 l 549 124 q 460 25 518 60 q 329 -10 403 -10 q 212 17 265 -10 q 127 90 158 43 q 96 192 96 136 q 135 308 96 267 q 266 367 175 349 q 521 385 357 385 l 549 385 l 549 443 q 510 587 549 542 q 386 632 471 632 q 266 615 321 632 q 151 558 211 597 l 124 608 q 242 667 175 646 q 378 689 310 689 m 329 49 q 442 78 392 49 q 520 161 492 108 q 549 281 549 214 l 549 331 l 522 331 q 300 319 376 331 q 193 278 224 307 q 163 194 163 250 q 210 90 163 131 q 329 49 257 49 z "},"ã":{"ha":724,"x_min":96,"x_max":608,"o":"m 378 689 q 608 440 608 689 l 608 0 l 549 0 l 549 124 q 460 25 518 60 q 329 -10 403 -10 q 212 17 265 -10 q 127 90 158 43 q 96 192 96 136 q 135 308 96 267 q 266 367 175 349 q 521 385 357 385 l 549 385 l 549 443 q 510 587 549 542 q 386 632 471 632 q 266 615 321 632 q 151 558 211 597 l 124 608 q 242 667 175 646 q 378 689 310 689 m 329 49 q 442 78 392 49 q 520 161 492 108 q 549 281 549 214 l 549 331 l 522 331 q 300 319 376 331 q 193 278 224 307 q 163 194 163 250 q 210 90 163 131 q 329 49 257 49 m 163 839 q 192 935 163 899 q 272 972 221 972 q 330 960 303 972 q 394 925 357 949 q 441 899 422 908 q 475 890 460 890 q 526 914 507 890 q 543 968 544 938 l 590 968 q 561 872 590 908 q 481 835 532 835 q 422 847 450 835 q 358 883 394 860 q 312 909 331 900 q 278 918 293 918 q 227 894 246 918 q 210 839 208 871 l 163 839 z "},"æ":{"ha":1197,"x_min":96,"x_max":1128,"o":"m 1128 331 l 617 331 q 685 121 618 194 q 871 47 751 47 q 1089 135 983 47 l 1117 85 q 1007 17 1075 43 q 872 -10 939 -10 q 693 42 767 -10 q 586 189 619 93 q 497 43 563 96 q 335 -10 432 -10 q 213 17 268 -10 q 127 89 158 43 q 96 192 96 135 q 135 308 96 267 q 268 367 175 350 q 528 385 361 385 l 556 385 l 556 436 q 516 585 556 539 q 388 632 476 632 q 270 614 326 632 q 151 558 214 596 l 124 608 q 244 667 175 646 q 381 689 313 689 q 606 540 564 689 q 708 650 643 611 q 857 689 774 689 q 1056 603 985 689 q 1128 364 1128 518 l 1128 331 m 857 635 q 692 568 756 635 q 618 385 629 501 l 1071 385 q 1013 570 1068 506 q 857 635 957 635 m 336 49 q 450 79 400 49 q 528 165 500 110 q 556 290 556 219 l 556 331 l 529 331 q 303 319 381 331 q 194 278 226 307 q 163 194 163 250 q 211 90 163 131 q 336 49 260 49 z "},"ǽ":{"ha":1197,"x_min":96,"x_max":1128,"o":"m 1128 331 l 617 331 q 685 121 618 194 q 871 47 751 47 q 1089 135 983 47 l 1117 85 q 1007 17 1075 43 q 872 -10 939 -10 q 693 42 767 -10 q 586 189 619 93 q 497 43 563 96 q 335 -10 432 -10 q 213 17 268 -10 q 127 89 158 43 q 96 192 96 135 q 135 308 96 267 q 268 367 175 350 q 528 385 361 385 l 556 385 l 556 436 q 516 585 556 539 q 388 632 476 632 q 270 614 326 632 q 151 558 214 596 l 124 608 q 244 667 175 646 q 381 689 313 689 q 606 540 564 689 q 708 650 643 611 q 857 689 774 689 q 1056 603 985 689 q 1128 364 1128 518 l 1128 331 m 857 635 q 692 568 756 635 q 618 385 629 501 l 1071 385 q 1013 570 1068 506 q 857 635 957 635 m 336 49 q 450 79 400 49 q 528 165 500 110 q 556 290 556 219 l 556 331 l 529 331 q 303 319 381 331 q 194 278 226 307 q 163 194 163 250 q 211 90 163 131 q 336 49 260 49 m 563 763 l 701 1040 l 788 1040 l 613 763 l 563 763 z "},"b":{"ha":785,"x_min":118,"x_max":713,"o":"m 413 689 q 569 646 501 689 q 675 525 638 603 q 713 343 713 447 q 675 158 713 238 q 569 34 638 78 q 413 -10 501 -10 q 267 28 328 -10 q 176 136 207 65 l 176 0 l 118 0 l 118 979 l 176 979 l 176 544 q 267 651 207 614 q 413 689 328 689 m 413 47 q 586 125 524 47 q 649 343 649 203 q 586 556 649 481 q 411 632 524 632 q 238 556 299 632 q 176 340 176 479 q 238 124 176 200 q 413 47 299 47 z "},"c":{"ha":653,"x_min":72,"x_max":611,"o":"m 381 -10 q 218 33 288 -10 q 110 156 149 76 q 72 338 72 235 q 110 522 72 442 q 219 645 149 601 q 382 689 289 689 q 511 665 450 689 q 611 599 572 640 l 583 549 q 483 613 531 593 q 383 633 436 633 q 201 554 268 633 q 135 336 135 475 q 201 124 135 200 q 382 47 267 47 q 483 67 435 47 q 583 131 531 86 l 611 82 q 508 15 571 39 q 381 -10 446 -10 z "},"ć":{"ha":653,"x_min":72,"x_max":611,"o":"m 381 -10 q 218 33 288 -10 q 110 156 149 76 q 72 338 72 235 q 110 522 72 442 q 219 645 149 601 q 382 689 289 689 q 511 665 450 689 q 611 599 572 640 l 583 549 q 483 613 531 593 q 383 633 436 633 q 201 554 268 633 q 135 336 135 475 q 201 124 135 200 q 382 47 267 47 q 483 67 435 47 q 583 131 531 86 l 611 82 q 508 15 571 39 q 381 -10 446 -10 m 354 763 l 493 1040 l 579 1040 l 404 763 l 354 763 z "},"č":{"ha":653,"x_min":72,"x_max":611,"o":"m 381 -10 q 218 33 288 -10 q 110 156 149 76 q 72 338 72 235 q 110 522 72 442 q 219 645 149 601 q 382 689 289 689 q 511 665 450 689 q 611 599 572 640 l 583 549 q 483 613 531 593 q 383 633 436 633 q 201 554 268 633 q 135 336 135 475 q 201 124 135 200 q 382 47 267 47 q 483 67 435 47 q 583 131 531 86 l 611 82 q 508 15 571 39 q 381 -10 446 -10 m 560 1040 l 406 763 l 353 763 l 199 1040 l 269 1040 l 379 821 l 489 1040 l 560 1040 z "},"ç":{"ha":653,"x_min":72,"x_max":611,"o":"m 382 47 q 483 67 435 47 q 583 131 531 86 l 611 82 q 515 17 574 42 q 393 -10 457 -7 l 389 -62 q 431 -57 406 -57 q 501 -81 471 -57 q 531 -153 531 -104 q 492 -233 531 -201 q 385 -264 453 -264 q 323 -258 356 -264 q 267 -237 290 -251 l 286 -190 q 388 -210 331 -210 q 451 -194 429 -210 q 472 -153 472 -179 q 459 -121 472 -132 q 421 -110 446 -110 q 351 -125 392 -110 l 325 -106 l 335 -7 q 143 101 214 8 q 72 338 72 194 q 110 522 72 442 q 219 645 149 601 q 382 689 289 689 q 511 665 450 689 q 611 599 572 640 l 583 549 q 483 613 531 593 q 383 633 436 633 q 201 554 268 633 q 135 336 135 475 q 201 124 135 200 q 382 47 267 47 z "},"ḉ":{"ha":653,"x_min":72,"x_max":611,"o":"m 404 763 l 354 763 l 493 1040 l 579 1040 l 404 763 m 382 47 q 483 67 435 47 q 583 131 531 86 l 611 82 q 515 17 574 42 q 393 -10 457 -7 l 389 -62 q 431 -57 406 -57 q 501 -81 471 -57 q 531 -153 531 -104 q 492 -233 531 -201 q 385 -264 453 -264 q 323 -258 356 -264 q 267 -237 290 -251 l 286 -190 q 388 -210 331 -210 q 451 -194 429 -210 q 472 -153 472 -179 q 459 -121 472 -132 q 421 -110 446 -110 q 351 -125 392 -110 l 325 -106 l 335 -7 q 143 101 214 8 q 72 338 72 194 q 110 522 72 442 q 219 645 149 601 q 382 689 289 689 q 511 665 450 689 q 611 599 572 640 l 583 549 q 483 613 531 593 q 383 633 436 633 q 201 554 268 633 q 135 336 135 475 q 201 124 135 200 q 382 47 267 47 z "},"ĉ":{"ha":653,"x_min":72,"x_max":611,"o":"m 381 -10 q 218 33 288 -10 q 110 156 149 76 q 72 338 72 235 q 110 522 72 442 q 219 645 149 601 q 382 689 289 689 q 511 665 450 689 q 611 599 572 640 l 583 549 q 483 613 531 593 q 383 633 436 633 q 201 554 268 633 q 135 336 135 475 q 201 124 135 200 q 382 47 267 47 q 483 67 435 47 q 583 131 531 86 l 611 82 q 508 15 571 39 q 381 -10 446 -10 m 199 763 l 353 1040 l 406 1040 l 560 763 l 489 763 l 379 982 l 269 763 l 199 763 z "},"ċ":{"ha":653,"x_min":72,"x_max":611,"o":"m 381 -10 q 218 33 288 -10 q 110 156 149 76 q 72 338 72 235 q 110 522 72 442 q 219 645 149 601 q 382 689 289 689 q 511 665 450 689 q 611 599 572 640 l 583 549 q 483 613 531 593 q 383 633 436 633 q 201 554 268 633 q 135 336 135 475 q 201 124 135 200 q 382 47 267 47 q 483 67 435 47 q 583 131 531 86 l 611 82 q 508 15 571 39 q 381 -10 446 -10 m 424 947 l 424 860 l 335 860 l 335 947 l 424 947 z "},"d":{"ha":785,"x_min":72,"x_max":667,"o":"m 667 979 l 667 0 l 608 0 l 608 136 q 517 28 578 65 q 372 -10 457 -10 q 215 34 283 -10 q 110 158 147 78 q 72 343 72 238 q 110 525 72 447 q 215 646 147 603 q 372 689 283 689 q 517 651 457 689 q 608 544 578 614 l 608 979 l 667 979 m 372 47 q 547 124 486 47 q 608 340 608 200 q 547 556 608 479 q 374 632 486 632 q 198 556 261 632 q 135 343 135 481 q 198 126 135 204 q 372 47 261 47 z "},"ð":{"ha":749,"x_min":72,"x_max":676,"o":"m 521 822 q 676 392 676 663 q 599 92 676 193 q 372 -10 522 -10 q 214 30 282 -10 q 109 142 146 69 q 72 311 72 215 q 110 480 72 407 q 217 592 147 553 q 376 632 286 632 q 611 507 539 632 q 468 800 586 685 l 256 711 l 235 761 l 421 840 q 225 938 336 903 l 242 986 q 476 863 386 939 l 654 938 l 674 886 l 521 822 m 371 47 q 546 117 482 47 q 610 311 610 188 q 547 505 610 435 q 372 575 483 575 q 198 505 261 575 q 135 311 135 435 q 197 116 135 185 q 371 47 258 47 z "},"ď":{"ha":785,"x_min":72,"x_max":797,"o":"m 608 979 l 667 979 l 667 0 l 608 0 l 608 136 q 517 28 578 65 q 372 -10 457 -10 q 215 34 283 -10 q 110 158 147 78 q 72 343 72 238 q 110 525 72 447 q 215 646 147 603 q 372 689 283 689 q 517 651 457 689 q 608 544 578 614 l 608 979 m 797 979 l 761 718 l 718 718 l 718 979 l 797 979 m 372 47 q 547 124 486 47 q 608 340 608 200 q 547 556 608 479 q 374 632 486 632 q 198 556 261 632 q 135 343 135 481 q 198 126 135 204 q 372 47 261 47 z "},"đ":{"ha":785,"x_min":72,"x_max":800,"o":"m 800 788 l 667 788 l 667 0 l 608 0 l 608 136 q 517 28 578 65 q 372 -10 457 -10 q 215 34 283 -10 q 110 158 147 78 q 72 343 72 238 q 110 525 72 447 q 215 646 147 603 q 372 689 283 689 q 517 651 457 689 q 608 544 578 614 l 608 788 l 336 788 l 336 839 l 608 839 l 608 979 l 667 979 l 667 839 l 800 839 l 800 788 m 372 47 q 547 124 486 47 q 608 340 608 200 q 547 556 608 479 q 374 632 486 632 q 198 556 261 632 q 135 343 135 481 q 198 126 135 204 q 372 47 261 47 z "},"ḍ":{"ha":785,"x_min":72,"x_max":667,"o":"m 667 979 l 667 0 l 608 0 l 608 136 q 517 28 578 65 q 372 -10 457 -10 q 215 34 283 -10 q 110 158 147 78 q 72 343 72 238 q 110 525 72 447 q 215 646 147 603 q 372 689 283 689 q 517 651 457 689 q 608 544 578 614 l 608 979 l 667 979 m 372 47 q 547 124 486 47 q 608 340 608 200 q 547 556 608 479 q 374 632 486 632 q 198 556 261 632 q 135 343 135 481 q 198 126 135 204 q 372 47 261 47 m 442 -151 l 442 -240 l 350 -240 l 350 -151 l 442 -151 z "},"ḏ":{"ha":785,"x_min":72,"x_max":667,"o":"m 667 979 l 667 0 l 608 0 l 608 136 q 517 28 578 65 q 372 -10 457 -10 q 215 34 283 -10 q 110 158 147 78 q 72 343 72 238 q 110 525 72 447 q 215 646 147 603 q 372 689 283 689 q 517 651 457 689 q 608 544 578 614 l 608 979 l 667 979 m 372 47 q 547 124 486 47 q 608 340 608 200 q 547 556 608 479 q 374 632 486 632 q 198 556 261 632 q 135 343 135 481 q 198 126 135 204 q 372 47 261 47 m 193 -165 l 599 -165 l 599 -225 l 193 -225 l 193 -165 z "},"ǆ":{"ha":1474,"x_min":72,"x_max":1410,"o":"m 667 979 l 667 0 l 608 0 l 608 136 q 517 28 578 65 q 372 -10 457 -10 q 215 34 283 -10 q 110 158 147 78 q 72 343 72 238 q 110 525 72 447 q 215 646 147 603 q 372 689 283 689 q 517 651 457 689 q 608 544 578 614 l 608 979 l 667 979 m 372 47 q 547 124 486 47 q 608 340 608 200 q 547 556 608 479 q 374 632 486 632 q 198 556 261 632 q 135 343 135 481 q 198 126 135 204 q 372 47 261 47 m 1410 51 l 1410 0 l 853 0 l 853 40 l 1319 622 l 874 622 l 874 672 l 1393 672 l 1393 625 l 933 51 l 1410 51 m 1313 1040 l 1158 763 l 1106 763 l 951 1040 l 1022 1040 l 1132 821 l 1242 1040 l 1313 1040 z "},"e":{"ha":728,"x_min":72,"x_max":658,"o":"m 658 331 l 136 331 q 205 121 139 194 q 393 47 271 47 q 510 68 456 47 q 619 135 565 89 l 647 85 q 536 16 604 42 q 396 -10 468 -10 q 159 83 246 -10 q 72 339 72 176 q 111 522 72 443 q 221 645 150 601 q 383 689 292 689 q 586 604 514 689 q 658 367 658 519 l 658 331 m 383 635 q 213 569 278 635 q 138 385 149 503 l 603 385 q 543 570 600 506 q 383 635 486 635 z "},"é":{"ha":728,"x_min":72,"x_max":658,"o":"m 658 331 l 136 331 q 205 121 139 194 q 393 47 271 47 q 510 68 456 47 q 619 135 565 89 l 647 85 q 536 16 604 42 q 396 -10 468 -10 q 159 83 246 -10 q 72 339 72 176 q 111 522 72 443 q 221 645 150 601 q 383 689 292 689 q 586 604 514 689 q 658 367 658 519 l 658 331 m 383 635 q 213 569 278 635 q 138 385 149 503 l 603 385 q 543 570 600 506 q 383 635 486 635 m 358 763 l 497 1040 l 583 1040 l 408 763 l 358 763 z "},"ĕ":{"ha":728,"x_min":72,"x_max":658,"o":"m 658 331 l 136 331 q 205 121 139 194 q 393 47 271 47 q 510 68 456 47 q 619 135 565 89 l 647 85 q 536 16 604 42 q 396 -10 468 -10 q 159 83 246 -10 q 72 339 72 176 q 111 522 72 443 q 221 645 150 601 q 383 689 292 689 q 586 604 514 689 q 658 367 658 519 l 658 331 m 383 635 q 213 569 278 635 q 138 385 149 503 l 603 385 q 543 570 600 506 q 383 635 486 635 m 383 811 q 258 849 314 811 q 171 972 203 888 l 226 996 q 295 897 257 926 q 383 867 333 867 q 472 897 433 867 q 540 996 510 926 l 596 974 q 510 850 567 889 q 383 811 454 811 z "},"ě":{"ha":728,"x_min":72,"x_max":658,"o":"m 658 331 l 136 331 q 205 121 139 194 q 393 47 271 47 q 510 68 456 47 q 619 135 565 89 l 647 85 q 536 16 604 42 q 396 -10 468 -10 q 159 83 246 -10 q 72 339 72 176 q 111 522 72 443 q 221 645 150 601 q 383 689 292 689 q 586 604 514 689 q 658 367 658 519 l 658 331 m 383 635 q 213 569 278 635 q 138 385 149 503 l 603 385 q 543 570 600 506 q 383 635 486 635 m 564 1040 l 410 763 l 357 763 l 203 1040 l 274 1040 l 383 821 l 493 1040 l 564 1040 z "},"ḝ":{"ha":728,"x_min":72,"x_max":658,"o":"m 383 811 q 258 849 314 811 q 171 972 203 888 l 226 996 q 295 897 257 926 q 383 867 333 867 q 472 897 433 867 q 540 996 510 926 l 596 974 q 510 850 567 889 q 383 811 454 811 m 658 331 l 136 331 q 205 121 139 194 q 393 47 271 47 q 510 68 456 47 q 619 135 565 89 l 647 85 q 545 19 608 44 q 414 -10 482 -7 l 410 -62 q 451 -57 426 -57 q 522 -81 492 -57 q 551 -153 551 -104 q 513 -233 551 -201 q 406 -264 474 -264 q 344 -258 376 -264 q 288 -237 311 -251 l 307 -190 q 408 -210 351 -210 q 472 -194 450 -210 q 493 -153 493 -179 q 480 -121 493 -132 q 442 -110 467 -110 q 372 -125 413 -110 l 346 -106 l 356 -8 q 147 96 222 4 q 72 339 72 188 q 111 522 72 443 q 221 645 150 601 q 383 689 292 689 q 586 604 514 689 q 658 367 658 519 l 658 331 m 383 635 q 213 569 278 635 q 138 385 149 503 l 603 385 q 543 570 600 506 q 383 635 486 635 z "},"ê":{"ha":728,"x_min":72,"x_max":658,"o":"m 658 331 l 136 331 q 205 121 139 194 q 393 47 271 47 q 510 68 456 47 q 619 135 565 89 l 647 85 q 536 16 604 42 q 396 -10 468 -10 q 159 83 246 -10 q 72 339 72 176 q 111 522 72 443 q 221 645 150 601 q 383 689 292 689 q 586 604 514 689 q 658 367 658 519 l 658 331 m 383 635 q 213 569 278 635 q 138 385 149 503 l 603 385 q 543 570 600 506 q 383 635 486 635 m 203 763 l 357 1040 l 410 1040 l 564 763 l 493 763 l 383 982 l 274 763 l 203 763 z "},"ế":{"ha":728,"x_min":72,"x_max":722,"o":"m 658 331 l 136 331 q 205 121 139 194 q 393 47 271 47 q 510 68 456 47 q 619 135 565 89 l 647 85 q 536 16 604 42 q 396 -10 468 -10 q 159 83 246 -10 q 72 339 72 176 q 111 522 72 443 q 221 645 150 601 q 383 689 292 689 q 586 604 514 689 q 658 367 658 519 l 658 331 m 383 635 q 213 569 278 635 q 138 385 149 503 l 603 385 q 543 570 600 506 q 383 635 486 635 m 493 903 l 636 1100 l 722 1100 l 543 903 l 493 903 m 203 763 l 358 974 l 408 974 l 564 763 l 493 763 l 383 922 l 274 763 l 203 763 z "},"ệ":{"ha":728,"x_min":72,"x_max":658,"o":"m 658 331 l 136 331 q 205 121 139 194 q 393 47 271 47 q 510 68 456 47 q 619 135 565 89 l 647 85 q 536 16 604 42 q 396 -10 468 -10 q 159 83 246 -10 q 72 339 72 176 q 111 522 72 443 q 221 645 150 601 q 383 689 292 689 q 586 604 514 689 q 658 367 658 519 l 658 331 m 383 635 q 213 569 278 635 q 138 385 149 503 l 603 385 q 543 570 600 506 q 383 635 486 635 m 443 -151 l 443 -240 l 351 -240 l 351 -151 l 443 -151 m 203 763 l 357 1040 l 410 1040 l 564 763 l 493 763 l 383 982 l 274 763 l 203 763 z "},"ề":{"ha":728,"x_min":72,"x_max":658,"o":"m 658 331 l 136 331 q 205 121 139 194 q 393 47 271 47 q 510 68 456 47 q 619 135 565 89 l 647 85 q 536 16 604 42 q 396 -10 468 -10 q 159 83 246 -10 q 72 339 72 176 q 111 522 72 443 q 221 645 150 601 q 383 689 292 689 q 586 604 514 689 q 658 367 658 519 l 658 331 m 383 635 q 213 569 278 635 q 138 385 149 503 l 603 385 q 543 570 600 506 q 383 635 486 635 m 406 1100 l 492 1100 l 603 903 l 553 903 l 406 1100 m 203 763 l 358 974 l 408 974 l 564 763 l 493 763 l 383 922 l 274 763 l 203 763 z "},"ể":{"ha":728,"x_min":72,"x_max":658,"o":"m 658 331 l 136 331 q 205 121 139 194 q 393 47 271 47 q 510 68 456 47 q 619 135 565 89 l 647 85 q 536 16 604 42 q 396 -10 468 -10 q 159 83 246 -10 q 72 339 72 176 q 111 522 72 443 q 221 645 150 601 q 383 689 292 689 q 586 604 514 689 q 658 367 658 519 l 658 331 m 383 635 q 213 569 278 635 q 138 385 149 503 l 603 385 q 543 570 600 506 q 383 635 486 635 m 550 903 l 492 903 l 492 924 q 507 960 492 947 q 549 985 522 974 q 578 1001 569 994 q 588 1019 588 1008 q 570 1040 588 1033 q 524 1047 553 1047 q 438 1031 482 1047 l 421 1083 q 522 1107 475 1107 q 619 1083 585 1107 q 654 1017 654 1058 q 639 980 654 993 q 594 954 624 967 q 561 936 572 944 q 550 915 550 928 l 550 903 m 203 763 l 358 974 l 408 974 l 564 763 l 493 763 l 383 922 l 274 763 l 203 763 z "},"ễ":{"ha":728,"x_min":72,"x_max":658,"o":"m 658 331 l 136 331 q 205 121 139 194 q 393 47 271 47 q 510 68 456 47 q 619 135 565 89 l 647 85 q 536 16 604 42 q 396 -10 468 -10 q 159 83 246 -10 q 72 339 72 176 q 111 522 72 443 q 221 645 150 601 q 383 689 292 689 q 586 604 514 689 q 658 367 658 519 l 658 331 m 383 635 q 213 569 278 635 q 138 385 149 503 l 603 385 q 543 570 600 506 q 383 635 486 635 m 169 992 q 199 1088 169 1051 q 279 1124 228 1124 q 336 1114 310 1124 q 401 1085 363 1104 q 444 1065 422 1074 q 482 1057 467 1057 q 533 1080 514 1057 q 550 1129 551 1103 l 597 1129 q 568 1033 597 1069 q 488 997 539 997 q 431 1007 457 997 q 365 1036 404 1017 q 319 1058 338 1050 q 285 1065 300 1065 q 234 1042 253 1065 q 217 992 215 1018 l 169 992 m 203 763 l 358 974 l 408 974 l 564 763 l 493 763 l 383 922 l 274 763 l 203 763 z "},"ȅ":{"ha":728,"x_min":72,"x_max":658,"o":"m 658 331 l 136 331 q 205 121 139 194 q 393 47 271 47 q 510 68 456 47 q 619 135 565 89 l 647 85 q 536 16 604 42 q 396 -10 468 -10 q 159 83 246 -10 q 72 339 72 176 q 111 522 72 443 q 221 645 150 601 q 383 689 292 689 q 586 604 514 689 q 658 367 658 519 l 658 331 m 383 635 q 213 569 278 635 q 138 385 149 503 l 603 385 q 543 570 600 506 q 383 635 486 635 m 176 1040 l 254 1040 l 326 763 l 288 763 l 176 1040 m 331 1040 l 407 1040 l 479 763 l 440 763 l 331 1040 z "},"ë":{"ha":728,"x_min":72,"x_max":658,"o":"m 658 331 l 136 331 q 205 121 139 194 q 393 47 271 47 q 510 68 456 47 q 619 135 565 89 l 647 85 q 536 16 604 42 q 396 -10 468 -10 q 159 83 246 -10 q 72 339 72 176 q 111 522 72 443 q 221 645 150 601 q 383 689 292 689 q 586 604 514 689 q 658 367 658 519 l 658 331 m 383 635 q 213 569 278 635 q 138 385 149 503 l 603 385 q 543 570 600 506 q 383 635 486 635 m 314 944 l 314 861 l 229 861 l 229 944 l 314 944 m 538 944 l 538 861 l 453 861 l 453 944 l 538 944 z "},"ė":{"ha":728,"x_min":72,"x_max":658,"o":"m 658 331 l 136 331 q 205 121 139 194 q 393 47 271 47 q 510 68 456 47 q 619 135 565 89 l 647 85 q 536 16 604 42 q 396 -10 468 -10 q 159 83 246 -10 q 72 339 72 176 q 111 522 72 443 q 221 645 150 601 q 383 689 292 689 q 586 604 514 689 q 658 367 658 519 l 658 331 m 383 635 q 213 569 278 635 q 138 385 149 503 l 603 385 q 543 570 600 506 q 383 635 486 635 m 428 947 l 428 860 l 339 860 l 339 947 l 428 947 z "},"ẹ":{"ha":728,"x_min":72,"x_max":658,"o":"m 658 331 l 136 331 q 205 121 139 194 q 393 47 271 47 q 510 68 456 47 q 619 135 565 89 l 647 85 q 536 16 604 42 q 396 -10 468 -10 q 159 83 246 -10 q 72 339 72 176 q 111 522 72 443 q 221 645 150 601 q 383 689 292 689 q 586 604 514 689 q 658 367 658 519 l 658 331 m 383 635 q 213 569 278 635 q 138 385 149 503 l 603 385 q 543 570 600 506 q 383 635 486 635 m 443 -151 l 443 -240 l 351 -240 l 351 -151 l 443 -151 z "},"è":{"ha":728,"x_min":72,"x_max":658,"o":"m 658 331 l 136 331 q 205 121 139 194 q 393 47 271 47 q 510 68 456 47 q 619 135 565 89 l 647 85 q 536 16 604 42 q 396 -10 468 -10 q 159 83 246 -10 q 72 339 72 176 q 111 522 72 443 q 221 645 150 601 q 383 689 292 689 q 586 604 514 689 q 658 367 658 519 l 658 331 m 383 635 q 213 569 278 635 q 138 385 149 503 l 603 385 q 543 570 600 506 q 383 635 486 635 m 183 1040 l 269 1040 l 408 763 l 358 763 l 183 1040 z "},"ẻ":{"ha":728,"x_min":72,"x_max":658,"o":"m 658 331 l 136 331 q 205 121 139 194 q 393 47 271 47 q 510 68 456 47 q 619 135 565 89 l 647 85 q 536 16 604 42 q 396 -10 468 -10 q 159 83 246 -10 q 72 339 72 176 q 111 522 72 443 q 221 645 150 601 q 383 689 292 689 q 586 604 514 689 q 658 367 658 519 l 658 331 m 383 635 q 213 569 278 635 q 138 385 149 503 l 603 385 q 543 570 600 506 q 383 635 486 635 m 414 763 l 358 763 l 358 804 q 372 851 358 831 q 413 897 386 871 q 442 928 432 915 q 451 956 451 942 q 435 981 451 972 q 389 990 418 990 q 300 974 346 990 l 283 1024 q 390 1047 335 1047 q 483 1022 449 1047 q 517 957 517 997 q 503 907 517 925 q 463 865 490 889 q 426 826 438 843 q 414 783 414 810 l 414 763 z "},"ȇ":{"ha":728,"x_min":72,"x_max":658,"o":"m 658 331 l 136 331 q 205 121 139 194 q 393 47 271 47 q 510 68 456 47 q 619 135 565 89 l 647 85 q 536 16 604 42 q 396 -10 468 -10 q 159 83 246 -10 q 72 339 72 176 q 111 522 72 443 q 221 645 150 601 q 383 689 292 689 q 586 604 514 689 q 658 367 658 519 l 658 331 m 383 635 q 213 569 278 635 q 138 385 149 503 l 603 385 q 543 570 600 506 q 383 635 486 635 m 383 996 q 508 957 453 996 q 596 835 564 918 l 540 810 q 472 910 510 879 q 383 940 433 940 q 295 910 333 940 q 226 810 257 879 l 171 833 q 256 957 200 918 q 383 996 313 996 z "},"ē":{"ha":728,"x_min":72,"x_max":658,"o":"m 658 331 l 136 331 q 205 121 139 194 q 393 47 271 47 q 510 68 456 47 q 619 135 565 89 l 647 85 q 536 16 604 42 q 396 -10 468 -10 q 159 83 246 -10 q 72 339 72 176 q 111 522 72 443 q 221 645 150 601 q 383 689 292 689 q 586 604 514 689 q 658 367 658 519 l 658 331 m 383 635 q 213 569 278 635 q 138 385 149 503 l 603 385 q 543 570 600 506 q 383 635 486 635 m 181 933 l 586 933 l 586 874 l 181 874 l 181 933 z "},"ḗ":{"ha":728,"x_min":72,"x_max":658,"o":"m 658 331 l 136 331 q 205 121 139 194 q 393 47 271 47 q 510 68 456 47 q 619 135 565 89 l 647 85 q 536 16 604 42 q 396 -10 468 -10 q 159 83 246 -10 q 72 339 72 176 q 111 522 72 443 q 221 645 150 601 q 383 689 292 689 q 586 604 514 689 q 658 367 658 519 l 658 331 m 383 635 q 213 569 278 635 q 138 385 149 503 l 603 385 q 543 570 600 506 q 383 635 486 635 m 181 933 l 586 933 l 586 874 l 181 874 l 181 933 m 358 1033 l 497 1311 l 583 1311 l 408 1033 l 358 1033 z "},"ḕ":{"ha":728,"x_min":72,"x_max":658,"o":"m 658 331 l 136 331 q 205 121 139 194 q 393 47 271 47 q 510 68 456 47 q 619 135 565 89 l 647 85 q 536 16 604 42 q 396 -10 468 -10 q 159 83 246 -10 q 72 339 72 176 q 111 522 72 443 q 221 645 150 601 q 383 689 292 689 q 586 604 514 689 q 658 367 658 519 l 658 331 m 383 635 q 213 569 278 635 q 138 385 149 503 l 603 385 q 543 570 600 506 q 383 635 486 635 m 181 933 l 586 933 l 586 874 l 181 874 l 181 933 m 183 1311 l 269 1311 l 408 1033 l 358 1033 l 183 1311 z "},"ę":{"ha":728,"x_min":72,"x_max":658,"o":"m 658 331 l 136 331 q 205 121 139 194 q 393 47 271 47 q 510 68 456 47 q 619 135 565 89 l 647 86 q 625 66 638 75 q 581 39 613 57 q 477 -39 507 -4 q 447 -117 447 -74 q 473 -186 447 -161 q 543 -211 499 -211 q 625 -185 575 -211 l 647 -232 q 540 -264 604 -264 q 428 -225 471 -264 q 386 -122 386 -186 q 439 -6 386 -54 q 396 -10 421 -10 q 159 83 246 -10 q 72 339 72 176 q 111 522 72 443 q 221 645 150 601 q 383 689 292 689 q 586 604 514 689 q 658 367 658 519 l 658 331 m 383 635 q 213 569 278 635 q 138 385 149 503 l 603 385 q 543 570 600 506 q 383 635 486 635 z "},"ẽ":{"ha":728,"x_min":72,"x_max":658,"o":"m 658 331 l 136 331 q 205 121 139 194 q 393 47 271 47 q 510 68 456 47 q 619 135 565 89 l 647 85 q 536 16 604 42 q 396 -10 468 -10 q 159 83 246 -10 q 72 339 72 176 q 111 522 72 443 q 221 645 150 601 q 383 689 292 689 q 586 604 514 689 q 658 367 658 519 l 658 331 m 383 635 q 213 569 278 635 q 138 385 149 503 l 603 385 q 543 570 600 506 q 383 635 486 635 m 169 839 q 199 935 169 899 q 279 972 228 972 q 337 960 310 972 q 401 925 364 949 q 448 899 429 908 q 482 890 467 890 q 533 914 514 890 q 550 968 551 938 l 597 968 q 568 872 597 908 q 488 835 539 835 q 429 847 457 835 q 365 883 401 860 q 319 909 338 900 q 285 918 300 918 q 234 894 253 918 q 217 839 215 871 l 169 839 z "},"ə":{"ha":728,"x_min":69,"x_max":656,"o":"m 336 689 q 570 597 485 689 q 656 342 656 504 q 619 156 656 235 q 513 33 582 76 q 353 -10 444 -10 q 144 76 218 -10 q 69 317 69 161 l 69 349 l 593 349 q 525 558 592 485 q 339 632 458 632 q 224 611 279 632 q 108 546 168 590 l 81 594 q 198 663 128 638 q 336 689 268 689 m 354 44 q 518 110 457 44 q 590 294 579 175 l 129 294 q 192 109 133 174 q 354 44 250 44 z "},"f":{"ha":419,"x_min":11,"x_max":439,"o":"m 204 672 l 407 672 l 407 622 l 204 622 l 204 0 l 146 0 l 146 622 l 11 622 l 11 672 l 146 672 l 146 715 q 206 907 146 842 q 389 979 267 972 l 432 982 l 439 931 l 375 926 q 246 868 288 921 q 204 715 204 815 l 204 672 z "},"g":{"ha":790,"x_min":72,"x_max":672,"o":"m 672 672 l 672 32 q 604 -186 672 -112 q 401 -260 536 -260 q 117 -164 233 -260 l 144 -115 q 269 -184 214 -165 q 403 -203 325 -203 q 561 -145 507 -203 q 615 24 615 -87 l 615 169 q 524 59 586 97 q 375 21 463 21 q 217 63 286 21 q 110 181 149 104 q 72 356 72 257 q 110 530 72 454 q 217 647 149 606 q 375 689 286 689 q 522 651 461 689 q 614 544 583 614 l 614 672 l 672 672 m 375 78 q 551 152 488 78 q 614 356 614 226 q 551 558 614 485 q 375 632 488 632 q 199 558 264 632 q 135 356 135 485 q 199 151 135 225 q 375 78 264 78 z "},"ğ":{"ha":790,"x_min":72,"x_max":672,"o":"m 672 672 l 672 32 q 604 -186 672 -112 q 401 -260 536 -260 q 117 -164 233 -260 l 144 -115 q 269 -184 214 -165 q 403 -203 325 -203 q 561 -145 507 -203 q 615 24 615 -87 l 615 169 q 524 59 586 97 q 375 21 463 21 q 217 63 286 21 q 110 181 149 104 q 72 356 72 257 q 110 530 72 454 q 217 647 149 606 q 375 689 286 689 q 522 651 461 689 q 614 544 583 614 l 614 672 l 672 672 m 375 78 q 551 152 488 78 q 614 356 614 226 q 551 558 614 485 q 375 632 488 632 q 199 558 264 632 q 135 356 135 485 q 199 151 135 225 q 375 78 264 78 m 399 811 q 274 849 329 811 q 186 972 218 888 l 242 996 q 310 897 272 926 q 399 867 349 867 q 487 897 449 867 q 556 996 525 926 l 611 974 q 526 850 582 889 q 399 811 469 811 z "},"ǧ":{"ha":790,"x_min":72,"x_max":672,"o":"m 672 672 l 672 32 q 604 -186 672 -112 q 401 -260 536 -260 q 117 -164 233 -260 l 144 -115 q 269 -184 214 -165 q 403 -203 325 -203 q 561 -145 507 -203 q 615 24 615 -87 l 615 169 q 524 59 586 97 q 375 21 463 21 q 217 63 286 21 q 110 181 149 104 q 72 356 72 257 q 110 530 72 454 q 217 647 149 606 q 375 689 286 689 q 522 651 461 689 q 614 544 583 614 l 614 672 l 672 672 m 375 78 q 551 152 488 78 q 614 356 614 226 q 551 558 614 485 q 375 632 488 632 q 199 558 264 632 q 135 356 135 485 q 199 151 135 225 q 375 78 264 78 m 579 1040 l 425 763 l 372 763 l 218 1040 l 289 1040 l 399 821 l 508 1040 l 579 1040 z "},"ĝ":{"ha":790,"x_min":72,"x_max":672,"o":"m 672 672 l 672 32 q 604 -186 672 -112 q 401 -260 536 -260 q 117 -164 233 -260 l 144 -115 q 269 -184 214 -165 q 403 -203 325 -203 q 561 -145 507 -203 q 615 24 615 -87 l 615 169 q 524 59 586 97 q 375 21 463 21 q 217 63 286 21 q 110 181 149 104 q 72 356 72 257 q 110 530 72 454 q 217 647 149 606 q 375 689 286 689 q 522 651 461 689 q 614 544 583 614 l 614 672 l 672 672 m 375 78 q 551 152 488 78 q 614 356 614 226 q 551 558 614 485 q 375 632 488 632 q 199 558 264 632 q 135 356 135 485 q 199 151 135 225 q 375 78 264 78 m 218 763 l 372 1040 l 425 1040 l 579 763 l 508 763 l 399 982 l 289 763 l 218 763 z "},"ģ":{"ha":790,"x_min":72,"x_max":672,"o":"m 672 672 l 672 32 q 604 -186 672 -112 q 401 -260 536 -260 q 117 -164 233 -260 l 144 -115 q 269 -184 214 -165 q 403 -203 325 -203 q 561 -145 507 -203 q 615 24 615 -87 l 615 169 q 524 59 586 97 q 375 21 463 21 q 217 63 286 21 q 110 181 149 104 q 72 356 72 257 q 110 530 72 454 q 217 647 149 606 q 375 689 286 689 q 522 651 461 689 q 614 544 583 614 l 614 672 l 672 672 m 375 78 q 551 152 488 78 q 614 356 614 226 q 551 558 614 485 q 375 632 488 632 q 199 558 264 632 q 135 356 135 485 q 199 151 135 225 q 375 78 264 78 m 451 1015 q 413 956 424 985 q 401 893 403 928 l 447 893 l 447 803 l 350 803 l 350 878 q 364 969 350 928 q 414 1046 378 1010 l 451 1015 z "},"ġ":{"ha":790,"x_min":72,"x_max":672,"o":"m 672 672 l 672 32 q 604 -186 672 -112 q 401 -260 536 -260 q 117 -164 233 -260 l 144 -115 q 269 -184 214 -165 q 403 -203 325 -203 q 561 -145 507 -203 q 615 24 615 -87 l 615 169 q 524 59 586 97 q 375 21 463 21 q 217 63 286 21 q 110 181 149 104 q 72 356 72 257 q 110 530 72 454 q 217 647 149 606 q 375 689 286 689 q 522 651 461 689 q 614 544 583 614 l 614 672 l 672 672 m 375 78 q 551 152 488 78 q 614 356 614 226 q 551 558 614 485 q 375 632 488 632 q 199 558 264 632 q 135 356 135 485 q 199 151 135 225 q 375 78 264 78 m 443 947 l 443 860 l 354 860 l 354 947 l 443 947 z "},"ḡ":{"ha":790,"x_min":72,"x_max":672,"o":"m 672 672 l 672 32 q 604 -186 672 -112 q 401 -260 536 -260 q 117 -164 233 -260 l 144 -115 q 269 -184 214 -165 q 403 -203 325 -203 q 561 -145 507 -203 q 615 24 615 -87 l 615 169 q 524 59 586 97 q 375 21 463 21 q 217 63 286 21 q 110 181 149 104 q 72 356 72 257 q 110 530 72 454 q 217 647 149 606 q 375 689 286 689 q 522 651 461 689 q 614 544 583 614 l 614 672 l 672 672 m 375 78 q 551 152 488 78 q 614 356 614 226 q 551 558 614 485 q 375 632 488 632 q 199 558 264 632 q 135 356 135 485 q 199 151 135 225 q 375 78 264 78 m 196 933 l 601 933 l 601 874 l 196 874 l 196 933 z "},"h":{"ha":768,"x_min":118,"x_max":653,"o":"m 408 689 q 653 433 653 689 l 653 0 l 594 0 l 594 428 q 551 584 594 535 q 413 633 508 633 q 241 567 306 633 q 176 392 176 501 l 176 0 l 118 0 l 118 979 l 176 979 l 176 554 q 268 654 207 619 q 408 689 329 689 z "},"ħ":{"ha":768,"x_min":-15,"x_max":653,"o":"m 408 689 q 653 433 653 689 l 653 0 l 594 0 l 594 428 q 551 584 594 535 q 413 633 508 633 q 241 567 306 633 q 176 392 176 501 l 176 0 l 118 0 l 118 788 l -15 788 l -15 839 l 118 839 l 118 979 l 176 979 l 176 839 l 449 839 l 449 788 l 176 788 l 176 554 q 268 654 207 619 q 408 689 329 689 z "},"ḫ":{"ha":768,"x_min":118,"x_max":653,"o":"m 408 689 q 653 433 653 689 l 653 0 l 594 0 l 594 428 q 551 584 594 535 q 413 633 508 633 q 241 567 306 633 q 176 392 176 501 l 176 0 l 118 0 l 118 979 l 176 979 l 176 554 q 268 654 207 619 q 408 689 329 689 m 385 -281 q 260 -242 315 -281 q 172 -119 204 -204 l 228 -96 q 297 -195 258 -165 q 385 -225 335 -225 q 473 -195 435 -225 q 542 -96 511 -165 l 597 -118 q 512 -242 568 -203 q 385 -281 456 -281 z "},"ĥ":{"ha":768,"x_min":-33,"x_max":653,"o":"m 408 689 q 653 433 653 689 l 653 0 l 594 0 l 594 428 q 551 584 594 535 q 413 633 508 633 q 241 567 306 633 q 176 392 176 501 l 176 0 l 118 0 l 118 979 l 176 979 l 176 554 q 268 654 207 619 q 408 689 329 689 m -33 1063 l 122 1269 l 172 1269 l 328 1063 l 257 1063 l 147 1219 l 38 1063 l -33 1063 z "},"ḥ":{"ha":768,"x_min":118,"x_max":653,"o":"m 408 689 q 653 433 653 689 l 653 0 l 594 0 l 594 428 q 551 584 594 535 q 413 633 508 633 q 241 567 306 633 q 176 392 176 501 l 176 0 l 118 0 l 118 979 l 176 979 l 176 554 q 268 654 207 619 q 408 689 329 689 m 431 -151 l 431 -240 l 339 -240 l 339 -151 l 431 -151 z "},"i":{"ha":294,"x_min":103,"x_max":192,"o":"m 118 672 l 176 672 l 176 0 l 118 0 l 118 672 m 192 947 l 192 860 l 103 860 l 103 947 l 192 947 z "},"ı":{"ha":294,"x_min":118,"x_max":176,"o":"m 118 672 l 176 672 l 176 0 l 118 0 l 118 672 z "},"í":{"ha":294,"x_min":118,"x_max":347,"o":"m 118 672 l 176 672 l 176 0 l 118 0 l 118 672 m 122 763 l 261 1040 l 347 1040 l 172 763 l 122 763 z "},"ĭ":{"ha":294,"x_min":-65,"x_max":360,"o":"m 118 672 l 176 672 l 176 0 l 118 0 l 118 672 m 147 811 q 22 849 78 811 q -65 972 -33 888 l -10 996 q 59 897 21 926 q 147 867 97 867 q 235 897 197 867 q 304 996 274 926 l 360 974 q 274 850 331 889 q 147 811 218 811 z "},"î":{"ha":294,"x_min":-33,"x_max":328,"o":"m 118 672 l 176 672 l 176 0 l 118 0 l 118 672 m -33 763 l 121 1040 l 174 1040 l 328 763 l 257 763 l 147 982 l 38 763 l -33 763 z "},"ȉ":{"ha":294,"x_min":-60,"x_max":243,"o":"m 118 672 l 176 672 l 176 0 l 118 0 l 118 672 m -60 1040 l 18 1040 l 90 763 l 51 763 l -60 1040 m 94 1040 l 171 1040 l 243 763 l 204 763 l 94 1040 z "},"ï":{"ha":294,"x_min":-7,"x_max":301,"o":"m 118 672 l 176 672 l 176 0 l 118 0 l 118 672 m 78 944 l 78 861 l -7 861 l -7 944 l 78 944 m 301 944 l 301 861 l 217 861 l 217 944 l 301 944 z "},"ḯ":{"ha":294,"x_min":-7,"x_max":347,"o":"m 118 672 l 176 672 l 176 0 l 118 0 l 118 672 m 78 944 l 78 861 l -7 861 l -7 944 l 78 944 m 301 944 l 301 861 l 217 861 l 217 944 l 301 944 m 122 1033 l 261 1311 l 347 1311 l 172 1033 l 122 1033 z "},"ị":{"ha":294,"x_min":100,"x_max":192,"o":"m 118 672 l 176 672 l 176 0 l 118 0 l 118 672 m 192 947 l 192 860 l 103 860 l 103 947 l 192 947 m 192 -151 l 192 -240 l 100 -240 l 100 -151 l 192 -151 z "},"ì":{"ha":294,"x_min":-53,"x_max":176,"o":"m 118 672 l 176 672 l 176 0 l 118 0 l 118 672 m -53 1040 l 33 1040 l 172 763 l 122 763 l -53 1040 z "},"ỉ":{"ha":294,"x_min":47,"x_max":281,"o":"m 118 672 l 176 672 l 176 0 l 118 0 l 118 672 m 178 763 l 122 763 l 122 804 q 136 851 122 831 q 176 897 150 871 q 206 928 196 915 q 215 956 215 942 q 199 981 215 972 q 153 990 182 990 q 64 974 110 990 l 47 1024 q 154 1047 99 1047 q 247 1022 213 1047 q 281 957 281 997 q 267 907 281 925 q 226 865 254 889 q 190 826 201 843 q 178 783 178 810 l 178 763 z "},"ȋ":{"ha":294,"x_min":-65,"x_max":360,"o":"m 118 672 l 176 672 l 176 0 l 118 0 l 118 672 m 147 996 q 272 957 217 996 q 360 835 328 918 l 304 810 q 235 910 274 879 q 147 940 197 940 q 59 910 97 940 q -10 810 21 879 l -65 833 q 20 957 -36 918 q 147 996 76 996 z "},"ī":{"ha":294,"x_min":-56,"x_max":350,"o":"m 118 672 l 176 672 l 176 0 l 118 0 l 118 672 m -56 933 l 350 933 l 350 874 l -56 874 l -56 933 z "},"į":{"ha":294,"x_min":-19,"x_max":243,"o":"m 192 860 l 103 860 l 103 947 l 192 947 l 192 860 m 243 -232 q 136 -264 199 -264 q 24 -224 67 -264 q -19 -122 -19 -185 q 17 -22 -19 -67 q 118 43 53 22 l 118 672 l 176 672 l 176 0 l 172 0 q 78 -34 113 0 q 43 -117 43 -68 q 69 -186 43 -161 q 139 -211 96 -211 q 221 -185 175 -211 l 243 -232 z "},"ĩ":{"ha":294,"x_min":-67,"x_max":361,"o":"m 118 672 l 176 672 l 176 0 l 118 0 l 118 672 m -67 839 q -37 935 -67 899 q 43 972 -8 972 q 101 960 74 972 q 165 925 128 949 q 212 899 193 908 q 246 890 231 890 q 297 914 278 890 q 314 968 315 938 l 361 968 q 332 872 361 908 q 251 835 303 835 q 193 847 221 835 q 129 883 165 860 q 83 909 101 900 q 49 918 64 918 q -2 894 17 918 q -19 839 -21 871 l -67 839 z "},"j":{"ha":294,"x_min":-106,"x_max":192,"o":"m 176 -15 q 120 -183 176 -122 q -40 -250 64 -243 l -100 -254 l -106 -201 l -47 -199 q 76 -146 35 -192 q 118 -17 118 -100 l 118 672 l 176 672 l 176 -15 m 192 947 l 192 860 l 103 860 l 103 947 l 192 947 z "},"ȷ":{"ha":294,"x_min":-106,"x_max":176,"o":"m 176 -15 q 120 -183 176 -122 q -40 -250 64 -243 l -100 -254 l -106 -201 l -47 -199 q 76 -146 35 -192 q 118 -17 118 -100 l 118 672 l 176 672 l 176 -15 z "},"ĵ":{"ha":294,"x_min":-106,"x_max":328,"o":"m 176 -15 q 120 -183 176 -122 q -40 -250 64 -243 l -100 -254 l -106 -201 l -47 -199 q 76 -146 35 -192 q 118 -17 118 -100 l 118 672 l 176 672 l 176 -15 m -33 763 l 121 1040 l 174 1040 l 328 763 l 257 763 l 147 982 l 38 763 l -33 763 z "},"k":{"ha":650,"x_min":118,"x_max":651,"o":"m 567 0 l 176 332 l 176 0 l 118 0 l 118 979 l 176 979 l 176 358 l 528 672 l 610 672 l 243 349 l 651 0 l 567 0 z "},"ķ":{"ha":650,"x_min":118,"x_max":651,"o":"m 567 0 l 176 332 l 176 0 l 118 0 l 118 979 l 176 979 l 176 358 l 528 672 l 610 672 l 243 349 l 651 0 l 567 0 m 374 -106 l 374 -181 q 359 -272 374 -231 q 310 -347 344 -312 l 272 -318 q 310 -259 300 -287 q 322 -196 321 -231 l 276 -196 l 276 -106 l 374 -106 z "},"ĸ":{"ha":650,"x_min":118,"x_max":651,"o":"m 567 0 l 176 332 l 176 0 l 118 0 l 118 672 l 176 672 l 176 358 l 528 672 l 610 672 l 243 349 l 651 0 l 567 0 z "},"l":{"ha":294,"x_min":118,"x_max":176,"o":"m 118 979 l 176 979 l 176 0 l 118 0 l 118 979 z "},"ĺ":{"ha":294,"x_min":118,"x_max":344,"o":"m 118 979 l 176 979 l 176 0 l 118 0 l 118 979 m 122 1063 l 261 1269 l 344 1269 l 172 1063 l 122 1063 z "},"ľ":{"ha":294,"x_min":118,"x_max":311,"o":"m 118 979 l 176 979 l 176 0 l 118 0 l 118 979 m 233 718 l 233 979 l 311 979 l 275 718 l 233 718 z "},"ļ":{"ha":294,"x_min":94,"x_max":196,"o":"m 118 979 l 176 979 l 176 0 l 118 0 l 118 979 m 196 -106 l 196 -181 q 181 -272 196 -231 q 132 -347 167 -312 l 94 -318 q 133 -259 122 -287 q 144 -196 143 -231 l 99 -196 l 99 -106 l 196 -106 z "},"ŀ":{"ha":276,"x_min":118,"x_max":331,"o":"m 118 979 l 176 979 l 176 0 l 118 0 l 118 979 m 331 538 l 331 443 l 235 443 l 235 538 l 331 538 z "},"ḷ":{"ha":294,"x_min":101,"x_max":193,"o":"m 118 979 l 176 979 l 176 0 l 118 0 l 118 979 m 193 -151 l 193 -240 l 101 -240 l 101 -151 l 193 -151 z "},"ǉ":{"ha":589,"x_min":118,"x_max":486,"o":"m 118 979 l 176 979 l 176 0 l 118 0 l 118 979 m 471 -15 q 415 -183 471 -122 q 254 -250 358 -243 l 194 -254 l 189 -201 l 247 -199 q 371 -146 329 -192 q 413 -17 413 -100 l 413 672 l 471 672 l 471 -15 m 486 947 l 486 860 l 397 860 l 397 947 l 486 947 z "},"ḻ":{"ha":294,"x_min":-56,"x_max":350,"o":"m 118 979 l 176 979 l 176 0 l 118 0 l 118 979 m -56 -165 l 350 -165 l 350 -225 l -56 -225 l -56 -165 z "},"ł":{"ha":339,"x_min":-3,"x_max":343,"o":"m 199 482 l 199 0 l 140 0 l 140 447 l 25 381 l -3 428 l 140 511 l 140 979 l 199 979 l 199 544 l 315 613 l 343 565 l 199 482 z "},"m":{"ha":1158,"x_min":118,"x_max":1043,"o":"m 821 689 q 1043 433 1043 689 l 1043 0 l 985 0 l 985 428 q 946 584 985 535 q 822 633 907 633 q 667 568 725 633 q 610 392 610 503 l 610 0 l 551 0 l 551 428 q 513 584 551 535 q 389 633 474 633 q 234 568 292 633 q 176 392 176 503 l 176 0 l 118 0 l 118 672 l 175 672 l 175 554 q 258 654 203 619 q 388 689 313 689 q 594 554 549 689 q 684 653 624 617 q 821 689 744 689 z "},"ṃ":{"ha":1158,"x_min":118,"x_max":1043,"o":"m 821 689 q 1043 433 1043 689 l 1043 0 l 985 0 l 985 428 q 946 584 985 535 q 822 633 907 633 q 667 568 725 633 q 610 392 610 503 l 610 0 l 551 0 l 551 428 q 513 584 551 535 q 389 633 474 633 q 234 568 292 633 q 176 392 176 503 l 176 0 l 118 0 l 118 672 l 175 672 l 175 554 q 258 654 203 619 q 388 689 313 689 q 594 554 549 689 q 684 653 624 617 q 821 689 744 689 m 626 -151 l 626 -240 l 535 -240 l 535 -151 l 626 -151 z "},"n":{"ha":768,"x_min":118,"x_max":653,"o":"m 408 689 q 653 433 653 689 l 653 0 l 594 0 l 594 428 q 551 584 594 535 q 413 633 508 633 q 241 567 306 633 q 176 392 176 501 l 176 0 l 118 0 l 118 672 l 175 672 l 175 551 q 267 653 206 618 q 408 689 329 689 z "},"ń":{"ha":768,"x_min":118,"x_max":653,"o":"m 408 689 q 653 433 653 689 l 653 0 l 594 0 l 594 428 q 551 584 594 535 q 413 633 508 633 q 241 567 306 633 q 176 392 176 501 l 176 0 l 118 0 l 118 672 l 175 672 l 175 551 q 267 653 206 618 q 408 689 329 689 m 360 763 l 499 1040 l 585 1040 l 410 763 l 360 763 z "},"ŉ":{"ha":768,"x_min":118,"x_max":653,"o":"m 253 1042 l 253 967 q 238 876 253 917 q 189 800 224 835 l 151 829 q 190 888 179 860 q 201 951 200 917 l 156 951 l 156 1042 l 253 1042 m 408 689 q 653 433 653 689 l 653 0 l 594 0 l 594 428 q 551 584 594 535 q 413 633 508 633 q 241 567 306 633 q 176 392 176 501 l 176 0 l 118 0 l 118 672 l 175 672 l 175 551 q 267 653 206 618 q 408 689 329 689 z "},"ň":{"ha":768,"x_min":118,"x_max":653,"o":"m 408 689 q 653 433 653 689 l 653 0 l 594 0 l 594 428 q 551 584 594 535 q 413 633 508 633 q 241 567 306 633 q 176 392 176 501 l 176 0 l 118 0 l 118 672 l 175 672 l 175 551 q 267 653 206 618 q 408 689 329 689 m 565 1040 l 411 763 l 358 763 l 204 1040 l 275 1040 l 385 821 l 494 1040 l 565 1040 z "},"ņ":{"ha":768,"x_min":118,"x_max":653,"o":"m 408 689 q 653 433 653 689 l 653 0 l 594 0 l 594 428 q 551 584 594 535 q 413 633 508 633 q 241 567 306 633 q 176 392 176 501 l 176 0 l 118 0 l 118 672 l 175 672 l 175 551 q 267 653 206 618 q 408 689 329 689 m 433 -106 l 433 -181 q 419 -272 433 -231 q 369 -347 404 -312 l 332 -318 q 370 -259 360 -287 q 382 -196 381 -231 l 336 -196 l 336 -106 l 433 -106 z "},"ṅ":{"ha":768,"x_min":118,"x_max":653,"o":"m 408 689 q 653 433 653 689 l 653 0 l 594 0 l 594 428 q 551 584 594 535 q 413 633 508 633 q 241 567 306 633 q 176 392 176 501 l 176 0 l 118 0 l 118 672 l 175 672 l 175 551 q 267 653 206 618 q 408 689 329 689 m 429 947 l 429 860 l 340 860 l 340 947 l 429 947 z "},"ṇ":{"ha":768,"x_min":118,"x_max":653,"o":"m 408 689 q 653 433 653 689 l 653 0 l 594 0 l 594 428 q 551 584 594 535 q 413 633 508 633 q 241 567 306 633 q 176 392 176 501 l 176 0 l 118 0 l 118 672 l 175 672 l 175 551 q 267 653 206 618 q 408 689 329 689 m 431 -151 l 431 -240 l 339 -240 l 339 -151 l 431 -151 z "},"ŋ":{"ha":768,"x_min":118,"x_max":653,"o":"m 408 689 q 653 433 653 689 l 653 -15 q 600 -179 653 -117 q 438 -250 547 -242 l 376 -254 l 371 -203 l 429 -199 q 552 -147 510 -193 q 594 -17 594 -100 l 594 428 q 549 587 594 540 q 413 633 503 633 q 243 570 310 633 q 176 392 176 507 l 176 0 l 118 0 l 118 672 l 175 672 l 175 551 q 267 653 206 618 q 408 689 328 689 z "},"ǌ":{"ha":1063,"x_min":118,"x_max":960,"o":"m 408 689 q 653 433 653 689 l 653 0 l 594 0 l 594 428 q 551 584 594 535 q 413 633 508 633 q 241 567 306 633 q 176 392 176 501 l 176 0 l 118 0 l 118 672 l 175 672 l 175 551 q 267 653 206 618 q 408 689 329 689 m 944 -15 q 888 -183 944 -122 q 728 -250 832 -243 l 668 -254 l 663 -201 l 721 -199 q 844 -146 803 -192 q 886 -17 886 -100 l 886 672 l 944 672 l 944 -15 m 960 947 l 960 860 l 871 860 l 871 947 l 960 947 z "},"ṉ":{"ha":768,"x_min":118,"x_max":653,"o":"m 408 689 q 653 433 653 689 l 653 0 l 594 0 l 594 428 q 551 584 594 535 q 413 633 508 633 q 241 567 306 633 q 176 392 176 501 l 176 0 l 118 0 l 118 672 l 175 672 l 175 551 q 267 653 206 618 q 408 689 329 689 m 182 -165 l 588 -165 l 588 -225 l 182 -225 l 182 -165 z "},"ñ":{"ha":768,"x_min":118,"x_max":653,"o":"m 408 689 q 653 433 653 689 l 653 0 l 594 0 l 594 428 q 551 584 594 535 q 413 633 508 633 q 241 567 306 633 q 176 392 176 501 l 176 0 l 118 0 l 118 672 l 175 672 l 175 551 q 267 653 206 618 q 408 689 329 689 m 171 839 q 200 935 171 899 q 281 972 229 972 q 338 960 311 972 q 403 925 365 949 q 449 899 431 908 q 483 890 468 890 q 534 914 515 890 q 551 968 553 938 l 599 968 q 569 872 599 908 q 489 835 540 835 q 431 847 458 835 q 367 883 403 860 q 320 909 339 900 q 286 918 301 918 q 235 894 254 918 q 218 839 217 871 l 171 839 z "},"o":{"ha":744,"x_min":72,"x_max":672,"o":"m 372 -10 q 215 33 283 -10 q 110 156 147 76 q 72 340 72 235 q 110 524 72 444 q 215 646 147 603 q 372 689 283 689 q 529 646 461 689 q 635 524 597 603 q 672 340 672 444 q 635 156 672 235 q 529 33 597 76 q 372 -10 461 -10 m 371 47 q 548 123 486 47 q 610 340 610 199 q 547 555 610 478 q 372 632 483 632 q 198 555 261 632 q 135 340 135 478 q 197 123 135 199 q 371 47 258 47 z "},"ó":{"ha":744,"x_min":72,"x_max":672,"o":"m 372 -10 q 215 33 283 -10 q 110 156 147 76 q 72 340 72 235 q 110 524 72 444 q 215 646 147 603 q 372 689 283 689 q 529 646 461 689 q 635 524 597 603 q 672 340 672 444 q 635 156 672 235 q 529 33 597 76 q 372 -10 461 -10 m 371 47 q 548 123 486 47 q 610 340 610 199 q 547 555 610 478 q 372 632 483 632 q 198 555 261 632 q 135 340 135 478 q 197 123 135 199 q 371 47 258 47 m 347 763 l 486 1040 l 572 1040 l 397 763 l 347 763 z "},"ŏ":{"ha":744,"x_min":72,"x_max":672,"o":"m 372 -10 q 215 33 283 -10 q 110 156 147 76 q 72 340 72 235 q 110 524 72 444 q 215 646 147 603 q 372 689 283 689 q 529 646 461 689 q 635 524 597 603 q 672 340 672 444 q 635 156 672 235 q 529 33 597 76 q 372 -10 461 -10 m 371 47 q 548 123 486 47 q 610 340 610 199 q 547 555 610 478 q 372 632 483 632 q 198 555 261 632 q 135 340 135 478 q 197 123 135 199 q 371 47 258 47 m 372 811 q 247 849 303 811 q 160 972 192 888 l 215 996 q 284 897 246 926 q 372 867 322 867 q 460 897 422 867 q 529 996 499 926 l 585 974 q 499 850 556 889 q 372 811 443 811 z "},"ô":{"ha":744,"x_min":72,"x_max":672,"o":"m 372 -10 q 215 33 283 -10 q 110 156 147 76 q 72 340 72 235 q 110 524 72 444 q 215 646 147 603 q 372 689 283 689 q 529 646 461 689 q 635 524 597 603 q 672 340 672 444 q 635 156 672 235 q 529 33 597 76 q 372 -10 461 -10 m 371 47 q 548 123 486 47 q 610 340 610 199 q 547 555 610 478 q 372 632 483 632 q 198 555 261 632 q 135 340 135 478 q 197 123 135 199 q 371 47 258 47 m 192 763 l 346 1040 l 399 1040 l 553 763 l 482 763 l 372 982 l 263 763 l 192 763 z "},"ố":{"ha":744,"x_min":72,"x_max":711,"o":"m 372 -10 q 215 33 283 -10 q 110 156 147 76 q 72 340 72 235 q 110 524 72 444 q 215 646 147 603 q 372 689 283 689 q 529 646 461 689 q 635 524 597 603 q 672 340 672 444 q 635 156 672 235 q 529 33 597 76 q 372 -10 461 -10 m 371 47 q 548 123 486 47 q 610 340 610 199 q 547 555 610 478 q 372 632 483 632 q 198 555 261 632 q 135 340 135 478 q 197 123 135 199 q 371 47 258 47 m 482 903 l 625 1100 l 711 1100 l 532 903 l 482 903 m 192 763 l 347 974 l 397 974 l 553 763 l 482 763 l 372 922 l 263 763 l 192 763 z "},"ộ":{"ha":744,"x_min":72,"x_max":672,"o":"m 372 -10 q 215 33 283 -10 q 110 156 147 76 q 72 340 72 235 q 110 524 72 444 q 215 646 147 603 q 372 689 283 689 q 529 646 461 689 q 635 524 597 603 q 672 340 672 444 q 635 156 672 235 q 529 33 597 76 q 372 -10 461 -10 m 371 47 q 548 123 486 47 q 610 340 610 199 q 547 555 610 478 q 372 632 483 632 q 198 555 261 632 q 135 340 135 478 q 197 123 135 199 q 371 47 258 47 m 418 -151 l 418 -240 l 326 -240 l 326 -151 l 418 -151 m 192 763 l 346 1040 l 399 1040 l 553 763 l 482 763 l 372 982 l 263 763 l 192 763 z "},"ồ":{"ha":744,"x_min":72,"x_max":672,"o":"m 372 -10 q 215 33 283 -10 q 110 156 147 76 q 72 340 72 235 q 110 524 72 444 q 215 646 147 603 q 372 689 283 689 q 529 646 461 689 q 635 524 597 603 q 672 340 672 444 q 635 156 672 235 q 529 33 597 76 q 372 -10 461 -10 m 371 47 q 548 123 486 47 q 610 340 610 199 q 547 555 610 478 q 372 632 483 632 q 198 555 261 632 q 135 340 135 478 q 197 123 135 199 q 371 47 258 47 m 394 1100 l 481 1100 l 592 903 l 542 903 l 394 1100 m 192 763 l 347 974 l 397 974 l 553 763 l 482 763 l 372 922 l 263 763 l 192 763 z "},"ổ":{"ha":744,"x_min":72,"x_max":672,"o":"m 372 -10 q 215 33 283 -10 q 110 156 147 76 q 72 340 72 235 q 110 524 72 444 q 215 646 147 603 q 372 689 283 689 q 529 646 461 689 q 635 524 597 603 q 672 340 672 444 q 635 156 672 235 q 529 33 597 76 q 372 -10 461 -10 m 371 47 q 548 123 486 47 q 610 340 610 199 q 547 555 610 478 q 372 632 483 632 q 198 555 261 632 q 135 340 135 478 q 197 123 135 199 q 371 47 258 47 m 539 903 l 481 903 l 481 924 q 496 960 481 947 q 538 985 511 974 q 567 1001 558 994 q 576 1019 576 1008 q 559 1040 576 1033 q 513 1047 542 1047 q 426 1031 471 1047 l 410 1083 q 511 1107 464 1107 q 608 1083 574 1107 q 643 1017 643 1058 q 628 980 643 993 q 583 954 613 967 q 550 936 561 944 q 539 915 539 928 l 539 903 m 192 763 l 347 974 l 397 974 l 553 763 l 482 763 l 372 922 l 263 763 l 192 763 z "},"ỗ":{"ha":744,"x_min":72,"x_max":672,"o":"m 372 -10 q 215 33 283 -10 q 110 156 147 76 q 72 340 72 235 q 110 524 72 444 q 215 646 147 603 q 372 689 283 689 q 529 646 461 689 q 635 524 597 603 q 672 340 672 444 q 635 156 672 235 q 529 33 597 76 q 372 -10 461 -10 m 371 47 q 548 123 486 47 q 610 340 610 199 q 547 555 610 478 q 372 632 483 632 q 198 555 261 632 q 135 340 135 478 q 197 123 135 199 q 371 47 258 47 m 158 992 q 188 1088 158 1051 q 268 1124 217 1124 q 325 1114 299 1124 q 390 1085 351 1104 q 433 1065 411 1074 q 471 1057 456 1057 q 522 1080 503 1057 q 539 1129 540 1103 l 586 1129 q 557 1033 586 1069 q 476 997 528 997 q 419 1007 446 997 q 354 1036 393 1017 q 308 1058 326 1050 q 274 1065 289 1065 q 223 1042 242 1065 q 206 992 204 1018 l 158 992 m 192 763 l 347 974 l 397 974 l 553 763 l 482 763 l 372 922 l 263 763 l 192 763 z "},"ȍ":{"ha":744,"x_min":72,"x_max":672,"o":"m 372 -10 q 215 33 283 -10 q 110 156 147 76 q 72 340 72 235 q 110 524 72 444 q 215 646 147 603 q 372 689 283 689 q 529 646 461 689 q 635 524 597 603 q 672 340 672 444 q 635 156 672 235 q 529 33 597 76 q 372 -10 461 -10 m 371 47 q 548 123 486 47 q 610 340 610 199 q 547 555 610 478 q 372 632 483 632 q 198 555 261 632 q 135 340 135 478 q 197 123 135 199 q 371 47 258 47 m 165 1040 l 243 1040 l 315 763 l 276 763 l 165 1040 m 319 1040 l 396 1040 l 468 763 l 429 763 l 319 1040 z "},"ö":{"ha":744,"x_min":72,"x_max":672,"o":"m 372 -10 q 215 33 283 -10 q 110 156 147 76 q 72 340 72 235 q 110 524 72 444 q 215 646 147 603 q 372 689 283 689 q 529 646 461 689 q 635 524 597 603 q 672 340 672 444 q 635 156 672 235 q 529 33 597 76 q 372 -10 461 -10 m 371 47 q 548 123 486 47 q 610 340 610 199 q 547 555 610 478 q 372 632 483 632 q 198 555 261 632 q 135 340 135 478 q 197 123 135 199 q 371 47 258 47 m 303 944 l 303 861 l 218 861 l 218 944 l 303 944 m 526 944 l 526 861 l 442 861 l 442 944 l 526 944 z "},"ȫ":{"ha":744,"x_min":72,"x_max":672,"o":"m 372 -10 q 215 33 283 -10 q 110 156 147 76 q 72 340 72 235 q 110 524 72 444 q 215 646 147 603 q 372 689 283 689 q 529 646 461 689 q 635 524 597 603 q 672 340 672 444 q 635 156 672 235 q 529 33 597 76 q 372 -10 461 -10 m 371 47 q 548 123 486 47 q 610 340 610 199 q 547 555 610 478 q 372 632 483 632 q 198 555 261 632 q 135 340 135 478 q 197 123 135 199 q 371 47 258 47 m 303 944 l 303 861 l 218 861 l 218 944 l 303 944 m 526 944 l 526 861 l 442 861 l 442 944 l 526 944 m 169 1204 l 575 1204 l 575 1144 l 169 1144 l 169 1204 z "},"ȱ":{"ha":744,"x_min":72,"x_max":672,"o":"m 372 -10 q 215 33 283 -10 q 110 156 147 76 q 72 340 72 235 q 110 524 72 444 q 215 646 147 603 q 372 689 283 689 q 529 646 461 689 q 635 524 597 603 q 672 340 672 444 q 635 156 672 235 q 529 33 597 76 q 372 -10 461 -10 m 371 47 q 548 123 486 47 q 610 340 610 199 q 547 555 610 478 q 372 632 483 632 q 198 555 261 632 q 135 340 135 478 q 197 123 135 199 q 371 47 258 47 m 417 947 l 417 860 l 328 860 l 328 947 l 417 947 m 169 1204 l 575 1204 l 575 1144 l 169 1144 l 169 1204 z "},"ọ":{"ha":744,"x_min":72,"x_max":672,"o":"m 372 -10 q 215 33 283 -10 q 110 156 147 76 q 72 340 72 235 q 110 524 72 444 q 215 646 147 603 q 372 689 283 689 q 529 646 461 689 q 635 524 597 603 q 672 340 672 444 q 635 156 672 235 q 529 33 597 76 q 372 -10 461 -10 m 371 47 q 548 123 486 47 q 610 340 610 199 q 547 555 610 478 q 372 632 483 632 q 198 555 261 632 q 135 340 135 478 q 197 123 135 199 q 371 47 258 47 m 418 -151 l 418 -240 l 326 -240 l 326 -151 l 418 -151 z "},"ò":{"ha":744,"x_min":72,"x_max":672,"o":"m 372 -10 q 215 33 283 -10 q 110 156 147 76 q 72 340 72 235 q 110 524 72 444 q 215 646 147 603 q 372 689 283 689 q 529 646 461 689 q 635 524 597 603 q 672 340 672 444 q 635 156 672 235 q 529 33 597 76 q 372 -10 461 -10 m 371 47 q 548 123 486 47 q 610 340 610 199 q 547 555 610 478 q 372 632 483 632 q 198 555 261 632 q 135 340 135 478 q 197 123 135 199 q 371 47 258 47 m 172 1040 l 258 1040 l 397 763 l 347 763 l 172 1040 z "},"ỏ":{"ha":744,"x_min":72,"x_max":672,"o":"m 372 -10 q 215 33 283 -10 q 110 156 147 76 q 72 340 72 235 q 110 524 72 444 q 215 646 147 603 q 372 689 283 689 q 529 646 461 689 q 635 524 597 603 q 672 340 672 444 q 635 156 672 235 q 529 33 597 76 q 372 -10 461 -10 m 371 47 q 548 123 486 47 q 610 340 610 199 q 547 555 610 478 q 372 632 483 632 q 198 555 261 632 q 135 340 135 478 q 197 123 135 199 q 371 47 258 47 m 403 763 l 347 763 l 347 804 q 361 851 347 831 q 401 897 375 871 q 431 928 421 915 q 440 956 440 942 q 424 981 440 972 q 378 990 407 990 q 289 974 335 990 l 272 1024 q 379 1047 324 1047 q 472 1022 438 1047 q 506 957 506 997 q 492 907 506 925 q 451 865 479 889 q 415 826 426 843 q 403 783 403 810 l 403 763 z "},"ơ":{"ha":744,"x_min":72,"x_max":672,"o":"m 536 640 q 637 519 601 596 q 672 340 672 443 q 635 156 672 235 q 529 33 597 76 q 372 -10 461 -10 q 215 33 283 -10 q 110 156 147 76 q 72 340 72 235 q 110 524 72 444 q 215 646 147 603 q 374 689 283 689 q 426 685 401 689 q 465 682 454 682 q 573 719 540 682 q 606 839 606 757 l 606 856 l 661 856 l 661 828 q 629 708 661 756 q 536 640 597 660 m 371 47 q 548 123 486 47 q 610 340 610 199 q 547 555 610 478 q 372 632 483 632 q 198 555 261 632 q 135 340 135 478 q 197 123 135 199 q 371 47 258 47 z "},"ớ":{"ha":744,"x_min":72,"x_max":672,"o":"m 536 640 q 637 519 601 596 q 672 340 672 443 q 635 156 672 235 q 529 33 597 76 q 372 -10 461 -10 q 215 33 283 -10 q 110 156 147 76 q 72 340 72 235 q 110 524 72 444 q 215 646 147 603 q 374 689 283 689 q 426 685 401 689 q 465 682 454 682 q 573 719 540 682 q 606 839 606 757 l 606 856 l 661 856 l 661 828 q 629 708 661 756 q 536 640 597 660 m 371 47 q 548 123 486 47 q 610 340 610 199 q 547 555 610 478 q 372 632 483 632 q 198 555 261 632 q 135 340 135 478 q 197 123 135 199 q 371 47 258 47 m 347 763 l 486 1040 l 572 1040 l 397 763 l 347 763 z "},"ợ":{"ha":744,"x_min":72,"x_max":672,"o":"m 536 640 q 637 519 601 596 q 672 340 672 443 q 635 156 672 235 q 529 33 597 76 q 372 -10 461 -10 q 215 33 283 -10 q 110 156 147 76 q 72 340 72 235 q 110 524 72 444 q 215 646 147 603 q 374 689 283 689 q 426 685 401 689 q 465 682 454 682 q 573 719 540 682 q 606 839 606 757 l 606 856 l 661 856 l 661 828 q 629 708 661 756 q 536 640 597 660 m 371 47 q 548 123 486 47 q 610 340 610 199 q 547 555 610 478 q 372 632 483 632 q 198 555 261 632 q 135 340 135 478 q 197 123 135 199 q 371 47 258 47 m 418 -151 l 418 -240 l 326 -240 l 326 -151 l 418 -151 z "},"ờ":{"ha":744,"x_min":72,"x_max":672,"o":"m 536 640 q 637 519 601 596 q 672 340 672 443 q 635 156 672 235 q 529 33 597 76 q 372 -10 461 -10 q 215 33 283 -10 q 110 156 147 76 q 72 340 72 235 q 110 524 72 444 q 215 646 147 603 q 374 689 283 689 q 426 685 401 689 q 465 682 454 682 q 573 719 540 682 q 606 839 606 757 l 606 856 l 661 856 l 661 828 q 629 708 661 756 q 536 640 597 660 m 371 47 q 548 123 486 47 q 610 340 610 199 q 547 555 610 478 q 372 632 483 632 q 198 555 261 632 q 135 340 135 478 q 197 123 135 199 q 371 47 258 47 m 172 1040 l 258 1040 l 397 763 l 347 763 l 172 1040 z "},"ở":{"ha":744,"x_min":72,"x_max":672,"o":"m 536 640 q 637 519 601 596 q 672 340 672 443 q 635 156 672 235 q 529 33 597 76 q 372 -10 461 -10 q 215 33 283 -10 q 110 156 147 76 q 72 340 72 235 q 110 524 72 444 q 215 646 147 603 q 374 689 283 689 q 426 685 401 689 q 465 682 454 682 q 573 719 540 682 q 606 839 606 757 l 606 856 l 661 856 l 661 828 q 629 708 661 756 q 536 640 597 660 m 371 47 q 548 123 486 47 q 610 340 610 199 q 547 555 610 478 q 372 632 483 632 q 198 555 261 632 q 135 340 135 478 q 197 123 135 199 q 371 47 258 47 m 403 763 l 347 763 l 347 804 q 361 851 347 831 q 401 897 375 871 q 431 928 421 915 q 440 956 440 942 q 424 981 440 972 q 378 990 407 990 q 289 974 335 990 l 272 1024 q 379 1047 324 1047 q 472 1022 438 1047 q 506 957 506 997 q 492 907 506 925 q 451 865 479 889 q 415 826 426 843 q 403 783 403 810 l 403 763 z "},"ỡ":{"ha":744,"x_min":72,"x_max":672,"o":"m 536 640 q 637 519 601 596 q 672 340 672 443 q 635 156 672 235 q 529 33 597 76 q 372 -10 461 -10 q 215 33 283 -10 q 110 156 147 76 q 72 340 72 235 q 110 524 72 444 q 215 646 147 603 q 374 689 283 689 q 426 685 401 689 q 465 682 454 682 q 573 719 540 682 q 606 839 606 757 l 606 856 l 661 856 l 661 828 q 629 708 661 756 q 536 640 597 660 m 371 47 q 548 123 486 47 q 610 340 610 199 q 547 555 610 478 q 372 632 483 632 q 198 555 261 632 q 135 340 135 478 q 197 123 135 199 q 371 47 258 47 m 158 839 q 188 935 158 899 q 268 972 217 972 q 326 960 299 972 q 390 925 353 949 q 437 899 418 908 q 471 890 456 890 q 522 914 503 890 q 539 968 540 938 l 586 968 q 557 872 586 908 q 476 835 528 835 q 418 847 446 835 q 354 883 390 860 q 308 909 326 900 q 274 918 289 918 q 223 894 242 918 q 206 839 204 871 l 158 839 z "},"ő":{"ha":744,"x_min":72,"x_max":672,"o":"m 372 -10 q 215 33 283 -10 q 110 156 147 76 q 72 340 72 235 q 110 524 72 444 q 215 646 147 603 q 372 689 283 689 q 529 646 461 689 q 635 524 597 603 q 672 340 672 444 q 635 156 672 235 q 529 33 597 76 q 372 -10 461 -10 m 371 47 q 548 123 486 47 q 610 340 610 199 q 547 555 610 478 q 372 632 483 632 q 198 555 261 632 q 135 340 135 478 q 197 123 135 199 q 371 47 258 47 m 276 763 l 349 1040 l 425 1040 l 315 763 l 276 763 m 429 763 l 501 1040 l 579 1040 l 468 763 l 429 763 z "},"ȏ":{"ha":744,"x_min":72,"x_max":672,"o":"m 372 -10 q 215 33 283 -10 q 110 156 147 76 q 72 340 72 235 q 110 524 72 444 q 215 646 147 603 q 372 689 283 689 q 529 646 461 689 q 635 524 597 603 q 672 340 672 444 q 635 156 672 235 q 529 33 597 76 q 372 -10 461 -10 m 371 47 q 548 123 486 47 q 610 340 610 199 q 547 555 610 478 q 372 632 483 632 q 198 555 261 632 q 135 340 135 478 q 197 123 135 199 q 371 47 258 47 m 372 996 q 497 957 442 996 q 585 835 553 918 l 529 810 q 460 910 499 879 q 372 940 422 940 q 284 910 322 940 q 215 810 246 879 l 160 833 q 245 957 189 918 q 372 996 301 996 z "},"ō":{"ha":744,"x_min":72,"x_max":672,"o":"m 372 -10 q 215 33 283 -10 q 110 156 147 76 q 72 340 72 235 q 110 524 72 444 q 215 646 147 603 q 372 689 283 689 q 529 646 461 689 q 635 524 597 603 q 672 340 672 444 q 635 156 672 235 q 529 33 597 76 q 372 -10 461 -10 m 371 47 q 548 123 486 47 q 610 340 610 199 q 547 555 610 478 q 372 632 483 632 q 198 555 261 632 q 135 340 135 478 q 197 123 135 199 q 371 47 258 47 m 169 933 l 575 933 l 575 874 l 169 874 l 169 933 z "},"ṓ":{"ha":744,"x_min":72,"x_max":672,"o":"m 372 -10 q 215 33 283 -10 q 110 156 147 76 q 72 340 72 235 q 110 524 72 444 q 215 646 147 603 q 372 689 283 689 q 529 646 461 689 q 635 524 597 603 q 672 340 672 444 q 635 156 672 235 q 529 33 597 76 q 372 -10 461 -10 m 371 47 q 548 123 486 47 q 610 340 610 199 q 547 555 610 478 q 372 632 483 632 q 198 555 261 632 q 135 340 135 478 q 197 123 135 199 q 371 47 258 47 m 169 933 l 575 933 l 575 874 l 169 874 l 169 933 m 347 1033 l 486 1311 l 572 1311 l 397 1033 l 347 1033 z "},"ṑ":{"ha":744,"x_min":72,"x_max":672,"o":"m 372 -10 q 215 33 283 -10 q 110 156 147 76 q 72 340 72 235 q 110 524 72 444 q 215 646 147 603 q 372 689 283 689 q 529 646 461 689 q 635 524 597 603 q 672 340 672 444 q 635 156 672 235 q 529 33 597 76 q 372 -10 461 -10 m 371 47 q 548 123 486 47 q 610 340 610 199 q 547 555 610 478 q 372 632 483 632 q 198 555 261 632 q 135 340 135 478 q 197 123 135 199 q 371 47 258 47 m 169 933 l 575 933 l 575 874 l 169 874 l 169 933 m 172 1311 l 258 1311 l 397 1033 l 347 1033 l 172 1311 z "},"ǫ":{"ha":744,"x_min":72,"x_max":672,"o":"m 481 11 q 382 -40 411 -11 q 353 -117 353 -69 q 378 -185 353 -160 q 449 -211 404 -211 q 532 -185 482 -211 l 554 -232 q 446 -264 511 -264 q 334 -225 376 -264 q 292 -122 292 -186 q 339 -8 292 -53 q 144 97 217 3 q 72 340 72 190 q 110 524 72 444 q 215 646 147 603 q 372 689 283 689 q 529 646 461 689 q 635 524 597 603 q 672 340 672 444 q 622 128 672 215 q 481 11 571 40 m 135 340 q 197 123 135 199 q 371 47 258 47 q 548 123 486 47 q 610 340 610 199 q 547 555 610 478 q 372 632 483 632 q 198 555 261 632 q 135 340 135 478 z "},"ø":{"ha":744,"x_min":72,"x_max":672,"o":"m 567 618 q 645 501 618 572 q 672 340 672 429 q 635 156 672 235 q 529 33 597 76 q 372 -10 461 -10 q 225 28 290 -10 l 181 -50 l 129 -21 l 178 63 q 100 179 128 108 q 72 340 72 250 q 110 524 72 444 q 215 646 147 603 q 372 689 283 689 q 519 651 457 689 l 565 729 l 615 701 l 567 618 m 136 340 q 207 113 136 188 l 492 603 q 372 632 442 632 q 199 555 261 632 q 136 340 136 478 m 371 47 q 548 123 486 47 q 610 340 610 199 q 591 472 610 414 q 538 567 572 529 l 253 75 q 371 47 304 47 z "},"ǿ":{"ha":744,"x_min":72,"x_max":672,"o":"m 567 618 q 645 501 618 572 q 672 340 672 429 q 635 156 672 235 q 529 33 597 76 q 372 -10 461 -10 q 225 28 290 -10 l 181 -50 l 129 -21 l 178 63 q 100 179 128 108 q 72 340 72 250 q 110 524 72 444 q 215 646 147 603 q 372 689 283 689 q 519 651 457 689 l 565 729 l 615 701 l 567 618 m 136 340 q 207 113 136 188 l 492 603 q 372 632 442 632 q 199 555 261 632 q 136 340 136 478 m 371 47 q 548 123 486 47 q 610 340 610 199 q 591 472 610 414 q 538 567 572 529 l 253 75 q 371 47 304 47 m 347 763 l 486 1040 l 572 1040 l 397 763 l 347 763 z "},"õ":{"ha":744,"x_min":72,"x_max":672,"o":"m 372 -10 q 215 33 283 -10 q 110 156 147 76 q 72 340 72 235 q 110 524 72 444 q 215 646 147 603 q 372 689 283 689 q 529 646 461 689 q 635 524 597 603 q 672 340 672 444 q 635 156 672 235 q 529 33 597 76 q 372 -10 461 -10 m 371 47 q 548 123 486 47 q 610 340 610 199 q 547 555 610 478 q 372 632 483 632 q 198 555 261 632 q 135 340 135 478 q 197 123 135 199 q 371 47 258 47 m 158 839 q 188 935 158 899 q 268 972 217 972 q 326 960 299 972 q 390 925 353 949 q 437 899 418 908 q 471 890 456 890 q 522 914 503 890 q 539 968 540 938 l 586 968 q 557 872 586 908 q 476 835 528 835 q 418 847 446 835 q 354 883 390 860 q 308 909 326 900 q 274 918 289 918 q 223 894 242 918 q 206 839 204 871 l 158 839 z "},"ṍ":{"ha":744,"x_min":72,"x_max":672,"o":"m 372 -10 q 215 33 283 -10 q 110 156 147 76 q 72 340 72 235 q 110 524 72 444 q 215 646 147 603 q 372 689 283 689 q 529 646 461 689 q 635 524 597 603 q 672 340 672 444 q 635 156 672 235 q 529 33 597 76 q 372 -10 461 -10 m 371 47 q 548 123 486 47 q 610 340 610 199 q 547 555 610 478 q 372 632 483 632 q 198 555 261 632 q 135 340 135 478 q 197 123 135 199 q 371 47 258 47 m 158 839 q 188 935 158 899 q 268 972 217 972 q 326 960 299 972 q 390 925 353 949 q 437 899 418 908 q 471 890 456 890 q 522 914 503 890 q 539 968 540 938 l 586 968 q 557 872 586 908 q 476 835 528 835 q 418 847 446 835 q 354 883 390 860 q 308 909 326 900 q 274 918 289 918 q 223 894 242 918 q 206 839 204 871 l 158 839 m 347 1033 l 486 1311 l 572 1311 l 397 1033 l 347 1033 z "},"ṏ":{"ha":744,"x_min":72,"x_max":672,"o":"m 372 -10 q 215 33 283 -10 q 110 156 147 76 q 72 340 72 235 q 110 524 72 444 q 215 646 147 603 q 372 689 283 689 q 529 646 461 689 q 635 524 597 603 q 672 340 672 444 q 635 156 672 235 q 529 33 597 76 q 372 -10 461 -10 m 371 47 q 548 123 486 47 q 610 340 610 199 q 547 555 610 478 q 372 632 483 632 q 198 555 261 632 q 135 340 135 478 q 197 123 135 199 q 371 47 258 47 m 158 839 q 188 935 158 899 q 268 972 217 972 q 326 960 299 972 q 390 925 353 949 q 437 899 418 908 q 471 890 456 890 q 522 914 503 890 q 539 968 540 938 l 586 968 q 557 872 586 908 q 476 835 528 835 q 418 847 446 835 q 354 883 390 860 q 308 909 326 900 q 274 918 289 918 q 223 894 242 918 q 206 839 204 871 l 158 839 m 303 1215 l 303 1132 l 218 1132 l 218 1215 l 303 1215 m 526 1215 l 526 1132 l 442 1132 l 442 1215 l 526 1215 z "},"ȭ":{"ha":744,"x_min":72,"x_max":672,"o":"m 372 -10 q 215 33 283 -10 q 110 156 147 76 q 72 340 72 235 q 110 524 72 444 q 215 646 147 603 q 372 689 283 689 q 529 646 461 689 q 635 524 597 603 q 672 340 672 444 q 635 156 672 235 q 529 33 597 76 q 372 -10 461 -10 m 371 47 q 548 123 486 47 q 610 340 610 199 q 547 555 610 478 q 372 632 483 632 q 198 555 261 632 q 135 340 135 478 q 197 123 135 199 q 371 47 258 47 m 158 839 q 188 935 158 899 q 268 972 217 972 q 326 960 299 972 q 390 925 353 949 q 437 899 418 908 q 471 890 456 890 q 522 914 503 890 q 539 968 540 938 l 586 968 q 557 872 586 908 q 476 835 528 835 q 418 847 446 835 q 354 883 390 860 q 308 909 326 900 q 274 918 289 918 q 223 894 242 918 q 206 839 204 871 l 158 839 m 169 1204 l 575 1204 l 575 1144 l 169 1144 l 169 1204 z "},"œ":{"ha":1260,"x_min":72,"x_max":1190,"o":"m 1190 331 l 674 331 q 742 121 676 194 q 931 47 808 47 q 1151 135 1043 47 l 1179 85 q 1069 17 1138 43 q 932 -10 1000 -10 q 749 42 824 -10 q 643 193 675 94 q 542 43 611 96 q 374 -10 472 -10 q 215 33 283 -10 q 110 156 147 76 q 72 340 72 235 q 110 524 72 444 q 215 646 147 603 q 374 689 283 689 q 539 637 469 689 q 640 492 608 585 q 746 636 674 583 q 917 689 818 689 q 1118 604 1046 689 q 1190 367 1190 519 l 1190 331 m 917 635 q 749 569 813 635 q 675 385 686 503 l 1135 385 q 1075 570 1132 506 q 917 635 1018 635 m 371 47 q 548 123 486 47 q 610 340 610 199 q 547 555 610 478 q 372 632 485 632 q 198 555 261 632 q 135 340 135 478 q 197 123 135 199 q 371 47 258 47 z "},"p":{"ha":785,"x_min":118,"x_max":713,"o":"m 413 689 q 569 645 501 689 q 675 522 638 601 q 713 338 713 443 q 675 155 713 233 q 569 33 638 76 q 413 -10 501 -10 q 267 28 328 -10 q 176 136 207 65 l 176 -250 l 118 -250 l 118 672 l 176 672 l 176 546 q 267 652 207 615 q 413 689 328 689 m 411 47 q 586 123 524 47 q 649 338 649 199 q 586 554 649 476 q 413 632 524 632 q 238 556 299 632 q 176 340 176 481 q 238 124 176 200 q 411 47 299 47 z "},"þ":{"ha":785,"x_min":118,"x_max":713,"o":"m 413 689 q 567 647 499 689 q 674 525 635 604 q 713 338 713 446 q 674 151 713 229 q 567 31 635 72 q 413 -10 499 -10 q 267 28 328 -10 q 176 136 207 65 l 176 -250 l 118 -250 l 118 979 l 176 979 l 176 546 q 267 652 207 615 q 413 689 328 689 m 411 47 q 587 124 525 47 q 649 338 649 200 q 587 553 649 474 q 413 632 525 632 q 238 556 299 632 q 176 340 176 481 q 238 124 176 200 q 411 47 299 47 z "},"q":{"ha":785,"x_min":72,"x_max":667,"o":"m 667 672 l 667 -250 l 608 -250 l 608 136 q 517 28 578 65 q 372 -10 457 -10 q 215 33 283 -10 q 110 155 147 76 q 72 338 72 233 q 110 522 72 443 q 215 645 147 601 q 372 689 283 689 q 517 652 457 689 q 608 546 578 615 l 608 672 l 667 672 m 374 47 q 547 124 486 47 q 608 340 608 200 q 547 556 608 481 q 372 632 486 632 q 198 554 261 632 q 135 338 135 476 q 198 124 135 200 q 374 47 261 47 z "},"r":{"ha":453,"x_min":118,"x_max":442,"o":"m 442 636 l 394 631 q 228 556 281 619 q 176 403 176 493 l 176 0 l 118 0 l 118 672 l 176 672 l 176 554 q 265 648 208 617 q 406 686 321 679 l 435 689 l 442 636 z "},"ŕ":{"ha":453,"x_min":118,"x_max":483,"o":"m 442 636 l 394 631 q 228 556 281 619 q 176 403 176 493 l 176 0 l 118 0 l 118 672 l 176 672 l 176 554 q 265 648 208 617 q 406 686 321 679 l 435 689 l 442 636 m 258 763 l 397 1040 l 483 1040 l 308 763 l 258 763 z "},"ř":{"ha":453,"x_min":103,"x_max":464,"o":"m 442 636 l 394 631 q 228 556 281 619 q 176 403 176 493 l 176 0 l 118 0 l 118 672 l 176 672 l 176 554 q 265 648 208 617 q 406 686 321 679 l 435 689 l 442 636 m 464 1040 l 310 763 l 257 763 l 103 1040 l 174 1040 l 283 821 l 393 1040 l 464 1040 z "},"ŗ":{"ha":453,"x_min":94,"x_max":442,"o":"m 442 636 l 394 631 q 228 556 281 619 q 176 403 176 493 l 176 0 l 118 0 l 118 672 l 176 672 l 176 554 q 265 648 208 617 q 406 686 321 679 l 435 689 l 442 636 m 196 -106 l 196 -181 q 181 -272 196 -231 q 132 -347 167 -312 l 94 -318 q 133 -259 122 -287 q 144 -196 143 -231 l 99 -196 l 99 -106 l 196 -106 z "},"ȑ":{"ha":453,"x_min":76,"x_max":442,"o":"m 442 636 l 394 631 q 228 556 281 619 q 176 403 176 493 l 176 0 l 118 0 l 118 672 l 176 672 l 176 554 q 265 648 208 617 q 406 686 321 679 l 435 689 l 442 636 m 76 1040 l 154 1040 l 226 763 l 188 763 l 76 1040 m 231 1040 l 307 1040 l 379 763 l 340 763 l 231 1040 z "},"ṛ":{"ha":453,"x_min":101,"x_max":442,"o":"m 442 636 l 394 631 q 228 556 281 619 q 176 403 176 493 l 176 0 l 118 0 l 118 672 l 176 672 l 176 554 q 265 648 208 617 q 406 686 321 679 l 435 689 l 442 636 m 193 -151 l 193 -240 l 101 -240 l 101 -151 l 193 -151 z "},"ȓ":{"ha":453,"x_min":71,"x_max":496,"o":"m 442 636 l 394 631 q 228 556 281 619 q 176 403 176 493 l 176 0 l 118 0 l 118 672 l 176 672 l 176 554 q 265 648 208 617 q 406 686 321 679 l 435 689 l 442 636 m 283 996 q 408 957 353 996 q 496 835 464 918 l 440 810 q 372 910 410 879 q 283 940 333 940 q 195 910 233 940 q 126 810 157 879 l 71 833 q 156 957 100 918 q 283 996 213 996 z "},"ṟ":{"ha":453,"x_min":-56,"x_max":442,"o":"m 442 636 l 394 631 q 228 556 281 619 q 176 403 176 493 l 176 0 l 118 0 l 118 672 l 176 672 l 176 554 q 265 648 208 617 q 406 686 321 679 l 435 689 l 442 636 m -56 -165 l 350 -165 l 350 -225 l -56 -225 l -56 -165 z "},"s":{"ha":661,"x_min":76,"x_max":579,"o":"m 328 -10 q 76 82 172 -10 l 104 131 q 209 67 158 85 q 332 49 260 49 q 468 81 421 49 q 515 171 515 113 q 485 249 515 219 q 386 294 454 278 l 272 321 q 147 387 193 339 q 100 497 100 435 q 165 636 100 583 q 342 689 231 689 q 472 665 413 689 q 569 599 532 642 l 542 549 q 449 610 497 590 q 342 631 400 631 q 213 597 260 631 q 167 506 167 564 q 195 424 167 454 q 285 379 224 394 l 400 351 q 579 175 579 310 q 511 41 579 92 q 328 -10 443 -10 z "},"ś":{"ha":661,"x_min":76,"x_max":579,"o":"m 328 -10 q 76 82 172 -10 l 104 131 q 209 67 158 85 q 332 49 260 49 q 468 81 421 49 q 515 171 515 113 q 485 249 515 219 q 386 294 454 278 l 272 321 q 147 387 193 339 q 100 497 100 435 q 165 636 100 583 q 342 689 231 689 q 472 665 413 689 q 569 599 532 642 l 542 549 q 449 610 497 590 q 342 631 400 631 q 213 597 260 631 q 167 506 167 564 q 195 424 167 454 q 285 379 224 394 l 400 351 q 579 175 579 310 q 511 41 579 92 q 328 -10 443 -10 m 317 763 l 456 1040 l 542 1040 l 367 763 l 317 763 z "},"ṥ":{"ha":661,"x_min":76,"x_max":579,"o":"m 328 -10 q 76 82 172 -10 l 104 131 q 209 67 158 85 q 332 49 260 49 q 468 81 421 49 q 515 171 515 113 q 485 249 515 219 q 386 294 454 278 l 272 321 q 147 387 193 339 q 100 497 100 435 q 165 636 100 583 q 342 689 231 689 q 472 665 413 689 q 569 599 532 642 l 542 549 q 449 610 497 590 q 342 631 400 631 q 213 597 260 631 q 167 506 167 564 q 195 424 167 454 q 285 379 224 394 l 400 351 q 579 175 579 310 q 511 41 579 92 q 328 -10 443 -10 m 314 763 l 453 1040 l 539 1040 l 364 763 l 314 763 m 260 1042 l 260 954 l 171 954 l 171 1042 l 260 1042 z "},"š":{"ha":661,"x_min":76,"x_max":579,"o":"m 328 -10 q 76 82 172 -10 l 104 131 q 209 67 158 85 q 332 49 260 49 q 468 81 421 49 q 515 171 515 113 q 485 249 515 219 q 386 294 454 278 l 272 321 q 147 387 193 339 q 100 497 100 435 q 165 636 100 583 q 342 689 231 689 q 472 665 413 689 q 569 599 532 642 l 542 549 q 449 610 497 590 q 342 631 400 631 q 213 597 260 631 q 167 506 167 564 q 195 424 167 454 q 285 379 224 394 l 400 351 q 579 175 579 310 q 511 41 579 92 q 328 -10 443 -10 m 522 1040 l 368 763 l 315 763 l 161 1040 l 232 1040 l 342 821 l 451 1040 l 522 1040 z "},"ṧ":{"ha":661,"x_min":76,"x_max":579,"o":"m 328 -10 q 76 82 172 -10 l 104 131 q 209 67 158 85 q 332 49 260 49 q 468 81 421 49 q 515 171 515 113 q 485 249 515 219 q 386 294 454 278 l 272 321 q 147 387 193 339 q 100 497 100 435 q 165 636 100 583 q 342 689 231 689 q 472 665 413 689 q 569 599 532 642 l 542 549 q 449 610 497 590 q 342 631 400 631 q 213 597 260 631 q 167 506 167 564 q 195 424 167 454 q 285 379 224 394 l 400 351 q 579 175 579 310 q 511 41 579 92 q 328 -10 443 -10 m 522 1040 l 368 763 l 315 763 l 161 1040 l 232 1040 l 342 821 l 451 1040 l 522 1040 m 386 1218 l 386 1131 l 297 1131 l 297 1218 l 386 1218 z "},"ş":{"ha":661,"x_min":76,"x_max":579,"o":"m 579 175 q 516 45 579 96 q 344 -10 453 -6 l 340 -62 q 382 -57 357 -57 q 452 -81 422 -57 q 482 -153 482 -104 q 443 -233 482 -201 q 336 -264 404 -264 q 274 -258 307 -264 q 218 -237 242 -251 l 238 -190 q 339 -210 282 -210 q 402 -194 381 -210 q 424 -153 424 -179 q 410 -121 424 -132 q 372 -110 397 -110 q 303 -125 343 -110 l 276 -106 l 286 -8 q 76 82 158 4 l 104 131 q 209 67 158 85 q 332 49 260 49 q 468 81 421 49 q 515 171 515 113 q 485 249 515 219 q 386 294 454 278 l 272 321 q 147 387 193 339 q 100 497 100 435 q 165 636 100 583 q 342 689 231 689 q 472 665 413 689 q 569 599 532 642 l 542 549 q 449 610 497 590 q 342 631 400 631 q 213 597 260 631 q 167 506 167 564 q 195 424 167 454 q 285 379 224 394 l 400 351 q 579 175 579 310 z "},"ŝ":{"ha":661,"x_min":76,"x_max":579,"o":"m 328 -10 q 76 82 172 -10 l 104 131 q 209 67 158 85 q 332 49 260 49 q 468 81 421 49 q 515 171 515 113 q 485 249 515 219 q 386 294 454 278 l 272 321 q 147 387 193 339 q 100 497 100 435 q 165 636 100 583 q 342 689 231 689 q 472 665 413 689 q 569 599 532 642 l 542 549 q 449 610 497 590 q 342 631 400 631 q 213 597 260 631 q 167 506 167 564 q 195 424 167 454 q 285 379 224 394 l 400 351 q 579 175 579 310 q 511 41 579 92 q 328 -10 443 -10 m 161 763 l 315 1040 l 368 1040 l 522 763 l 451 763 l 342 982 l 232 763 l 161 763 z "},"ș":{"ha":661,"x_min":76,"x_max":579,"o":"m 328 -10 q 76 82 172 -10 l 104 131 q 209 67 158 85 q 332 49 260 49 q 468 81 421 49 q 515 171 515 113 q 485 249 515 219 q 386 294 454 278 l 272 321 q 147 387 193 339 q 100 497 100 435 q 165 636 100 583 q 342 689 231 689 q 472 665 413 689 q 569 599 532 642 l 542 549 q 449 610 497 590 q 342 631 400 631 q 213 597 260 631 q 167 506 167 564 q 195 424 167 454 q 285 379 224 394 l 400 351 q 579 175 579 310 q 511 41 579 92 q 328 -10 443 -10 m 376 -106 l 376 -181 q 362 -272 376 -231 q 313 -347 347 -312 l 275 -318 q 313 -259 303 -287 q 325 -196 324 -231 l 279 -196 l 279 -106 l 376 -106 z "},"ṡ":{"ha":661,"x_min":76,"x_max":579,"o":"m 328 -10 q 76 82 172 -10 l 104 131 q 209 67 158 85 q 332 49 260 49 q 468 81 421 49 q 515 171 515 113 q 485 249 515 219 q 386 294 454 278 l 272 321 q 147 387 193 339 q 100 497 100 435 q 165 636 100 583 q 342 689 231 689 q 472 665 413 689 q 569 599 532 642 l 542 549 q 449 610 497 590 q 342 631 400 631 q 213 597 260 631 q 167 506 167 564 q 195 424 167 454 q 285 379 224 394 l 400 351 q 579 175 579 310 q 511 41 579 92 q 328 -10 443 -10 m 386 947 l 386 860 l 297 860 l 297 947 l 386 947 z "},"ṣ":{"ha":661,"x_min":76,"x_max":579,"o":"m 328 -10 q 76 82 172 -10 l 104 131 q 209 67 158 85 q 332 49 260 49 q 468 81 421 49 q 515 171 515 113 q 485 249 515 219 q 386 294 454 278 l 272 321 q 147 387 193 339 q 100 497 100 435 q 165 636 100 583 q 342 689 231 689 q 472 665 413 689 q 569 599 532 642 l 542 549 q 449 610 497 590 q 342 631 400 631 q 213 597 260 631 q 167 506 167 564 q 195 424 167 454 q 285 379 224 394 l 400 351 q 579 175 579 310 q 511 41 579 92 q 328 -10 443 -10 m 374 -151 l 374 -240 l 282 -240 l 282 -151 l 374 -151 z "},"ṩ":{"ha":661,"x_min":76,"x_max":579,"o":"m 328 -10 q 76 82 172 -10 l 104 131 q 209 67 158 85 q 332 49 260 49 q 468 81 421 49 q 515 171 515 113 q 485 249 515 219 q 386 294 454 278 l 272 321 q 147 387 193 339 q 100 497 100 435 q 165 636 100 583 q 342 689 231 689 q 472 665 413 689 q 569 599 532 642 l 542 549 q 449 610 497 590 q 342 631 400 631 q 213 597 260 631 q 167 506 167 564 q 195 424 167 454 q 285 379 224 394 l 400 351 q 579 175 579 310 q 511 41 579 92 q 328 -10 443 -10 m 374 -151 l 374 -240 l 282 -240 l 282 -151 l 374 -151 m 386 947 l 386 860 l 297 860 l 297 947 l 386 947 z "},"ß":{"ha":807,"x_min":118,"x_max":758,"o":"m 118 688 q 191 906 118 826 q 393 985 264 985 q 542 939 488 985 q 597 815 597 893 q 567 717 597 757 q 479 628 538 678 q 414 565 435 590 q 393 508 393 540 q 415 446 393 471 q 468 406 436 421 q 556 369 500 390 q 661 325 621 346 q 730 267 701 304 q 758 172 758 229 q 692 41 758 92 q 519 -10 625 -10 q 386 15 450 -10 q 279 82 322 39 l 307 131 q 414 67 365 86 q 519 47 463 49 q 648 81 601 47 q 694 175 694 115 q 672 242 694 215 q 617 283 650 268 q 526 318 583 299 q 422 360 461 340 q 356 414 383 379 q 329 504 329 449 q 356 588 329 553 q 436 667 383 624 q 513 742 488 710 q 538 818 538 774 q 500 899 538 869 q 396 928 463 928 q 233 866 290 928 q 176 689 176 804 l 176 0 l 118 0 l 118 688 z "},"t":{"ha":436,"x_min":11,"x_max":428,"o":"m 369 46 q 428 50 401 46 l 425 -4 q 363 -8 396 -8 q 202 52 258 -8 q 146 214 146 113 l 146 622 l 11 622 l 11 672 l 146 672 l 146 882 l 204 882 l 204 672 l 407 672 l 407 622 l 204 622 l 204 226 q 246 92 204 138 q 369 46 288 46 z "},"ŧ":{"ha":450,"x_min":18,"x_max":435,"o":"m 376 46 q 435 50 408 46 l 432 -4 q 369 -8 403 -8 q 209 52 265 -8 q 153 214 153 113 l 153 364 l 46 364 l 46 417 l 153 417 l 153 622 l 18 622 l 18 672 l 153 672 l 153 882 l 211 882 l 211 672 l 414 672 l 414 622 l 211 622 l 211 417 l 386 417 l 386 364 l 211 364 l 211 226 q 253 92 211 138 q 376 46 294 46 z "},"ť":{"ha":436,"x_min":11,"x_max":428,"o":"m 324 744 l 285 744 l 285 979 l 358 979 l 324 744 m 369 46 q 428 50 401 46 l 425 -4 q 363 -8 396 -8 q 202 52 258 -8 q 146 214 146 113 l 146 622 l 11 622 l 11 672 l 146 672 l 146 882 l 204 882 l 204 672 l 407 672 l 407 622 l 204 622 l 204 226 q 246 92 204 138 q 369 46 288 46 z "},"ţ":{"ha":436,"x_min":11,"x_max":439,"o":"m 339 -57 q 409 -81 379 -57 q 439 -153 439 -104 q 400 -233 439 -201 q 293 -264 361 -264 q 231 -258 264 -264 q 175 -237 199 -251 l 194 -190 q 296 -210 239 -210 q 359 -194 338 -210 q 381 -153 381 -179 q 367 -121 381 -132 q 329 -110 354 -110 q 260 -125 300 -110 l 233 -106 l 246 18 q 172 95 197 44 q 146 214 146 146 l 146 622 l 11 622 l 11 672 l 146 672 l 146 882 l 204 882 l 204 672 l 407 672 l 407 622 l 204 622 l 204 226 q 246 92 204 138 q 369 46 288 46 q 428 50 401 46 l 425 -4 q 363 -8 396 -8 q 303 -3 326 -8 l 297 -62 q 339 -57 314 -57 z "},"ț":{"ha":436,"x_min":11,"x_max":428,"o":"m 369 46 q 428 50 401 46 l 425 -4 q 363 -8 396 -8 q 202 52 258 -8 q 146 214 146 113 l 146 622 l 11 622 l 11 672 l 146 672 l 146 882 l 204 882 l 204 672 l 407 672 l 407 622 l 204 622 l 204 226 q 246 92 204 138 q 369 46 288 46 m 333 -106 l 333 -181 q 319 -272 333 -231 q 269 -347 304 -312 l 232 -318 q 270 -259 260 -287 q 282 -196 281 -231 l 236 -196 l 236 -106 l 333 -106 z "},"ẗ":{"ha":436,"x_min":11,"x_max":428,"o":"m 369 46 q 428 50 401 46 l 425 -4 q 363 -8 396 -8 q 202 52 258 -8 q 146 214 146 113 l 146 622 l 11 622 l 11 672 l 146 672 l 146 882 l 204 882 l 204 672 l 407 672 l 407 622 l 204 622 l 204 226 q 246 92 204 138 q 369 46 288 46 m 106 1113 l 106 1029 l 21 1029 l 21 1113 l 106 1113 m 329 1113 l 329 1029 l 244 1029 l 244 1113 l 329 1113 z "},"ṭ":{"ha":436,"x_min":11,"x_max":428,"o":"m 369 46 q 428 50 401 46 l 425 -4 q 363 -8 396 -8 q 202 52 258 -8 q 146 214 146 113 l 146 622 l 11 622 l 11 672 l 146 672 l 146 882 l 204 882 l 204 672 l 407 672 l 407 622 l 204 622 l 204 226 q 246 92 204 138 q 369 46 288 46 m 331 -151 l 331 -240 l 239 -240 l 239 -151 l 331 -151 z "},"ṯ":{"ha":436,"x_min":11,"x_max":488,"o":"m 369 46 q 428 50 401 46 l 425 -4 q 363 -8 396 -8 q 202 52 258 -8 q 146 214 146 113 l 146 622 l 11 622 l 11 672 l 146 672 l 146 882 l 204 882 l 204 672 l 407 672 l 407 622 l 204 622 l 204 226 q 246 92 204 138 q 369 46 288 46 m 82 -165 l 488 -165 l 488 -225 l 82 -225 l 82 -165 z "},"u":{"ha":757,"x_min":115,"x_max":639,"o":"m 639 672 l 639 0 l 582 0 l 582 126 q 490 26 550 61 q 353 -10 429 -10 q 176 56 236 -10 q 115 247 115 121 l 115 672 l 174 672 l 174 253 q 217 97 174 147 q 350 47 260 47 q 517 113 454 47 q 581 289 581 179 l 581 672 l 639 672 z "},"ú":{"ha":757,"x_min":115,"x_max":639,"o":"m 639 672 l 639 0 l 582 0 l 582 126 q 490 26 550 61 q 353 -10 429 -10 q 176 56 236 -10 q 115 247 115 121 l 115 672 l 174 672 l 174 253 q 217 97 174 147 q 350 47 260 47 q 517 113 454 47 q 581 289 581 179 l 581 672 l 639 672 m 354 763 l 493 1040 l 579 1040 l 404 763 l 354 763 z "},"ŭ":{"ha":757,"x_min":115,"x_max":639,"o":"m 639 672 l 639 0 l 582 0 l 582 126 q 490 26 550 61 q 353 -10 429 -10 q 176 56 236 -10 q 115 247 115 121 l 115 672 l 174 672 l 174 253 q 217 97 174 147 q 350 47 260 47 q 517 113 454 47 q 581 289 581 179 l 581 672 l 639 672 m 379 811 q 254 849 310 811 q 167 972 199 888 l 222 996 q 291 897 253 926 q 379 867 329 867 q 467 897 429 867 q 536 996 506 926 l 592 974 q 506 850 563 889 q 379 811 450 811 z "},"û":{"ha":757,"x_min":115,"x_max":639,"o":"m 639 672 l 639 0 l 582 0 l 582 126 q 490 26 550 61 q 353 -10 429 -10 q 176 56 236 -10 q 115 247 115 121 l 115 672 l 174 672 l 174 253 q 217 97 174 147 q 350 47 260 47 q 517 113 454 47 q 581 289 581 179 l 581 672 l 639 672 m 199 763 l 353 1040 l 406 1040 l 560 763 l 489 763 l 379 982 l 269 763 l 199 763 z "},"ȕ":{"ha":757,"x_min":115,"x_max":639,"o":"m 639 672 l 639 0 l 582 0 l 582 126 q 490 26 550 61 q 353 -10 429 -10 q 176 56 236 -10 q 115 247 115 121 l 115 672 l 174 672 l 174 253 q 217 97 174 147 q 350 47 260 47 q 517 113 454 47 q 581 289 581 179 l 581 672 l 639 672 m 172 1040 l 250 1040 l 322 763 l 283 763 l 172 1040 m 326 1040 l 403 1040 l 475 763 l 436 763 l 326 1040 z "},"ü":{"ha":757,"x_min":115,"x_max":639,"o":"m 639 672 l 639 0 l 582 0 l 582 126 q 490 26 550 61 q 353 -10 429 -10 q 176 56 236 -10 q 115 247 115 121 l 115 672 l 174 672 l 174 253 q 217 97 174 147 q 350 47 260 47 q 517 113 454 47 q 581 289 581 179 l 581 672 l 639 672 m 310 944 l 310 861 l 225 861 l 225 944 l 310 944 m 533 944 l 533 861 l 449 861 l 449 944 l 533 944 z "},"ụ":{"ha":757,"x_min":115,"x_max":639,"o":"m 639 672 l 639 0 l 582 0 l 582 126 q 490 26 550 61 q 353 -10 429 -10 q 176 56 236 -10 q 115 247 115 121 l 115 672 l 174 672 l 174 253 q 217 97 174 147 q 350 47 260 47 q 517 113 454 47 q 581 289 581 179 l 581 672 l 639 672 m 425 -151 l 425 -240 l 333 -240 l 333 -151 l 425 -151 z "},"ù":{"ha":757,"x_min":115,"x_max":639,"o":"m 639 672 l 639 0 l 582 0 l 582 126 q 490 26 550 61 q 353 -10 429 -10 q 176 56 236 -10 q 115 247 115 121 l 115 672 l 174 672 l 174 253 q 217 97 174 147 q 350 47 260 47 q 517 113 454 47 q 581 289 581 179 l 581 672 l 639 672 m 179 1040 l 265 1040 l 404 763 l 354 763 l 179 1040 z "},"ủ":{"ha":757,"x_min":115,"x_max":639,"o":"m 639 672 l 639 0 l 582 0 l 582 126 q 490 26 550 61 q 353 -10 429 -10 q 176 56 236 -10 q 115 247 115 121 l 115 672 l 174 672 l 174 253 q 217 97 174 147 q 350 47 260 47 q 517 113 454 47 q 581 289 581 179 l 581 672 l 639 672 m 410 763 l 354 763 l 354 804 q 368 851 354 831 q 408 897 382 871 q 438 928 428 915 q 447 956 447 942 q 431 981 447 972 q 385 990 414 990 q 296 974 342 990 l 279 1024 q 386 1047 331 1047 q 478 1022 444 1047 q 513 957 513 997 q 499 907 513 925 q 458 865 486 889 q 422 826 433 843 q 410 783 410 810 l 410 763 z "},"ư":{"ha":768,"x_min":115,"x_max":806,"o":"m 806 856 l 806 828 q 763 690 806 742 q 639 629 719 639 l 639 0 l 582 0 l 582 126 q 490 26 550 61 q 353 -10 429 -10 q 176 56 236 -10 q 115 247 115 121 l 115 672 l 174 672 l 174 253 q 217 97 174 147 q 350 47 260 47 q 517 113 454 47 q 581 289 581 179 l 581 672 l 599 672 q 714 713 678 674 q 750 839 750 753 l 750 856 l 806 856 z "},"ứ":{"ha":768,"x_min":115,"x_max":806,"o":"m 806 856 l 806 828 q 763 690 806 742 q 639 629 719 639 l 639 0 l 582 0 l 582 126 q 490 26 550 61 q 353 -10 429 -10 q 176 56 236 -10 q 115 247 115 121 l 115 672 l 174 672 l 174 253 q 217 97 174 147 q 350 47 260 47 q 517 113 454 47 q 581 289 581 179 l 581 672 l 599 672 q 714 713 678 674 q 750 839 750 753 l 750 856 l 806 856 m 354 763 l 493 1040 l 579 1040 l 404 763 l 354 763 z "},"ự":{"ha":768,"x_min":115,"x_max":806,"o":"m 806 856 l 806 828 q 763 690 806 742 q 639 629 719 639 l 639 0 l 582 0 l 582 126 q 490 26 550 61 q 353 -10 429 -10 q 176 56 236 -10 q 115 247 115 121 l 115 672 l 174 672 l 174 253 q 217 97 174 147 q 350 47 260 47 q 517 113 454 47 q 581 289 581 179 l 581 672 l 599 672 q 714 713 678 674 q 750 839 750 753 l 750 856 l 806 856 m 425 -151 l 425 -240 l 333 -240 l 333 -151 l 425 -151 z "},"ừ":{"ha":768,"x_min":115,"x_max":806,"o":"m 806 856 l 806 828 q 763 690 806 742 q 639 629 719 639 l 639 0 l 582 0 l 582 126 q 490 26 550 61 q 353 -10 429 -10 q 176 56 236 -10 q 115 247 115 121 l 115 672 l 174 672 l 174 253 q 217 97 174 147 q 350 47 260 47 q 517 113 454 47 q 581 289 581 179 l 581 672 l 599 672 q 714 713 678 674 q 750 839 750 753 l 750 856 l 806 856 m 179 1040 l 265 1040 l 404 763 l 354 763 l 179 1040 z "},"ử":{"ha":768,"x_min":115,"x_max":806,"o":"m 806 856 l 806 828 q 763 690 806 742 q 639 629 719 639 l 639 0 l 582 0 l 582 126 q 490 26 550 61 q 353 -10 429 -10 q 176 56 236 -10 q 115 247 115 121 l 115 672 l 174 672 l 174 253 q 217 97 174 147 q 350 47 260 47 q 517 113 454 47 q 581 289 581 179 l 581 672 l 599 672 q 714 713 678 674 q 750 839 750 753 l 750 856 l 806 856 m 410 763 l 354 763 l 354 804 q 368 851 354 831 q 408 897 382 871 q 438 928 428 915 q 447 956 447 942 q 431 981 447 972 q 385 990 414 990 q 296 974 342 990 l 279 1024 q 386 1047 331 1047 q 478 1022 444 1047 q 513 957 513 997 q 499 907 513 925 q 458 865 486 889 q 422 826 433 843 q 410 783 410 810 l 410 763 z "},"ữ":{"ha":768,"x_min":115,"x_max":806,"o":"m 806 856 l 806 828 q 763 690 806 742 q 639 629 719 639 l 639 0 l 582 0 l 582 126 q 490 26 550 61 q 353 -10 429 -10 q 176 56 236 -10 q 115 247 115 121 l 115 672 l 174 672 l 174 253 q 217 97 174 147 q 350 47 260 47 q 517 113 454 47 q 581 289 581 179 l 581 672 l 599 672 q 714 713 678 674 q 750 839 750 753 l 750 856 l 806 856 m 165 839 q 194 935 165 899 q 275 972 224 972 q 333 960 306 972 q 397 925 360 949 q 444 899 425 908 q 478 890 463 890 q 528 914 510 890 q 546 968 547 938 l 593 968 q 564 872 593 908 q 483 835 535 835 q 425 847 453 835 q 361 883 397 860 q 315 909 333 900 q 281 918 296 918 q 230 894 249 918 q 213 839 211 871 l 165 839 z "},"ű":{"ha":757,"x_min":115,"x_max":639,"o":"m 639 672 l 639 0 l 582 0 l 582 126 q 490 26 550 61 q 353 -10 429 -10 q 176 56 236 -10 q 115 247 115 121 l 115 672 l 174 672 l 174 253 q 217 97 174 147 q 350 47 260 47 q 517 113 454 47 q 581 289 581 179 l 581 672 l 639 672 m 283 763 l 356 1040 l 432 1040 l 322 763 l 283 763 m 436 763 l 508 1040 l 586 1040 l 475 763 l 436 763 z "},"ȗ":{"ha":757,"x_min":115,"x_max":639,"o":"m 639 672 l 639 0 l 582 0 l 582 126 q 490 26 550 61 q 353 -10 429 -10 q 176 56 236 -10 q 115 247 115 121 l 115 672 l 174 672 l 174 253 q 217 97 174 147 q 350 47 260 47 q 517 113 454 47 q 581 289 581 179 l 581 672 l 639 672 m 379 996 q 504 957 449 996 q 592 835 560 918 l 536 810 q 467 910 506 879 q 379 940 429 940 q 291 910 329 940 q 222 810 253 879 l 167 833 q 252 957 196 918 q 379 996 308 996 z "},"ū":{"ha":757,"x_min":115,"x_max":639,"o":"m 639 672 l 639 0 l 582 0 l 582 126 q 490 26 550 61 q 353 -10 429 -10 q 176 56 236 -10 q 115 247 115 121 l 115 672 l 174 672 l 174 253 q 217 97 174 147 q 350 47 260 47 q 517 113 454 47 q 581 289 581 179 l 581 672 l 639 672 m 176 933 l 582 933 l 582 874 l 176 874 l 176 933 z "},"ṻ":{"ha":757,"x_min":115,"x_max":639,"o":"m 639 672 l 639 0 l 582 0 l 582 126 q 490 26 550 61 q 353 -10 429 -10 q 176 56 236 -10 q 115 247 115 121 l 115 672 l 174 672 l 174 253 q 217 97 174 147 q 350 47 260 47 q 517 113 454 47 q 581 289 581 179 l 581 672 l 639 672 m 176 933 l 582 933 l 582 874 l 176 874 l 176 933 m 310 1215 l 310 1132 l 225 1132 l 225 1215 l 310 1215 m 533 1215 l 533 1132 l 449 1132 l 449 1215 l 533 1215 z "},"ų":{"ha":757,"x_min":115,"x_max":706,"o":"m 706 -232 q 599 -264 663 -264 q 487 -225 529 -264 q 444 -122 444 -186 q 481 -20 444 -64 q 582 43 517 24 l 582 126 q 490 26 550 61 q 353 -10 429 -10 q 176 56 236 -10 q 115 247 115 121 l 115 672 l 174 672 l 174 253 q 217 97 174 147 q 350 47 260 47 q 517 113 454 47 q 581 289 581 179 l 581 672 l 639 672 l 639 0 l 635 0 q 542 -33 578 0 q 506 -117 506 -65 q 531 -186 506 -161 q 601 -211 557 -211 q 685 -185 632 -211 l 706 -232 z "},"ů":{"ha":757,"x_min":115,"x_max":639,"o":"m 639 672 l 639 0 l 582 0 l 582 126 q 490 26 550 61 q 353 -10 429 -10 q 176 56 236 -10 q 115 247 115 121 l 115 672 l 174 672 l 174 253 q 217 97 174 147 q 350 47 260 47 q 517 113 454 47 q 581 289 581 179 l 581 672 l 639 672 m 379 769 q 284 808 324 769 q 244 901 244 846 q 284 995 244 957 q 379 1033 324 1033 q 474 995 435 1033 q 514 901 514 957 q 474 808 514 846 q 379 769 435 769 m 379 828 q 430 849 410 828 q 450 901 450 871 q 430 954 450 933 q 379 975 410 975 q 328 954 349 975 q 308 901 308 933 q 328 849 308 871 q 379 828 349 828 z "},"ũ":{"ha":757,"x_min":115,"x_max":639,"o":"m 639 672 l 639 0 l 582 0 l 582 126 q 490 26 550 61 q 353 -10 429 -10 q 176 56 236 -10 q 115 247 115 121 l 115 672 l 174 672 l 174 253 q 217 97 174 147 q 350 47 260 47 q 517 113 454 47 q 581 289 581 179 l 581 672 l 639 672 m 165 839 q 194 935 165 899 q 275 972 224 972 q 333 960 306 972 q 397 925 360 949 q 444 899 425 908 q 478 890 463 890 q 528 914 510 890 q 546 968 547 938 l 593 968 q 564 872 593 908 q 483 835 535 835 q 425 847 453 835 q 361 883 397 860 q 315 909 333 900 q 281 918 296 918 q 230 894 249 918 q 213 839 211 871 l 165 839 z "}}}
